<svg width="450" height="358" viewBox="0 0 450 358" fill="none" xmlns="http://www.w3.org/2000/svg">
<path d="M173.585 294.995L68.3822 234.073C64.9258 232.071 63.3151 229.372 63.4297 226.565L63.4062 226.573L63.4488 211.308L69.2994 218.162C69.6788 217.911 70.0608 217.661 70.4761 217.422L285.69 93.5666C294.233 88.6495 307.149 88.132 314.536 92.4109L418.263 152.477C420.361 150.179 424.763 145.325 424.763 145.325L424.714 160.257L424.711 160.255C424.866 163.622 422.471 167.208 417.646 169.984L202.432 293.84C193.888 298.756 180.973 299.273 173.585 294.995Z" fill="#939393"/>
<path d="M285.691 93.5667C294.235 88.6494 307.15 88.1319 314.537 92.411L418.263 152.477C420.362 150.179 424.764 145.325 424.764 145.325L424.714 160.257L424.712 160.255C424.867 163.622 422.472 167.208 417.647 169.983L202.433 293.839C197.976 296.404 192.332 297.76 186.9 297.874L187.105 150.302L285.691 93.5667Z" fill="#333333"/>
<path d="M419.784 137.985L314.581 77.0633C307.194 72.7843 294.278 73.3018 285.734 78.2189L70.5208 202.074C61.9766 206.991 61.039 214.447 68.4267 218.725L173.629 279.647C181.018 283.927 193.933 283.409 202.477 278.492L417.69 154.636C426.234 149.719 427.172 142.264 419.784 137.985Z" fill="#939393"/>
<path d="M173.55 281.277L68.3473 220.354C64.5374 218.147 62.9592 215.095 63.4792 211.983C63.6659 214.511 65.2868 216.905 68.4275 218.725L173.631 279.646C181.018 283.925 193.933 283.409 202.478 278.492L417.69 154.636C421.829 152.254 424.165 149.279 424.653 146.355C424.906 149.774 422.523 153.439 417.61 156.265L202.398 280.12C193.853 285.038 180.938 285.555 173.55 281.277Z" fill="white"/>
<path d="M411.682 140.385L310.594 81.8463C305.102 78.6659 295.503 79.0505 289.152 82.7054L76.9953 204.801C70.6447 208.457 69.9478 213.997 75.4389 217.178L176.527 275.716C182.018 278.897 191.618 278.512 197.969 274.858L410.125 152.762C416.476 149.107 417.173 143.566 411.682 140.385Z" fill="white"/>
<path d="M72.0514 203.046L72.0742 203.047C62.1403 197.53 55.9395 185.443 55.8851 168.142C55.7773 133.892 79.7759 92.0206 109.383 74.8025L130.749 62.377L131.78 62.9557L229.784 118.072L204.956 134.209L195.634 141.029L182.801 154.436L180.738 156.318L167.08 177.008L162.071 189.962L158.357 200.263L155.305 221.87L155.094 223.736L156.197 232.847L159.348 244.126L163.793 251.77L170.259 259.445L72.0514 203.046Z" fill="#CC1517"/>
<path d="M299.685 85.2637L299.696 88.8908L178.531 159.044C179.632 156.518 181.714 154.423 183.843 152.321L299.685 85.2637Z" fill="#D4ECFF"/>
<path d="M397.695 141.556L299.685 85.2637L184.221 153.27L176.793 161.917L165.638 181.516L158.63 201.108L156.348 216.422L156.061 231.711L165.634 253.582L178.081 260.854L190.879 261.519L206.231 255.148L383.706 151.373L397.695 141.556Z" fill="#E7E7E7"/>
<path d="M72.0731 203.046C63.7614 198.431 58.0796 189.2 56.4082 176.18L156.371 233.475L159.347 244.125L163.791 251.769L170.257 259.444L72.0503 203.045L72.0731 203.046Z" fill="#CC1517"/>
<path d="M56.7879 178.68C56.2169 175.42 55.897 171.912 55.8851 168.142C55.8771 165.62 56.0148 163.054 56.2612 160.463L155.911 217.579L155.305 221.87L155.094 223.736L156.196 232.847L157.131 236.193L56.7879 178.68Z" fill="#AD1214"/>
<path d="M397.705 145.184L397.693 141.557L207.771 251.697C179.893 267.909 157.13 254.862 157.028 222.612C156.927 190.361 179.525 150.935 207.403 134.722L229.795 121.699L229.784 118.072L207.391 131.095C177.783 148.313 153.785 190.185 153.893 224.435C154.001 258.686 178.175 272.543 207.781 255.324L397.705 145.184Z" fill="#AD1214"/>
<path d="M301.118 168.975L252.788 141.692C250.859 140.605 247.512 140.779 245.312 142.081L217.696 158.412C215.496 159.713 215.276 161.649 217.205 162.736L265.534 190.019C267.463 191.106 270.81 190.932 273.01 189.631L300.625 173.299C302.826 171.998 303.047 170.062 301.118 168.975Z" fill="#E59B9C"/>
<path d="M264.334 184.101L214.651 156.106C213.668 155.552 213.2 154.801 213.175 154.012C213.171 154.014 213.149 154.031 213.149 154.031L213.094 148.499C213.094 148.499 214.838 149.931 215.866 150.771L246.822 132.463C249.342 130.973 253.173 130.774 255.381 132.018L302.869 158.777L306.501 156.629L306.566 162.213L306.544 162.195C306.531 163.153 305.856 164.162 304.501 164.963L272.892 183.656C270.373 185.146 266.541 185.345 264.334 184.101Z" fill="#AD1214"/>
<path d="M305.001 154.385L255.317 126.389C253.11 125.145 249.279 125.344 246.76 126.834L215.151 145.527C212.633 147.016 212.38 149.233 214.589 150.476L264.271 178.472C266.479 179.716 270.311 179.516 272.829 178.028L304.438 159.334C306.957 157.845 307.209 155.628 305.001 154.385Z" fill="#CC1517"/>
<path d="M264.272 178.471L214.589 150.475C213.334 149.768 212.901 148.746 213.201 147.723C213.432 148.202 213.84 148.646 214.477 149.005L264.161 177C266.368 178.244 270.2 178.045 272.718 176.556L304.327 157.863C305.414 157.22 306.051 156.442 306.278 155.666C306.852 156.849 306.231 158.274 304.439 159.333L272.83 178.026C270.311 179.517 266.48 179.715 264.272 178.471Z" fill="white"/>
<path d="M252.881 147.126C254.71 146.044 254.692 144.321 252.841 143.278C250.99 142.235 248.006 142.266 246.177 143.348C244.347 144.429 244.366 146.152 246.217 147.195C248.068 148.238 251.052 148.207 252.881 147.126Z" fill="white"/>
<path d="M263.035 152.848C264.864 151.766 264.847 150.045 262.995 149.001C261.143 147.958 258.16 147.989 256.33 149.07C254.501 150.153 254.52 151.875 256.371 152.918C258.223 153.961 261.206 153.93 263.035 152.848Z" fill="white"/>
<path d="M273.192 158.571C275.021 157.49 275.002 155.767 273.151 154.724C271.3 153.68 268.316 153.711 266.487 154.793C264.658 155.875 264.676 157.598 266.527 158.641C268.379 159.684 271.362 159.653 273.192 158.571Z" fill="white"/>
<path d="M259.419 76.5493L211.089 49.2665C209.16 48.1797 205.813 48.3535 203.612 49.6548L175.997 65.9861C173.797 67.2873 173.577 69.2233 175.506 70.3102L223.835 97.5931C225.763 98.6798 229.111 98.506 231.311 97.2048L258.926 80.8735C261.127 79.5722 261.348 77.6362 259.419 76.5493Z" fill="#EFEFEF"/>
<path d="M222.134 90.3251L172.228 62.2034C171.24 61.6469 170.769 60.8939 170.744 60.1009C170.741 60.1032 170.719 60.1202 170.719 60.1202L170.662 54.5629C170.662 54.5629 172.416 56.0015 173.447 56.8446L204.544 38.4547C207.073 36.9585 210.923 36.7585 213.14 38.0082L260.841 64.887L264.49 62.7293L264.555 68.3388L264.534 68.321C264.52 69.2828 263.842 70.2965 262.481 71.1014L230.73 89.8785C228.2 91.3747 224.351 91.5746 222.134 90.3251Z" fill="#AD1214"/>
<path d="M262.984 60.4733L213.078 32.352C210.86 31.1023 207.012 31.3022 204.481 32.7984L172.73 51.5754C170.201 53.0716 169.948 55.2975 172.165 56.5471L222.071 84.6686C224.289 85.9182 228.137 85.7183 230.667 84.2222L262.419 65.445C264.948 63.9489 265.201 61.723 262.984 60.4733Z" fill="#CC1517"/>
<path d="M222.07 84.6698L172.164 56.5479C170.903 55.8375 170.468 54.811 170.769 53.7832C171.002 54.2647 171.413 54.7108 172.051 55.071L221.959 83.1922C224.176 84.4418 228.025 84.242 230.555 82.7459L262.305 63.9691C263.397 63.3234 264.038 62.5422 264.266 61.7619C264.842 62.951 264.219 64.3813 262.418 65.4461L230.667 84.2229C228.137 85.7194 224.287 85.9194 222.07 84.6698Z" fill="white"/>
<path d="M210.626 53.1835C212.463 52.0969 212.446 50.3666 210.585 49.3186C208.726 48.2707 205.729 48.302 203.892 49.3886C202.055 50.4751 202.072 52.2055 203.932 53.2535C205.791 54.3014 208.789 54.27 210.626 53.1835Z" fill="white"/>
<path d="M220.828 58.9315C222.665 57.8449 222.647 56.1146 220.787 55.0666C218.927 54.0187 215.93 54.0501 214.093 55.1366C212.255 56.2232 212.274 57.9535 214.133 59.0015C215.993 60.0494 218.991 60.018 220.828 58.9315Z" fill="white"/>
<path d="M231.031 64.6795C232.868 63.593 232.849 61.8626 230.99 60.8147C229.13 59.7668 226.134 59.7982 224.295 60.8847C222.458 61.9713 222.477 63.7016 224.337 64.7495C226.196 65.7974 229.193 65.7661 231.031 64.6795Z" fill="white"/>
<path d="M67.7875 322.881C82.1537 322.881 93.7998 316.158 93.7998 307.864C93.7998 299.57 82.1537 292.846 67.7875 292.846C53.4214 292.846 41.7754 299.57 41.7754 307.864C41.7754 316.158 53.4214 322.881 67.7875 322.881Z" fill="#EFEFEF"/>
<path d="M100.338 295.053V289.069H98.6129C97.0633 286.401 94.4834 283.889 90.8035 281.765C78.0907 274.425 57.4794 274.425 44.7667 281.765C41.0868 283.889 38.5068 286.401 36.9574 289.069H35.2344V295.004H35.2366C35.2149 299.83 38.3892 304.66 44.7674 308.344C57.4803 315.683 78.0917 315.683 90.8042 308.344C97.161 304.674 100.339 299.863 100.338 295.053Z" fill="#AD1214"/>
<path d="M67.7854 307.872C85.764 307.872 100.338 299.458 100.338 289.078C100.338 278.698 85.764 270.283 67.7854 270.283C49.8069 270.283 35.2324 278.698 35.2324 289.078C35.2324 299.458 49.8068 307.872 67.7854 307.872Z" fill="#CC1517"/>
<path d="M90.8044 302.359C78.0918 309.698 57.4804 309.698 44.7676 302.359C38.6749 298.841 35.5352 294.275 35.2822 289.666C35.0076 294.674 38.1473 299.732 44.7676 303.555C57.4804 310.894 78.0918 310.894 90.8044 303.555C97.4245 299.732 100.564 294.675 100.289 289.667C100.037 294.275 96.8969 298.841 90.8044 302.359Z" fill="white"/>
<path d="M52.0961 295.29C51.5485 294.975 51.237 294.544 51.2383 294.092L51.2711 281.846C51.2731 280.913 52.5874 280.157 54.2052 280.158C55.8243 280.158 57.1306 280.917 57.1299 281.853L57.1025 292.006L86.5716 288.398C88.1557 288.203 89.7102 288.787 90.0461 289.701C90.3826 290.615 89.3704 291.514 87.7883 291.708L54.776 295.749C53.9102 295.855 53.0086 295.73 52.3214 295.409C52.2432 295.371 52.1677 295.332 52.0961 295.29Z" fill="white"/>
<path d="M334.191 149.162L290.069 123.434L287.301 125.016L331.423 150.744L334.191 149.162Z" fill="#939393"/>
<path d="M332.959 134.481L302.16 116.521L299.393 118.104L330.192 136.063L332.959 134.481Z" fill="#939393"/>
<path d="M322.76 135.514L296.115 119.977L293.348 121.559L319.993 137.096L322.76 135.514Z" fill="#939393"/>
<path d="M340.237 145.706L326.915 137.938L324.146 139.52L337.47 147.288L340.237 145.706Z" fill="#939393"/>
<path d="M224.424 208.821L180.302 183.094L177.533 184.676L221.655 210.404L224.424 208.821Z" fill="#939393"/>
<path d="M223.193 194.139L192.394 176.18L189.625 177.762L220.425 195.722L223.193 194.139Z" fill="#939393"/>
<path d="M212.992 195.173L186.347 179.637L183.58 181.219L210.225 196.756L212.992 195.173Z" fill="#939393"/>
<path d="M230.469 205.364L217.147 197.596L214.379 199.178L227.702 206.947L230.469 205.364Z" fill="#939393"/>
</svg>
