<svg width="50" height="49" viewBox="0 0 50 49" fill="none" xmlns="http://www.w3.org/2000/svg">
<path d="M10.7434 38.1287V36.7395C10.7434 36.2173 10.5418 35.7147 10.1796 35.3345C9.41252 34.5291 8.02912 33.0768 7.10685 32.1091C6.51027 31.4825 6.17773 30.6546 6.17773 29.7943C6.17773 27.0024 6.17773 20.5344 6.17773 17.0903C6.17773 15.8462 7.19893 14.8379 8.45906 14.8379H8.4621C9.06705 14.8379 9.64766 15.0753 10.0753 15.4975C10.503 15.9198 10.7434 16.493 10.7434 17.0903C10.7434 18.7966 10.7434 20.8484 10.7434 20.8484" stroke="#CC1517" stroke-width="2.46586" stroke-miterlimit="2" stroke-linecap="round" stroke-linejoin="round"/>
<path d="M39.6602 38.1287V36.7395C39.6602 36.2173 39.8618 35.7147 40.224 35.3345C40.9911 34.5291 42.3745 33.0768 43.2967 32.1091C43.8933 31.4825 44.2258 30.6546 44.2258 29.7943C44.2258 27.0024 44.2258 20.5344 44.2258 17.0903C44.2258 15.8462 43.2047 14.8379 41.9445 14.8379H41.9415C41.3365 14.8379 40.7559 15.0753 40.3283 15.4975C39.9006 15.9198 39.6602 16.493 39.6602 17.0903C39.6602 18.7966 39.6602 20.8484 39.6602 20.8484" stroke="#CC1517" stroke-width="2.46586" stroke-miterlimit="2" stroke-linecap="round" stroke-linejoin="round"/>
<path d="M22.9185 42.9216V39.2153C22.9185 38.9276 22.8029 38.6511 22.5959 38.4475C22.3897 38.2431 22.1097 38.1289 21.8182 38.1289C19.3756 38.1289 13.5254 38.1289 11.0828 38.1289C10.7913 38.1289 10.5113 38.2431 10.3051 38.4475C10.0981 38.6511 9.98242 38.9276 9.98242 39.2153C9.98242 40.6293 9.98242 42.9216 9.98242 42.9216" stroke="#CC1517" stroke-width="2.46586" stroke-miterlimit="2" stroke-linecap="round" stroke-linejoin="round"/>
<path d="M27.4844 42.9216V39.2153C27.4844 38.9276 27.6 38.6511 27.807 38.4475C28.0132 38.2431 28.2933 38.1289 28.5847 38.1289C31.0273 38.1289 36.8775 38.1289 39.3202 38.1289C39.6116 38.1289 39.8916 38.2431 40.0978 38.4475C40.3048 38.6511 40.4205 38.9276 40.4205 39.2153C40.4205 40.6293 40.4205 42.9216 40.4205 42.9216" stroke="#CC1517" stroke-width="2.46586" stroke-miterlimit="2" stroke-linecap="round" stroke-linejoin="round"/>
<path d="M22.1586 38.1281V34.0027C22.1586 32.1702 21.3976 30.4181 20.053 29.1544C18.3128 27.5188 15.8861 25.2386 14.3535 23.7975C13.5424 23.0357 12.2647 23.0515 11.4734 23.8328L11.4718 23.8343C10.65 24.6458 10.65 25.9621 11.4718 26.7735C12.9237 28.2078 14.9166 30.1747 14.9166 30.1747" stroke="#CC1517" stroke-width="2.46586" stroke-miterlimit="2" stroke-linecap="round" stroke-linejoin="round"/>
<path d="M28.2461 38.1281V34.0027C28.2461 32.1702 29.007 30.4181 30.3516 29.1544C32.0919 27.5188 34.5186 25.2386 36.0511 23.7975C36.8623 23.0357 38.1399 23.0515 38.9313 23.8328L38.9328 23.8343C39.7547 24.6458 39.7547 25.9621 38.9328 26.7735C37.481 28.2078 35.488 30.1747 35.488 30.1747" stroke="#CC1517" stroke-width="2.46586" stroke-miterlimit="2" stroke-linecap="round" stroke-linejoin="round"/>
<path d="M17.7362 4.41602C16.7462 4.41602 15.8314 4.90478 15.2813 5.71939L13.2202 8.76058C12.977 9.12072 12.8496 9.53803 12.8496 9.97249V14.8201C12.8496 15.4889 13.3041 16.0749 13.9613 16.2378L15.8835 16.718C16.1614 18.0471 17.3541 19.0503 18.7784 19.0503C20.1506 19.0503 21.297 18.1128 21.627 16.8552H28.5284C28.8585 18.1128 30.0049 19.0503 31.377 19.0503C32.7492 19.0503 33.8956 18.1128 34.2256 16.8552H35.0825C35.8931 16.8552 36.5647 16.1921 36.5647 15.3918V12.7164C36.5647 11.3759 35.6355 10.204 34.3183 9.88102L30.3117 8.87491L27.4168 5.46786C26.8523 4.80188 26.0272 4.41602 25.1472 4.41602H17.7362ZM17.7362 5.87945H21.0017V8.80631H14.9803L16.5088 6.54257V6.5197C16.7838 6.11097 17.2383 5.87945 17.7362 5.87945ZM22.4839 5.87945H25.1472C25.5872 5.87945 26.0012 6.07095 26.282 6.40537L28.32 8.80631H22.4839V5.87945ZM14.3318 10.2697H29.8022L33.9709 11.2987C34.6338 11.4616 35.0825 12.0419 35.0825 12.7164V15.3918H34.2256C33.8956 14.1341 32.7492 13.1966 31.377 13.1966C30.0049 13.1966 28.8585 14.1341 28.5284 15.3918H21.627C21.297 14.1341 20.1506 13.1966 18.7784 13.1966C17.4641 13.1966 16.3611 14.0541 15.9761 15.2317L14.3318 14.8201V10.2697ZM18.7784 14.66C19.6063 14.66 20.2606 15.306 20.2606 16.1235C20.2606 16.9409 19.6063 17.5869 18.7784 17.5869C17.9504 17.5869 17.2962 16.9409 17.2962 16.1235C17.2962 15.306 17.9504 14.66 18.7784 14.66ZM31.377 14.66C32.205 14.66 32.8592 15.306 32.8592 16.1235C32.8592 16.9409 32.205 17.5869 31.377 17.5869C30.5491 17.5869 29.8948 16.9409 29.8948 16.1235C29.8948 15.306 30.5491 14.66 31.377 14.66Z" fill="#CC1517"/>
</svg>
