<svg width="224" height="64" viewBox="0 0 224 64" fill="none" xmlns="http://www.w3.org/2000/svg">
<path fill-rule="evenodd" clip-rule="evenodd" d="M97.7555 49.0981V37.0131H100.964V49.0981H97.7555ZM112.37 39.9403C112.324 39.927 111.013 39.5755 109.936 39.5755C108.688 39.5755 108.01 39.9808 108.01 40.5557C108.01 41.2848 108.926 41.5395 109.438 41.6968L110.296 41.9622C112.317 42.5857 113.237 43.9282 113.237 45.3864C113.237 48.3935 110.513 49.4049 108.13 49.4049C106.474 49.4049 104.923 49.1083 104.77 49.0775V46.3215C105.045 46.3886 106.349 46.7667 107.71 46.7667C109.259 46.7667 109.971 46.3276 109.971 45.6497C109.971 45.0426 109.354 44.6921 108.582 44.4579C108.395 44.3954 108.111 44.3088 107.917 44.2489C106.184 43.7165 104.738 42.7266 104.738 40.7463C104.738 38.5067 106.466 37.0039 109.336 37.0039C110.852 37.0039 112.277 37.361 112.369 37.3846V39.9398L112.37 39.9403ZM141.978 43.2036C141.978 46.6294 139.254 49.4039 135.46 49.4039C131.665 49.4039 128.944 46.6294 128.944 43.2026C128.944 39.7841 131.666 37.0065 135.46 37.0065C139.254 37.0065 141.978 39.784 141.978 43.2036ZM135.46 40.0556C133.613 40.0556 132.241 41.4662 132.241 43.2036C132.241 44.9462 133.613 46.3543 135.46 46.3543C137.304 46.3543 138.68 44.9462 138.68 43.2036C138.68 41.4662 137.304 40.0556 135.46 40.0556ZM93.1715 40.65C93.0462 40.5864 92.0458 40.0115 90.5561 40.0115C88.5406 40.0115 87.1445 41.3704 87.1445 43.2042C87.1445 44.9831 88.4824 46.3993 90.5576 46.3993C92.0203 46.3993 93.0379 45.8352 93.1715 45.7645V48.9776C92.7852 49.0837 91.7224 49.4039 90.3319 49.4039C86.8346 49.4039 83.7637 47.0613 83.7637 43.2026C83.7637 39.6293 86.544 37.0065 90.333 37.0065C91.7977 37.0065 92.8788 37.3508 93.1715 37.4358V40.65ZM125.666 40.65C125.539 40.5864 124.536 40.0115 123.049 40.0115C121.034 40.0115 119.639 41.3704 119.639 43.2042C119.639 44.9831 120.974 46.3993 123.048 46.3993C124.511 46.3993 125.529 45.8352 125.666 45.7645V48.9776C125.276 49.0837 124.211 49.4039 122.83 49.4039C119.328 49.4039 116.254 47.0613 116.254 43.2026C116.254 39.6293 119.035 37.0065 122.83 37.0065C124.289 37.0065 125.372 37.3508 125.666 37.4358V40.65Z" fill="#666666"/>
<path fill-rule="evenodd" clip-rule="evenodd" d="M148 20.6714C147.998 19.8429 147.307 19.1722 146.458 19.1732C145.607 19.1722 144.917 19.8429 144.915 20.6719V23.8143C144.901 24.359 145.192 24.8683 145.675 25.1439C146.158 25.4206 146.756 25.4206 147.24 25.1439C147.723 24.8672 148.013 24.3579 147.999 23.8143V20.6714H148ZM139.522 16.5473C139.522 15.7218 138.834 15.0496 137.962 15.0496C137.113 15.0481 136.424 15.7177 136.422 16.5452V16.5463V23.8148C136.422 24.6423 137.11 25.313 137.959 25.313H137.962C138.833 25.313 139.522 24.6433 139.522 23.8138V16.5447V16.5468V16.5473ZM131.029 10.9035C131.028 10.0755 130.338 9.40523 129.489 9.40625H129.488C128.639 9.40471 127.949 10.0744 127.947 10.9024V10.9029V26.7999C127.921 27.3512 128.209 27.8723 128.696 28.1541C129.184 28.4365 129.792 28.4354 130.279 28.1516C130.765 27.8703 131.053 27.3512 131.028 26.801V10.9035H131.029ZM122.533 16.5473C122.532 15.7198 121.842 15.0496 120.993 15.0506C120.144 15.0491 119.454 15.7193 119.452 16.5468V16.5473V23.8143C119.454 24.6418 120.143 25.312 120.993 25.3105C121.842 25.312 122.532 24.6418 122.533 23.8143V16.5452V16.5473ZM114.04 20.6714C114.038 19.8454 113.35 19.1773 112.503 19.1783C111.655 19.1763 110.965 19.8434 110.959 20.6704V23.8148C110.96 24.6423 111.65 25.3125 112.499 25.311C113.349 25.313 114.039 24.6428 114.04 23.8153V23.8148V20.6719V20.6714ZM105.561 16.5473C105.559 15.7162 104.867 15.0445 104.015 15.0455C103.163 15.0445 102.47 15.7162 102.469 16.5473V23.8143C102.47 24.6444 103.162 25.3161 104.014 25.3151H104.015C104.866 25.3166 105.558 24.6449 105.56 23.8148V23.8143V16.5452V16.5473H105.561ZM97.0704 10.9035C97.0704 10.0785 96.3762 9.4083 95.525 9.4083C94.6728 9.4083 93.9786 10.077 93.9786 10.9035V26.7999C93.9802 27.6305 94.6723 28.3027 95.5245 28.3012C96.3767 28.3027 97.0688 27.6305 97.0704 26.7999V10.9035ZM88.5813 16.5473C88.5798 15.7162 87.8877 15.0445 87.0349 15.0455C86.1827 15.0445 85.4906 15.7162 85.4891 16.5473V23.8143C85.4906 24.6444 86.1822 25.3161 87.0339 25.3151H87.0344C87.8866 25.3166 88.5782 24.6449 88.5803 23.8148V23.8143V16.5452V16.5473H88.5813ZM80.0912 20.6719C80.0912 19.8475 79.3971 19.1778 78.5459 19.1778C77.6947 19.1778 77 19.8475 77 20.6709V23.8138C77.0016 24.6444 77.6936 25.3166 78.5459 25.3151C79.3976 25.3166 80.0902 24.6449 80.0917 23.8143V20.6714L80.0912 20.6719Z" fill="#666666"/>
</svg>
