<svg width="78" height="79" viewBox="0 0 78 79" fill="none" xmlns="http://www.w3.org/2000/svg">
<path d="M15.8438 61.7188V59.4364C15.8438 58.5785 15.5208 57.7527 14.9407 57.1281C13.7122 55.8049 11.4965 53.4188 10.0193 51.8289C9.06384 50.7995 8.53125 49.4392 8.53125 48.0258C8.53125 43.4389 8.53125 32.8122 8.53125 27.1538C8.53125 25.1097 10.1668 23.4531 12.1851 23.4531H12.1899C13.1588 23.4531 14.0887 23.8432 14.7737 24.5369C15.4586 25.2306 15.8438 26.1725 15.8438 27.1538C15.8438 29.957 15.8438 33.3281 15.8438 33.3281" stroke="#CC1517" stroke-width="4" stroke-miterlimit="2" stroke-linecap="round" stroke-linejoin="round"/>
<path d="M62.1562 61.7188V59.4364C62.1562 58.5785 62.4792 57.7527 63.0593 57.1281C64.2878 55.8049 66.5035 53.4188 67.9807 51.8289C68.9362 50.7995 69.4688 49.4392 69.4688 48.0258C69.4688 43.4389 69.4688 32.8122 69.4688 27.1538C69.4688 25.1097 67.8332 23.4531 65.8149 23.4531H65.8101C64.8412 23.4531 63.9112 23.8432 63.2263 24.5369C62.5414 25.2306 62.1562 26.1725 62.1562 27.1538C62.1562 29.957 62.1562 33.3281 62.1562 33.3281" stroke="#CC1517" stroke-width="4" stroke-miterlimit="2" stroke-linecap="round" stroke-linejoin="round"/>
<path d="M35.3438 69.5928V63.5037C35.3438 63.0309 35.1585 62.5766 34.827 62.2421C34.4967 61.9064 34.0482 61.7188 33.5814 61.7188C29.6693 61.7188 20.2995 61.7188 16.3873 61.7188C15.9205 61.7188 15.472 61.9064 15.1417 62.2421C14.8102 62.5766 14.625 63.0309 14.625 63.5037C14.625 65.8267 14.625 69.5928 14.625 69.5928" stroke="#CC1517" stroke-width="4" stroke-miterlimit="2" stroke-linecap="round" stroke-linejoin="round"/>
<path d="M42.6562 69.5928V63.5037C42.6562 63.0309 42.8415 62.5766 43.173 62.2421C43.5033 61.9064 43.9518 61.7188 44.4186 61.7188C48.3307 61.7188 57.7005 61.7188 61.6127 61.7188C62.0795 61.7188 62.528 61.9064 62.8583 62.2421C63.1898 62.5766 63.375 63.0309 63.375 63.5037C63.375 65.8267 63.375 69.5928 63.375 69.5928" stroke="#CC1517" stroke-width="4" stroke-miterlimit="2" stroke-linecap="round" stroke-linejoin="round"/>
<path d="M34.1268 61.7185V54.9405C34.1268 51.9299 32.908 49.0513 30.7545 46.9751C27.9672 44.2878 24.0806 40.5415 21.626 38.174C20.3268 36.9223 18.2806 36.9482 17.0131 38.232L17.0106 38.2345C15.6944 39.5676 15.6944 41.7302 17.0106 43.0633C19.336 45.4198 22.5279 48.6514 22.5279 48.6514" stroke="#CC1517" stroke-width="4" stroke-miterlimit="2" stroke-linecap="round" stroke-linejoin="round"/>
<path d="M43.875 61.7185V54.9405C43.875 51.9299 45.0937 49.0513 47.2473 46.9751C50.0346 44.2878 53.9212 40.5415 56.3757 38.174C57.6749 36.9223 59.7212 36.9482 60.9887 38.232L60.9911 38.2345C62.3074 39.5676 62.3074 41.7302 60.9911 43.0633C58.6657 45.4198 55.4738 48.6514 55.4738 48.6514" stroke="#CC1517" stroke-width="4" stroke-miterlimit="2" stroke-linecap="round" stroke-linejoin="round"/>
<path fill-rule="evenodd" clip-rule="evenodd" d="M48.75 13.5781C48.75 11.5328 47.1132 9.875 45.0938 9.875C41.6093 9.875 36.3907 9.875 32.9062 9.875C30.8868 9.875 29.25 11.5328 29.25 13.5781C29.25 16.0716 29.25 19.4143 29.25 22.2817C29.25 25.9268 31.3609 29.2325 34.643 30.7261C36.8964 31.7531 39 32.7109 39 32.7109C39 32.7109 41.1036 31.7531 43.357 30.7261C46.6391 29.2325 48.75 25.9268 48.75 22.2817V13.5781Z" stroke="#CC1517" stroke-width="4" stroke-miterlimit="2" stroke-linecap="round" stroke-linejoin="round"/>
<path d="M35.0391 20.6738L38.0859 23.1426L42.9609 18.8223" stroke="#CC1517" stroke-width="4" stroke-miterlimit="2" stroke-linecap="round" stroke-linejoin="round"/>
</svg>
