<svg width="224" height="64" viewBox="0 0 224 64" fill="none" xmlns="http://www.w3.org/2000/svg">
<path d="M154.912 40.4546C154.912 39.0498 156.053 37.9102 157.457 37.9102C158.861 37.9102 160 39.0499 160 40.4546C160 41.8593 158.861 42.9982 157.457 42.9982C156.053 42.9982 154.912 41.8593 154.912 40.4546Z" fill="#666666"/>
<path d="M73.7654 33.7172C73.7654 32.1056 73.454 30.91 72.8312 30.131C72.2075 29.3528 71.263 28.9641 69.993 28.9641H68.642V38.8193H69.6756C71.0862 38.8193 72.1198 38.4011 72.7781 37.5618C73.4356 36.724 73.7654 35.4422 73.7654 33.7172ZM78.5833 33.5493C78.5833 36.4854 77.794 38.7478 76.2156 40.3359C74.6371 41.9247 72.4181 42.7191 69.5578 42.7191H64V25.1254H69.9458C72.7038 25.1254 74.833 25.8476 76.3333 27.2914C77.8331 28.7359 78.5833 30.8209 78.5833 33.5493ZM93.9784 42.7189H98.401V25.0515H93.9784V42.7189ZM104.614 36.1289C104.614 37.2553 104.761 38.1145 105.055 38.705C105.349 39.2962 105.843 39.5914 106.536 39.5914C107.222 39.5914 107.707 39.2962 107.99 38.705C108.273 38.1145 108.413 37.2554 108.413 36.1289C108.413 35.0083 108.271 34.1632 107.984 33.5926C107.697 33.0205 107.207 32.7341 106.513 32.7341C105.834 32.7341 105.349 33.019 105.055 33.5859C104.761 34.1536 104.614 35.001 104.614 36.1289ZM112.915 36.1289C112.915 38.275 112.352 39.9492 111.224 41.1492C110.097 42.35 108.519 42.9508 106.491 42.9508C104.546 42.9508 102.998 42.3368 101.848 41.1087C100.698 39.8807 100.123 38.2212 100.123 36.1289C100.123 33.9894 100.686 32.327 101.814 31.1416C102.942 29.9563 104.523 29.3636 106.56 29.3636C107.818 29.3636 108.931 29.6382 109.895 30.1867C110.861 30.7353 111.606 31.5208 112.129 32.5442C112.653 33.566 112.915 34.7617 112.915 36.1289ZM114.671 42.719H119.094V35.9574V29.5956H114.671V42.719ZM114.671 28.0083H119.094V25.0508H114.671V28.0083ZM128.056 39.3717C128.653 39.3717 129.364 39.22 130.194 38.9189V42.2209C129.597 42.483 129.03 42.6708 128.492 42.782C127.953 42.8946 127.32 42.9506 126.597 42.9506C125.112 42.9506 124.041 42.5773 123.384 41.8322C122.729 41.0871 122.401 39.943 122.401 38.3992V32.9894H120.852V29.5968H122.401V26.2455L126.858 25.4702V29.5968H129.68V32.9894H126.858V38.0973C126.858 38.9469 127.258 39.3717 128.056 39.3717ZM138.293 39.3717C138.89 39.3717 139.601 39.22 140.431 38.9189V42.2209C139.835 42.483 139.267 42.6708 138.729 42.782C138.189 42.8946 137.559 42.9506 136.834 42.9506C135.349 42.9506 134.278 42.5773 133.622 41.8322C132.966 41.0871 132.638 39.943 132.638 38.3992V32.9894H131.088V29.5968H132.638V26.1947L137.094 25.4702V29.5968H139.918V32.9894H137.094V38.0973C137.094 38.9469 137.494 39.3717 138.293 39.3717ZM146.012 34.5302C146.072 33.8116 146.278 33.2852 146.628 32.9487C146.98 32.613 147.414 32.4452 147.934 32.4452C148.501 32.4452 148.952 32.6336 149.286 33.0135C149.622 33.3912 149.797 33.897 149.812 34.5302H146.012ZM152.249 30.9108C151.198 29.8801 149.706 29.364 147.777 29.364C145.748 29.364 144.188 29.9567 143.093 31.142C142 32.3274 141.453 34.0281 141.453 36.2441C141.453 38.3902 142.044 40.0452 143.224 41.207C144.404 42.3688 146.061 42.9504 148.196 42.9504C149.22 42.9504 150.102 42.8805 150.842 42.7414C151.576 42.6037 152.288 42.3548 152.977 41.9956L152.298 39.0381C151.796 39.2428 151.319 39.4004 150.869 39.5042C150.218 39.6551 149.504 39.7309 148.726 39.7309C147.874 39.7309 147.201 39.5226 146.707 39.1059C146.214 38.6884 145.951 38.1127 145.921 37.3794H153.827V35.3643C153.827 33.4258 153.301 31.9408 152.249 30.9108ZM84.4531 34.5302C84.5135 33.8116 84.719 33.2852 85.0693 32.9487C85.4205 32.613 85.8556 32.4452 86.3761 32.4452C86.9415 32.4452 87.3922 32.6336 87.7271 33.0135C88.0636 33.3912 88.238 33.897 88.2535 34.5302H84.4531ZM90.6913 30.9108C89.6393 29.8801 88.1484 29.364 86.2179 29.364C84.1889 29.364 82.6288 29.9567 81.5354 31.142C80.4421 32.3274 79.8944 34.0281 79.8944 36.2441C79.8944 38.3902 80.4848 40.0452 81.6658 41.207C82.8452 42.3688 84.5025 42.9504 86.6368 42.9504C87.6616 42.9504 88.5437 42.8805 89.2828 42.7414C90.0176 42.6037 90.7288 42.3548 91.4193 41.9956L90.739 39.0381C90.2376 39.2428 89.7605 39.4004 89.3107 39.5042C88.6584 39.6551 87.9451 39.7309 87.1674 39.7309C86.3156 39.7309 85.642 39.5226 85.1487 39.1059C84.6546 38.6884 84.3926 38.1127 84.3624 37.3794H92.2681V35.3643C92.2681 33.4258 91.7424 31.9408 90.6911 30.9108" fill="#666666"/>
</svg>
