<svg width="78" height="79" viewBox="0 0 78 79" fill="none" xmlns="http://www.w3.org/2000/svg">
<path d="M15.8438 61.7188V59.4364C15.8438 58.5785 15.5208 57.7527 14.9407 57.1281C13.7122 55.8049 11.4965 53.4188 10.0193 51.8289C9.06384 50.7995 8.53125 49.4392 8.53125 48.0258C8.53125 43.4389 8.53125 32.8122 8.53125 27.1538C8.53125 25.1097 10.1668 23.4531 12.1851 23.4531H12.1899C13.1588 23.4531 14.0887 23.8432 14.7737 24.5369C15.4586 25.2306 15.8438 26.1725 15.8438 27.1538C15.8438 29.957 15.8438 33.3281 15.8438 33.3281" stroke="#CC1517" stroke-width="4" stroke-miterlimit="2" stroke-linecap="round" stroke-linejoin="round"/>
<path d="M62.1562 61.7188V59.4364C62.1562 58.5785 62.4792 57.7527 63.0593 57.1281C64.2878 55.8049 66.5035 53.4188 67.9807 51.8289C68.9362 50.7995 69.4688 49.4392 69.4688 48.0258C69.4688 43.4389 69.4688 32.8122 69.4688 27.1538C69.4688 25.1097 67.8332 23.4531 65.8149 23.4531H65.8101C64.8412 23.4531 63.9112 23.8432 63.2263 24.5369C62.5414 25.2306 62.1562 26.1725 62.1562 27.1538C62.1562 29.957 62.1562 33.3281 62.1562 33.3281" stroke="#CC1517" stroke-width="4" stroke-miterlimit="2" stroke-linecap="round" stroke-linejoin="round"/>
<path d="M35.3438 69.5928V63.5037C35.3438 63.0309 35.1585 62.5766 34.827 62.2421C34.4967 61.9064 34.0482 61.7188 33.5814 61.7188C29.6693 61.7188 20.2995 61.7188 16.3873 61.7188C15.9205 61.7188 15.472 61.9064 15.1417 62.2421C14.8102 62.5766 14.625 63.0309 14.625 63.5037C14.625 65.8267 14.625 69.5928 14.625 69.5928" stroke="#CC1517" stroke-width="4" stroke-miterlimit="2" stroke-linecap="round" stroke-linejoin="round"/>
<path d="M42.6562 69.5928V63.5037C42.6562 63.0309 42.8415 62.5766 43.173 62.2421C43.5033 61.9064 43.9518 61.7188 44.4186 61.7188C48.3307 61.7188 57.7005 61.7188 61.6127 61.7188C62.0795 61.7188 62.528 61.9064 62.8583 62.2421C63.1898 62.5766 63.375 63.0309 63.375 63.5037C63.375 65.8267 63.375 69.5928 63.375 69.5928" stroke="#CC1517" stroke-width="4" stroke-miterlimit="2" stroke-linecap="round" stroke-linejoin="round"/>
<path d="M34.1268 61.7185V54.9405C34.1268 51.9299 32.908 49.0513 30.7545 46.9751C27.9672 44.2878 24.0806 40.5415 21.626 38.174C20.3268 36.9223 18.2806 36.9482 17.0131 38.232L17.0106 38.2345C15.6944 39.5676 15.6944 41.7302 17.0106 43.0633C19.336 45.4198 22.5279 48.6514 22.5279 48.6514" stroke="#CC1517" stroke-width="4" stroke-miterlimit="2" stroke-linecap="round" stroke-linejoin="round"/>
<path d="M43.875 61.7185V54.9405C43.875 51.9299 45.0937 49.0513 47.2473 46.9751C50.0346 44.2878 53.9212 40.5415 56.3757 38.174C57.6749 36.9223 59.7212 36.9482 60.9887 38.232L60.9911 38.2345C62.3074 39.5676 62.3074 41.7302 60.9911 43.0633C58.6657 45.4198 55.4738 48.6514 55.4738 48.6514" stroke="#CC1517" stroke-width="4" stroke-miterlimit="2" stroke-linecap="round" stroke-linejoin="round"/>
<path d="M47.5195 18.4366C47.3074 18.2227 47.0146 18.0906 46.6918 18.0906C46.2085 18.0906 45.7937 18.3862 45.6144 18.8092L45.6116 18.8168C45.3658 19.389 45.0514 19.8813 44.6704 20.3119L44.6751 20.3071C44.6788 20.1912 44.6816 20.0553 44.6816 19.9193C44.6816 18.1876 44.3016 16.5452 43.6212 15.0738L43.6503 15.1442C42.4547 12.6178 40.453 10.6447 37.9896 9.53166L37.9174 9.5022C37.7804 9.44041 37.6199 9.4043 37.4519 9.4043C36.8035 9.4043 36.2779 9.93656 36.2779 10.5933C36.2779 10.6656 36.2845 10.7359 36.2967 10.8043L36.2958 10.7967C36.2967 10.8386 36.2976 10.8889 36.2976 10.9384C36.2976 12.8459 35.4587 14.5539 34.1355 15.7069L34.127 15.7135C33.6381 16.2144 33.1182 16.6877 32.5974 17.1611C31.3662 18.1933 30.2973 19.3557 29.3879 20.6426L29.3504 20.6978C28.3209 22.3887 27.7109 24.4379 27.7109 26.6315C27.7109 27.7103 27.8583 28.7539 28.1342 29.7434L28.1154 29.6626C28.8352 32.648 30.6454 35.1164 33.0844 36.659L33.1314 36.6866C34.9069 37.8357 37.07 38.5219 39.3907 38.5333H39.3935C39.3964 38.5333 39.3992 38.5333 39.402 38.5333C39.8994 38.5333 40.3883 38.5001 40.8688 38.4364L40.8125 38.4421C45.2419 37.7872 48.8342 34.7286 50.2944 30.6378L50.3207 30.5541C50.6914 29.443 50.9054 28.1628 50.9054 26.8321C50.9054 23.5615 49.6131 20.597 47.5185 18.4328L47.5204 18.4347L47.5195 18.4366ZM48.0985 29.7919C46.9132 33.1232 44.0463 35.5641 40.5628 36.0802L40.5112 36.0868C40.179 36.1286 39.7943 36.1533 39.4048 36.1533C37.5383 36.1533 35.7984 35.6011 34.3363 34.6497L34.3738 34.6725C32.4003 33.4236 30.9626 31.4637 30.4033 29.1541L30.3911 29.0923C30.1781 28.3557 30.0561 27.5088 30.0561 26.6334C30.0561 24.9207 30.5253 23.3192 31.3399 21.9524L31.3174 21.9933C32.1507 20.8327 33.0882 19.8262 34.1374 18.9518L34.1655 18.9289C34.7211 18.4242 35.2757 17.9186 35.7965 17.3825C37.1207 16.1184 38.091 14.4874 38.5499 12.6501L38.564 12.5827C40.8631 14.2165 42.3468 16.8892 42.3468 19.9127C42.3468 20.847 42.2051 21.7471 41.9423 22.594L41.9592 22.5303C41.9264 22.6339 41.9086 22.7536 41.9086 22.8772C41.9086 23.534 42.4341 24.0653 43.0816 24.0653C43.2402 24.0653 43.3904 24.0339 43.5283 23.9759L43.5208 23.9788C44.8862 23.4066 46.0189 22.5008 46.856 21.3602L46.871 21.3393C47.9305 22.8686 48.5649 24.7686 48.5649 26.8188C48.5649 27.8814 48.3941 28.9041 48.0797 29.8603L48.0994 29.7928L48.0985 29.7919Z" fill="#CC1517"/>
</svg>
