<svg width="49" height="50" viewBox="0 0 49 50" fill="none" xmlns="http://www.w3.org/2000/svg">
<path d="M10.4005 38.9937V37.5867C10.4005 37.0578 10.2014 36.5488 9.84375 36.1637C9.08642 35.348 7.72053 33.8771 6.80993 32.897C6.2209 32.2623 5.89258 31.4238 5.89258 30.5525C5.89258 27.7248 5.89258 21.1738 5.89258 17.6856C5.89258 16.4255 6.90084 15.4043 8.14502 15.4043H8.14803C8.74532 15.4043 9.31858 15.6448 9.74082 16.0724C10.1631 16.5001 10.4005 17.0807 10.4005 17.6856C10.4005 19.4137 10.4005 21.4919 10.4005 21.4919" stroke="#CC1517" stroke-width="2.46586" stroke-miterlimit="2" stroke-linecap="round" stroke-linejoin="round"/>
<path d="M38.9492 38.9937V37.5867C38.9492 37.0578 39.1483 36.5488 39.5059 36.1637C40.2633 35.348 41.6292 33.8771 42.5398 32.897C43.1288 32.2623 43.4571 31.4238 43.4571 30.5525C43.4571 27.7248 43.4571 21.1738 43.4571 17.6856C43.4571 16.4255 42.4488 15.4043 41.2047 15.4043H41.2017C40.6044 15.4043 40.0311 15.6448 39.6089 16.0724C39.1866 16.5001 38.9492 17.0807 38.9492 17.6856C38.9492 19.4137 38.9492 21.4919 38.9492 21.4919" stroke="#CC1517" stroke-width="2.46586" stroke-miterlimit="2" stroke-linecap="round" stroke-linejoin="round"/>
<path d="M22.4208 43.8463V40.0925C22.4208 39.8011 22.3066 39.521 22.1022 39.3148C21.8986 39.1079 21.6222 38.9922 21.3344 38.9922C18.9227 38.9922 13.1466 38.9922 10.7348 38.9922C10.4471 38.9922 10.1706 39.1079 9.967 39.3148C9.76264 39.521 9.64844 39.8011 9.64844 40.0925C9.64844 41.5246 9.64844 43.8463 9.64844 43.8463" stroke="#CC1517" stroke-width="2.46586" stroke-miterlimit="2" stroke-linecap="round" stroke-linejoin="round"/>
<path d="M26.9297 43.8463V40.0925C26.9297 39.8011 27.0439 39.521 27.2482 39.3148C27.4519 39.1079 27.7283 38.9922 28.0161 38.9922C30.4278 38.9922 36.2039 38.9922 38.6157 38.9922C38.9034 38.9922 39.1799 39.1079 39.3835 39.3148C39.5879 39.521 39.7021 39.8011 39.7021 40.0925C39.7021 41.5246 39.7021 43.8463 39.7021 43.8463" stroke="#CC1517" stroke-width="2.46586" stroke-miterlimit="2" stroke-linecap="round" stroke-linejoin="round"/>
<path d="M21.6698 38.9929V34.8145C21.6698 32.9586 20.9185 31.184 19.5909 29.9041C17.8727 28.2475 15.4767 25.9381 13.9636 24.4786C13.1627 23.707 11.9012 23.7229 11.1198 24.5143L11.1183 24.5158C10.3069 25.3377 10.3069 26.6708 11.1183 27.4927C12.5518 28.9453 14.5195 30.9375 14.5195 30.9375" stroke="#CC1517" stroke-width="2.46586" stroke-miterlimit="2" stroke-linecap="round" stroke-linejoin="round"/>
<path d="M27.6797 38.9929V34.8145C27.6797 32.9586 28.431 31.184 29.7586 29.9041C31.4768 28.2475 33.8728 25.9381 35.3859 24.4786C36.1868 23.707 37.4483 23.7229 38.2297 24.5143L38.2312 24.5158C39.0426 25.3377 39.0426 26.6708 38.2312 27.4927C36.7977 28.9453 34.83 30.9375 34.83 30.9375" stroke="#CC1517" stroke-width="2.46586" stroke-miterlimit="2" stroke-linecap="round" stroke-linejoin="round"/>
<path fill-rule="evenodd" clip-rule="evenodd" d="M17.3496 13.4739C17.3496 13.171 17.4683 12.8811 17.6794 12.6673C17.8913 12.4527 18.1776 12.3324 18.4766 12.3324C19.3151 12.3324 20.4555 12.3324 21.294 12.3324C21.9161 12.3324 22.421 11.8218 22.421 11.191C22.421 10.3 22.421 9.06646 22.421 8.17463C22.421 7.54456 22.9259 7.0332 23.548 7.0332C24.2362 7.0332 25.1137 7.0332 25.8019 7.0332C26.424 7.0332 26.9289 7.54456 26.9289 8.17463C26.9289 9.06646 26.9289 10.3 26.9289 11.191C26.9289 11.8218 27.4338 12.3324 28.0559 12.3324C28.8943 12.3324 30.0348 12.3324 30.8733 12.3324C31.1723 12.3324 31.4586 12.4527 31.6704 12.6673C31.8816 12.8811 32.0003 13.171 32.0003 13.4739C32.0003 14.1785 32.0003 15.0795 32.0003 15.7841C32.0003 16.087 31.8816 16.3769 31.6704 16.5915C31.4586 16.8053 31.1723 16.9255 30.8733 16.9255C30.0348 16.9255 28.8943 16.9255 28.0559 16.9255C27.7568 16.9255 27.4706 17.0458 27.2587 17.2596C27.0476 17.4742 26.9289 17.7641 26.9289 18.0669C26.9289 18.9656 26.9289 20.2121 26.9289 21.1107C26.9289 21.7408 26.424 22.2522 25.8019 22.2522C25.1137 22.2522 24.2362 22.2522 23.548 22.2522C22.9259 22.2522 22.421 21.7408 22.421 21.1107C22.421 20.2121 22.421 18.9656 22.421 18.0669C22.421 17.7641 22.3023 17.4742 22.0912 17.2596C21.8793 17.0458 21.593 16.9255 21.294 16.9255C20.4555 16.9255 19.3151 16.9255 18.4766 16.9255C18.1776 16.9255 17.8913 16.8053 17.6794 16.5915C17.4683 16.3769 17.3496 16.087 17.3496 15.7841C17.3496 15.0795 17.3496 14.1785 17.3496 13.4739Z" stroke="#CC1517" stroke-width="2.46586" stroke-miterlimit="2" stroke-linecap="round" stroke-linejoin="round"/>
</svg>
