<svg width="78" height="78" viewBox="0 0 78 78" fill="none" xmlns="http://www.w3.org/2000/svg">
<path d="M15.8438 60.9375V58.684C15.8438 57.837 15.5208 57.0217 14.9407 56.405C13.7122 55.0985 11.4965 52.7426 10.0193 51.1729C9.06384 50.1564 8.53125 48.8134 8.53125 47.4179C8.53125 42.889 8.53125 32.3968 8.53125 26.8101C8.53125 24.7918 10.1668 23.1562 12.1851 23.1562H12.1899C13.1588 23.1562 14.0887 23.5414 14.7737 24.2263C15.4586 24.9113 15.8438 25.8412 15.8438 26.8101C15.8438 29.5778 15.8438 32.9062 15.8438 32.9062" stroke="#CC1517" stroke-width="4" stroke-miterlimit="2" stroke-linecap="round" stroke-linejoin="round"/>
<path d="M62.1562 60.9375V58.684C62.1562 57.837 62.4792 57.0217 63.0593 56.405C64.2878 55.0985 66.5035 52.7426 67.9807 51.1729C68.9362 50.1564 69.4688 48.8134 69.4688 47.4179C69.4688 42.889 69.4688 32.3968 69.4688 26.8101C69.4688 24.7918 67.8332 23.1562 65.8149 23.1562H65.8101C64.8412 23.1562 63.9112 23.5414 63.2263 24.2263C62.5414 24.9113 62.1562 25.8412 62.1562 26.8101C62.1562 29.5778 62.1562 32.9062 62.1562 32.9062" stroke="#CC1517" stroke-width="4" stroke-miterlimit="2" stroke-linecap="round" stroke-linejoin="round"/>
<path d="M35.3438 68.7119V62.6998C35.3438 62.233 35.1585 61.7845 34.827 61.4542C34.4967 61.1227 34.0482 60.9375 33.5814 60.9375C29.6693 60.9375 20.2995 60.9375 16.3873 60.9375C15.9205 60.9375 15.472 61.1227 15.1417 61.4542C14.8102 61.7845 14.625 62.233 14.625 62.6998C14.625 64.9935 14.625 68.7119 14.625 68.7119" stroke="#CC1517" stroke-width="4" stroke-miterlimit="2" stroke-linecap="round" stroke-linejoin="round"/>
<path d="M42.6562 68.7119V62.6998C42.6562 62.233 42.8415 61.7845 43.173 61.4542C43.5033 61.1227 43.9518 60.9375 44.4186 60.9375C48.3307 60.9375 57.7005 60.9375 61.6127 60.9375C62.0795 60.9375 62.528 61.1227 62.8583 61.4542C63.1898 61.7845 63.375 62.233 63.375 62.6998C63.375 64.9935 63.375 68.7119 63.375 68.7119" stroke="#CC1517" stroke-width="4" stroke-miterlimit="2" stroke-linecap="round" stroke-linejoin="round"/>
<path d="M34.1268 60.938V54.2459C34.1268 51.2734 32.908 48.4312 30.7545 46.3813C27.9672 43.7281 24.0806 40.0292 21.626 37.6916C20.3268 36.4558 18.2806 36.4814 17.0131 37.7489L17.0106 37.7513C15.6944 39.0676 15.6944 41.2028 17.0106 42.5191C19.336 44.8457 22.5279 48.0364 22.5279 48.0364" stroke="#CC1517" stroke-width="4" stroke-miterlimit="2" stroke-linecap="round" stroke-linejoin="round"/>
<path d="M43.875 60.938V54.2459C43.875 51.2734 45.0937 48.4312 47.2473 46.3813C50.0346 43.7281 53.9212 40.0292 56.3757 37.6916C57.6749 36.4558 59.7212 36.4814 60.9887 37.7489L60.9911 37.7513C62.3074 39.0676 62.3074 41.2028 60.9911 42.5191C58.6657 44.8457 55.4738 48.0364 55.4738 48.0364" stroke="#CC1517" stroke-width="4" stroke-miterlimit="2" stroke-linecap="round" stroke-linejoin="round"/>
<path d="M29.25 15.2344V28.0312C29.25 28.6772 29.5072 29.2975 29.9642 29.7546C30.4212 30.2116 31.0416 30.4688 31.6875 30.4688C35.4339 30.4688 42.5661 30.4688 46.3125 30.4688C46.9584 30.4688 47.5788 30.2116 48.0358 29.7546C48.4928 29.2975 48.75 28.6772 48.75 28.0312C48.75 23.7278 48.75 15.2344 48.75 15.2344" stroke="#CC1517" stroke-width="4" stroke-miterlimit="2" stroke-linecap="round" stroke-linejoin="round"/>
<path d="M25.5938 15.8438L39 9.75L52.4062 15.8438" stroke="#CC1517" stroke-width="4" stroke-miterlimit="2" stroke-linecap="round" stroke-linejoin="round"/>
<path d="M41.4375 30.4688V25.5938C41.4375 24.247 40.3467 23.1562 39 23.1562C37.6533 23.1562 36.5625 24.247 36.5625 25.5938C36.5625 27.7205 36.5625 30.4688 36.5625 30.4688" stroke="#CC1517" stroke-width="4" stroke-miterlimit="2" stroke-linecap="round" stroke-linejoin="round"/>
<path d="M37.7812 14.625C37.7812 14.625 35.5607 15.7353 34.1165 16.4568C33.3755 16.8285 32.9062 17.5866 32.9062 18.4165C32.9062 18.9772 32.9062 19.5 32.9062 19.5" stroke="#CC1517" stroke-width="4" stroke-miterlimit="2" stroke-linecap="round" stroke-linejoin="round"/>
</svg>
