<svg width="364" height="358" viewBox="0 0 364 358" fill="none" xmlns="http://www.w3.org/2000/svg">
<path d="M184.28 72.7109H120.24V165.271H184.28V72.7109Z" fill="#F4D4D4"/>
<path d="M126.08 142.98H178.44C179.26 142.98 179.93 142.31 179.93 141.49C179.93 140.67 179.26 140 178.44 140H126.08C125.26 140 124.59 140.67 124.59 141.49C124.59 142.31 125.26 142.98 126.08 142.98Z" fill="white"/>
<path d="M178.44 146.859H126.08C125.26 146.859 124.59 147.529 124.59 148.349C124.59 149.169 125.26 149.839 126.08 149.839H178.44C179.26 149.839 179.93 149.169 179.93 148.349C179.93 147.529 179.26 146.859 178.44 146.859Z" fill="white"/>
<path d="M178.44 153.721H126.08C125.26 153.721 124.59 154.391 124.59 155.211C124.59 156.031 125.26 156.701 126.08 156.701H178.44C179.26 156.701 179.93 156.031 179.93 155.211C179.93 154.391 179.26 153.721 178.44 153.721Z" fill="white"/>
<path d="M171.68 130.951L169.09 130.931L168.31 128.471L167.5 130.921L164.91 130.901L166.99 132.431L166.18 134.891L168.28 133.381L170.36 134.921L169.58 132.451L171.68 130.951Z" fill="white"/>
<path d="M161.08 130.87L160.3 128.41L159.48 130.86L156.9 130.84L158.98 132.37L158.16 134.82L160.26 133.32L162.34 134.86L161.56 132.39L163.66 130.89L161.08 130.87Z" fill="white"/>
<path d="M153.059 130.81L152.279 128.35L151.459 130.8L148.879 130.78L150.959 132.31L150.139 134.76L152.239 133.26L154.319 134.8L153.539 132.33L155.639 130.83L153.059 130.81Z" fill="white"/>
<path d="M145.039 130.751L144.259 128.291L143.449 130.741L140.859 130.721L142.939 132.251L142.119 134.701L144.229 133.201L146.299 134.741L145.519 132.271L147.629 130.771L145.039 130.751Z" fill="white"/>
<path d="M137.02 130.69L136.25 128.23L135.43 130.68L132.84 130.66L134.92 132.19L134.11 134.64L136.21 133.14L138.29 134.67L137.51 132.21L139.61 130.71L137.02 130.69Z" fill="white"/>
<path d="M153.318 124.242C165.189 123.659 174.339 113.562 173.756 101.691C173.172 89.8205 163.076 80.6704 151.205 81.2539C139.334 81.8375 130.184 91.9338 130.768 103.805C131.351 115.676 141.447 124.826 153.318 124.242Z" fill="white"/>
<path d="M150.71 86.8394C150.71 86.8394 150.21 85.8194 147.74 86.0994C145.26 86.3794 144.56 88.5994 144.45 90.0894C144.34 91.5694 142.91 108.829 140.02 111.379L149.25 109.989L150.71 86.8394Z" fill="#333333"/>
<path d="M151.43 87.02C151.43 87.02 148.79 86.13 147.4 87.45C146.01 88.77 146.8 90.52 146.8 90.52L151.43 87.02Z" fill="#333333"/>
<path d="M159.771 92.2292C159.771 92.2292 159.721 86.3992 150.341 87.0692C148.751 87.1792 147.301 88.0992 146.571 89.5192C145.511 91.5792 145.051 95.2092 148.461 101.029L159.771 92.2292Z" fill="#333333"/>
<path d="M157.889 109.789C157.819 109.619 157.479 109.329 157.299 109.289H157.289C157.179 109.269 157.069 109.249 156.959 109.229C156.779 109.199 156.609 109.169 156.439 109.139C155.619 106.249 156.109 103.359 156.109 103.359L148.479 101.039C149.079 106.049 148.409 108.279 148.069 109.039C147.929 109.059 147.789 109.079 147.649 109.099C143.909 109.639 160.929 117.009 157.889 109.789Z" fill="#E4BFC1"/>
<path d="M157.59 105.3C157.59 105.3 148.28 105.73 148.1 99.9199C147.92 94.1199 146.6 90.2699 152.54 89.7499C158.48 89.2299 159.7 91.4099 160.23 93.3299C160.76 95.2599 160 105.04 157.59 105.3Z" fill="#E5C6C8"/>
<path d="M164.35 120.56C163.13 121.39 161.83 122.1 160.45 122.66C160.4 122.68 160.35 122.7 160.3 122.72C160.29 122.73 160.27 122.73 160.25 122.74C160.05 122.82 159.85 122.9 159.65 122.97C158.28 123.47 156.85 123.83 155.37 124.05C154.36 124.2 153.32 124.27 152.27 124.27C147.62 124.27 143.31 122.79 139.79 120.29C139.68 120.21 139.57 120.13 139.46 120.05C139.32 119.95 139.19 119.85 139.05 119.74C138.52 119.32 138 118.88 137.51 118.42C138.41 114.75 139.16 111.92 139.57 111.51C139.78 111.3 140.07 111.11 140.41 110.93C142.73 109.72 147.63 109.07 147.63 109.07L147.64 109.08C147.7 109.15 147.79 109.24 147.9 109.33C148.13 109.53 148.46 109.77 148.88 110.03C150.22 110.87 152.45 111.85 154.95 111.83C156.31 111.82 156.94 111.46 157.19 111.01C157.6 110.28 157.01 109.3 156.95 109.21V109.2C157.06 109.22 157.17 109.24 157.29 109.27C157.31 109.28 157.33 109.28 157.35 109.29C157.51 109.34 157.67 109.39 157.83 109.44C164.16 111.44 164.27 112.24 164.27 112.24C165.38 113.45 166.26 115.77 167.04 118.39C166.55 118.85 166.04 119.29 165.51 119.71C165.12 120.02 164.74 120.3 164.35 120.56Z" fill="#E59B9C"/>
<path d="M161.821 93.5704C161.451 90.5604 158.431 88.6504 155.881 88.6504C153.331 88.6504 150.881 88.9104 150.881 88.9104C145.131 91.4804 148.141 100.46 148.141 100.46C148.141 100.46 151.491 98.2004 151.901 95.4204C152.161 93.6704 154.961 92.7304 156.591 92.0504C156.951 92.2704 160.691 94.6804 160.261 97.7404C160.281 97.7504 162.191 96.5904 161.821 93.5704Z" fill="#333333"/>
<path d="M106.729 315.039L94.5894 314.889L91.6895 314.849C91.6895 314.849 85.7294 289.549 83.4494 261.479C83.3694 260.539 83.2795 259.679 83.1895 258.879V209.109C91.9195 210.519 99.9395 212.639 99.9395 212.639L100.409 218.939L100.439 219.379L106.729 315.039Z" fill="#333333"/>
<path d="M86.6699 212.47V231.04C86.6699 231.04 84.9499 231.49 84.7299 232.72C84.5099 233.95 83.8899 283.26 72.8199 315.04H58.1699C58.1699 315.04 58.6599 218.11 61.3599 211.83L86.6699 212.47Z" fill="#505050"/>
<path d="M87.7508 151.431C88.8508 150.051 84.3208 149.531 84.3108 149.441C83.7008 145.161 83.2208 140.381 83.2208 140.381L72.2208 139.211C71.9808 142.591 72.2108 145.581 71.2108 149.491C71.1908 149.571 65.8208 150.181 71.5508 156.051C74.4908 159.071 86.8108 157.331 87.7508 151.431Z" fill="#E4BFC1"/>
<path d="M112.67 185.539C112.57 186.319 112.48 187.189 112.43 188.009C112.33 189.479 111.22 190.619 109.77 190.869C101.87 192.269 100.28 189.919 100.28 189.919C98.4798 194.799 100.95 207.339 101.09 211.419C101.11 212.169 100.51 212.789 99.7598 212.779L61.9498 212.199C60.7898 212.179 59.8698 211.209 59.9098 210.049C59.9398 209.279 59.9298 208.309 59.8898 207.199C59.6998 202.019 58.8298 193.999 57.9898 190.869C56.4898 185.259 53.9998 176.629 52.5298 168.779C51.7298 164.509 51.7098 162.839 51.8598 159.069C52.0898 153.579 53.6198 153.109 55.1298 152.359C57.5998 151.129 61.9798 150.059 71.2698 149.149C71.2498 149.279 71.1998 149.499 71.1998 149.629C71.1998 151.719 75.6498 153.569 79.2698 153.339C82.3198 153.139 84.2698 150.879 84.2698 149.619C84.2698 149.439 84.2498 149.249 84.2398 149.039C94.1698 149.829 100.14 152.399 100.14 152.399C100.14 152.399 109.04 164.779 112.39 179.789C112.83 181.679 112.91 183.629 112.67 185.539Z" fill="#E73133"/>
<path d="M89.9493 187.661C89.9493 187.661 72.3093 194.321 68.9793 195.321C65.6493 196.321 65.9793 209.301 65.9793 209.301C65.9793 209.301 65.0393 211.521 62.2093 211.081C59.3793 210.641 61.8793 202.421 60.4293 196.871C58.9893 191.321 59.0393 188.881 59.0393 188.881L88.7293 186.051L89.9493 187.661Z" fill="#CC1517"/>
<path d="M104.37 176.38C98.4895 173.49 94.7895 178.17 94.7895 178.17L93.3895 178.69L90.6895 179.33L72.5595 180.49C72.5595 180.49 70.6295 190.27 68.5195 191.31C68.5195 191.31 87.0795 189.84 95.6695 183.54L96.7495 182.82C98.2995 182.78 100.08 182.15 101.59 181.05C103.87 179.39 103.41 180.03 105.05 178.89C106.69 177.74 104.37 176.38 104.37 176.38Z" fill="#E4BFC1"/>
<path d="M102.881 180.69C103.291 180.76 103.651 181 103.871 181.35C105.231 183.5 109.791 191.23 105.451 191.3C100.401 191.39 92.9708 191.17 83.2408 184.96C79.3808 182.49 74.7508 180.39 74.7508 180.39L69.6308 180.8C69.6308 180.8 67.1908 175.25 68.5108 174.94C73.7108 173.71 72.4908 173.62 74.4908 173.73C75.9108 173.81 76.8708 173.86 80.9608 176.02C84.6808 177.98 90.9108 178.67 102.881 180.69Z" fill="#E5C6C8"/>
<path d="M62.5694 157.711C62.5694 157.711 68.2994 167.111 69.6394 180.801C69.6394 180.801 72.6994 180.051 73.2294 180.801C74.9194 183.161 71.9894 190.541 68.5194 191.321C68.5194 191.321 59.1894 192.381 56.9294 191.601C56.9294 191.601 54.7094 186.361 52.1094 166.181L62.5694 157.711Z" fill="#E73133"/>
<path d="M84.7101 141.86C84.7101 141.86 72.3201 144.74 70.6501 137C68.9801 129.26 66.2501 124.42 74.0901 122.25C81.9301 120.09 84.1101 122.71 85.3001 125.15C86.4901 127.59 87.8901 140.92 84.7101 141.86Z" fill="#E5C6C8"/>
<path d="M70.6507 137C70.6507 137 69.7207 126.79 80.8607 124.76C88.9507 123.28 87.1707 116.43 87.1707 116.43C87.1707 116.43 73.8507 118.13 71.2207 118.88C58.8307 122.43 69.2207 135.56 70.6507 137Z" fill="#333333"/>
<path d="M295.329 50.4707H200.529V187.491H295.329V50.4707Z" fill="#F4D4D4"/>
<path d="M209.171 154.51H286.681C287.891 154.51 288.891 153.52 288.891 152.3C288.891 151.09 287.901 150.09 286.681 150.09H209.171C207.961 150.09 206.961 151.08 206.961 152.3C206.961 153.51 207.961 154.51 209.171 154.51Z" fill="white"/>
<path d="M286.681 160.25H209.171C207.961 160.25 206.961 161.24 206.961 162.46C206.961 163.67 207.951 164.67 209.171 164.67H286.681C287.891 164.67 288.891 163.68 288.891 162.46C288.891 161.24 287.901 160.25 286.681 160.25Z" fill="white"/>
<path d="M286.681 170.41H209.171C207.961 170.41 206.961 171.4 206.961 172.62C206.961 173.83 207.951 174.83 209.171 174.83H286.681C287.891 174.83 288.891 173.84 288.891 172.62C288.891 171.4 287.901 170.41 286.681 170.41Z" fill="white"/>
<path d="M278.792 102.869C283.17 85.8257 272.903 68.4604 255.86 64.0826C238.816 59.7047 221.451 69.9721 217.073 87.0154C212.695 104.059 222.963 121.424 240.006 125.802C257.049 130.18 274.415 119.912 278.792 102.869Z" fill="white"/>
<path d="M270.961 98.4706C264.961 95.3606 260.851 94.0805 261.091 90.1305C261.331 86.1905 259.521 69.2206 247.991 73.6606C247.991 73.6606 246.141 72.8405 245.311 72.9605C245.311 72.9605 245.991 73.0906 246.331 73.4406C244.991 73.3606 243.081 73.4606 241.491 74.3706C240.621 74.8706 239.761 76.1806 239.011 78.0106C238.961 78.1306 238.911 78.2506 238.871 78.3706C238.561 79.1706 238.271 80.0705 238.001 81.0205C237.541 82.7005 237.151 84.5705 236.891 86.5205C236.801 87.1605 236.731 87.8006 236.671 88.4406C236.671 88.4706 236.661 88.5005 236.661 88.5305C236.231 93.3005 236.551 98.2505 238.121 101.631C238.611 102.681 239.221 103.591 239.981 104.281C239.681 103.661 239.361 102.801 239.081 101.591C238.811 100.431 238.571 98.9506 238.411 97.0706C238.451 97.3706 238.741 99.4206 239.421 101.581C239.811 102.801 240.321 104.061 240.991 105.051C244.301 107.221 248.911 111.581 253.061 116.091C253.991 117.101 254.891 118.111 255.761 119.121C257.241 120.841 258.601 122.521 259.731 124.031C259.751 124.051 259.761 124.071 259.781 124.091C259.861 124.201 259.951 124.311 260.031 124.421C262.731 123.311 265.241 121.841 267.511 120.071C272.711 116.011 276.611 110.381 278.511 103.881C276.731 102.081 274.281 100.191 270.961 98.4706Z" fill="#333333"/>
<path d="M241.45 105.299C242.52 104.799 241.86 95.7295 241.86 95.7295L250.89 93.9395C251.52 96.9095 251.19 102.099 252.31 102.319C252.35 102.329 250.62 105.759 247.97 106.479C245.16 107.259 241.41 105.319 241.45 105.299Z" fill="#E5C6C8"/>
<path d="M250.47 76.7109C250.47 76.7109 245.81 72.3509 241.02 77.1409C241.02 77.1409 244.02 76.6509 250.47 76.7109Z" fill="#333333"/>
<path d="M251.26 93.1199C251.26 93.1199 253.76 89.1699 254.36 85.7999C254.79 83.3899 253.56 74.4498 244.58 75.7398C244.58 75.7398 241.97 75.9999 239.52 77.6499C237.57 78.9699 234.76 81.8098 237.9 89.6098L238.72 92.2398L251.26 93.1199Z" fill="#333333"/>
<path d="M267.52 120.08C265.25 121.85 262.74 123.32 260.04 124.43C259.97 124.46 259.89 124.49 259.81 124.52C259.8 124.43 259.79 124.35 259.77 124.26C259.76 124.18 259.75 124.11 259.74 124.03C259.56 122.8 259.4 121.65 259.25 120.67C258.96 118.66 258.76 117.33 258.76 117.33L260.83 117.11L267.13 116.43C267.13 116.43 267.16 116.59 267.22 117.07C267.3 117.6 267.39 118.53 267.52 120.08Z" fill="#E5C6C8"/>
<path d="M234.37 102.08L234.36 102.18L233.47 114.68C233.47 114.68 231.36 116.98 229.12 119.33C229.08 119.37 229.04 119.41 229 119.45C228.79 119.67 228.57 119.89 228.36 120.11C225.58 117.94 223.16 115.32 221.23 112.36C222.46 111.07 223.8 109.72 225.15 108.44C228.61 105.15 232.17 102.31 234.32 102.09C234.33 102.08 234.35 102.08 234.37 102.08Z" fill="#E5C6C8"/>
<path d="M267.69 116.86C266.14 109.43 263.65 106.21 263.65 106.21C260.79 104.04 255.86 102.29 251.87 101.85C251.81 101.84 251.75 101.84 251.69 101.83C250.78 103.14 249.29 104.35 246.88 104.28C244.41 104.22 242.93 103.1 242.05 101.94C241.94 101.8 241.84 101.66 241.75 101.51C240.88 101.53 240.11 101.56 239.42 101.59C239.3 101.59 239.19 101.6 239.08 101.6C238.74 101.61 238.42 101.63 238.12 101.64C235.14 101.8 234.36 101.97 234.36 101.97C234.36 101.97 232.11 101.5 224.82 107.69C224.82 107.69 228.94 117.15 228.99 119.44L229.1 119.36C229.05 119.76 229 120.16 228.96 120.56C234.26 124.49 240.82 126.81 247.92 126.81C249.48 126.81 251.01 126.7 252.51 126.48C254.7 126.16 256.82 125.63 258.84 124.89C259.14 124.78 259.44 124.67 259.74 124.55C259.75 124.45 259.76 124.36 259.77 124.26C259.78 124.21 259.78 124.15 259.79 124.1C259.93 122.76 260.11 121.45 260.3 120.2L267.69 116.86Z" fill="#E59B9C"/>
<path d="M240.269 98.1198C240.269 98.1198 251.549 98.3097 251.559 91.2797C251.569 84.2497 253.029 79.5397 245.829 79.1297C238.629 78.7097 237.219 81.3897 236.649 83.7397C236.069 86.0797 237.329 97.8998 240.269 98.1198Z" fill="#E5C6C8"/>
<path d="M240.689 78.9605C240.689 78.9605 243.779 87.2105 248.519 88.4205C253.259 89.6405 255.319 88.3705 255.319 88.3705C255.319 88.3705 251.679 85.4805 250.929 80.4405C250.919 80.4405 243.019 75.0305 240.689 78.9605Z" fill="#333333"/>
<path d="M241.449 79.6294C241.449 79.6294 239.139 81.4694 238.579 83.2594C238.019 85.0494 237.759 88.7294 236.689 88.6094C236.689 88.6094 234.359 83.0094 236.979 79.8394C239.759 76.4694 241.449 79.6294 241.449 79.6294Z" fill="#333333"/>
<path d="M276.67 136.699L272.85 136.669L271.69 133.029L270.48 136.649L266.66 136.619L269.74 138.899L268.53 142.529L271.64 140.299L274.72 142.569L273.56 138.929L276.67 136.699Z" fill="white"/>
<path d="M260.979 136.579L259.819 132.939L258.609 136.559L254.789 136.539L257.869 138.809L256.659 142.439L259.769 140.209L262.849 142.479L261.689 138.839L264.799 136.609L260.979 136.579Z" fill="white"/>
<path d="M249.11 136.49L247.95 132.85L246.75 136.47L242.92 136.45L246 138.72L244.79 142.35L247.9 140.12L250.98 142.39L249.82 138.75L252.93 136.52L249.11 136.49Z" fill="white"/>
<path d="M237.239 136.4L236.089 132.76L234.879 136.39L231.049 136.36L234.129 138.63L232.919 142.26L236.029 140.03L239.109 142.3L237.949 138.66L241.059 136.43L237.239 136.4Z" fill="white"/>
<path d="M225.37 136.31L224.22 132.67L223.01 136.3L219.18 136.27L222.26 138.54L221.05 142.17L224.16 139.94L227.24 142.21L226.08 138.57L229.2 136.34L225.37 136.31Z" fill="white"/>
<path d="M273.771 303.121V247.511C273.771 246.441 272.891 245.561 271.821 245.561H266.901C265.831 245.561 264.951 246.441 264.951 247.511V303.121C256.581 304.751 249.831 310.931 247.391 318.981H291.341C288.891 310.941 282.141 304.761 273.771 303.121Z" fill="#505050"/>
<path d="M167.729 178.42C167.729 178.42 168.149 171.01 158.579 171.45C149.009 171.89 147.949 180.6 148.699 184.2C149.449 187.8 153.039 190.74 155.659 190.57C158.279 190.41 160.809 189.53 160.809 189.53L167.729 178.42Z" fill="#333333"/>
<path d="M206.569 235.06C202.969 231.7 199.279 234.27 199.279 234.27L186.759 230.23L184.199 234.59L198.239 237.29C199.339 238.34 201.549 238.54 203.549 237.83C205.549 237.13 205.079 237.5 206.509 237.03C207.939 236.55 206.569 235.06 206.569 235.06Z" fill="#E4BFC1"/>
<path d="M200.13 269.98C200.13 270 200.12 270.03 200.12 270.05C199.54 274.3 198.17 277.71 196.94 279.78C193.8 285.08 187.84 290.98 173.54 292.91C172.85 293 172.13 293.09 171.4 293.16C170.07 293.3 168.66 293.4 167.19 293.47C167 293.48 166.82 293.49 166.63 293.49C162.47 293.39 157.82 292.62 152.63 291.39C141.98 288.86 135.04 283.66 130.65 277.34C129.31 275.4 128.2 273.36 127.3 271.26C124.86 265.57 123.93 259.43 123.84 253.74C123.92 248.34 124.76 243.46 125.69 240C126.41 237.3 127.54 234.73 129.08 232.46C129.48 231.87 129.91 231.29 130.37 230.74C131.83 228.99 133.58 227.48 135.62 226.32C140.71 223.42 157.44 220.53 171.62 228.01C197.72 241.77 201.64 258.78 200.13 269.98Z" fill="#333333"/>
<path d="M188.95 314.88H168.19V283.17H162.39V314.88H140.8C139.68 314.88 138.76 315.8 138.76 316.92C138.76 318.04 139.68 318.96 140.8 318.96H188.95C190.07 318.96 190.99 318.04 190.99 316.92C190.99 315.8 190.07 314.88 188.95 314.88Z" fill="#505050"/>
<path d="M200.12 270.05C199.53 274.3 198.17 277.71 196.94 279.78C193.8 285.08 187.84 290.98 173.54 292.91C172.89 293 172.22 293.08 171.54 293.15C171.54 293.15 171.53 293.15 171.52 293.15C171.48 293.16 171.44 293.16 171.4 293.16C170.07 293.3 168.66 293.4 167.19 293.47C167 293.48 166.81 293.48 166.63 293.49C162.47 293.39 157.82 292.62 152.63 291.39C152.41 291.34 152.2 291.29 151.98 291.23C151.84 291.2 151.71 291.16 151.58 291.13C151.46 291.1 151.35 291.07 151.24 291.04C150.89 290.95 150.54 290.85 150.2 290.75C150.11 290.72 150.02 290.7 149.94 290.67C149.79 290.62 149.63 290.58 149.48 290.53C149.28 290.47 149.08 290.4 148.88 290.34C148.68 290.28 148.48 290.21 148.29 290.14C148.07 290.06 147.85 289.99 147.63 289.91C147.5 289.86 147.36 289.81 147.23 289.77C146.87 289.64 146.51 289.5 146.16 289.36C146.07 289.32 145.98 289.29 145.88 289.25L145.48 289.08C145.46 289.07 145.45 289.07 145.43 289.06C145.25 288.99 145.08 288.91 144.91 288.84C144.72 288.76 144.53 288.67 144.35 288.59C144.19 288.52 144.04 288.45 143.88 288.37C143.86 288.36 143.84 288.35 143.82 288.35C143.65 288.27 143.49 288.19 143.33 288.11C143.18 288.04 143.04 287.97 142.9 287.9C142.86 287.88 142.83 287.86 142.79 287.85C142.65 287.78 142.5 287.7 142.36 287.63C142.16 287.52 141.96 287.41 141.76 287.3C141.62 287.22 141.48 287.14 141.34 287.07C141.18 286.98 141.02 286.89 140.87 286.79C140.71 286.7 140.56 286.6 140.4 286.51C140.25 286.42 140.1 286.33 139.96 286.23C139.84 286.16 139.73 286.08 139.61 286.01C139.53 285.96 139.44 285.9 139.36 285.85C139.25 285.78 139.15 285.71 139.04 285.64C138.89 285.54 138.75 285.44 138.6 285.34C138.31 285.14 138.03 284.93 137.75 284.72C137.61 284.62 137.48 284.51 137.34 284.41C137.22 284.32 137.11 284.23 136.99 284.14C136.7 283.91 136.42 283.68 136.15 283.45C136.03 283.35 135.91 283.25 135.8 283.15C135.7 283.06 135.61 282.98 135.51 282.89C135.41 282.81 135.32 282.72 135.23 282.63C135.13 282.54 135.04 282.46 134.95 282.37C134.85 282.28 134.76 282.19 134.67 282.1C134.55 281.99 134.43 281.87 134.32 281.75C134.22 281.65 134.13 281.56 134.03 281.46C133.71 281.14 133.41 280.81 133.11 280.47C133.03 280.39 132.96 280.3 132.89 280.22C132.88 280.21 132.87 280.19 132.85 280.18C132.71 280.02 132.58 279.87 132.45 279.71C132.27 279.49 132.09 279.27 131.91 279.05C131.84 278.96 131.77 278.87 131.7 278.78C131.51 278.54 131.33 278.31 131.16 278.07C131.07 277.95 130.99 277.83 130.9 277.71C130.81 277.58 130.71 277.45 130.62 277.32C129.63 275.72 128.8 274.06 128.09 272.35C133.7 270.65 145.9 267.43 159.55 266.85C159.79 266.84 160.02 266.83 160.26 266.82C164.12 266.68 168.08 266.76 172.04 267.15C181.69 268.11 191.67 269.15 200.12 270.05Z" fill="#333333"/>
<path d="M173.39 204.36L161.15 203.28C161.15 203.28 162.21 198.42 161.99 191L170.77 193.67C170.78 193.67 169.61 200.46 173.39 204.36Z" fill="#E4BFC1"/>
<path d="M173.639 197.28C173.639 197.28 163.099 199.2 161.999 192.62C160.899 186.04 158.799 181.85 165.489 180.34C172.179 178.83 173.909 181.13 174.809 183.24C175.699 185.35 176.349 196.61 173.639 197.28Z" fill="#E4BFC1"/>
<path d="M230.59 311.87L236.58 317.97L240.17 315.42L235.01 303.92L230.59 311.87Z" fill="#DEADB2"/>
<path d="M159.681 252.49C159.051 253.8 150.771 268.7 164.521 272.67C178.261 276.64 212.701 273.28 212.701 273.28C212.701 273.28 213.441 284.97 217.331 290.44C223.571 299.23 239.461 315.5 239.461 315.5L242.361 315.41C242.361 315.41 223.091 264.4 218.611 261.15C215.331 258.77 198.851 254.55 189.741 253.14C187.521 252.8 174.091 252.39 170.491 252.25C164.861 252.02 160.031 251.77 159.681 252.49Z" fill="#E5C6C8"/>
<path d="M237.471 314.41L238.851 318.96H252.511C252.511 318.97 249.011 312.83 237.471 314.41Z" fill="#333333"/>
<path d="M154.23 252.49C153.6 253.8 145.32 268.7 159.07 272.67C172.81 276.64 204.93 274.91 204.93 274.91C204.93 274.91 207.99 284.96 211.88 290.44C218.12 299.23 234.01 315.5 234.01 315.5L240.17 315.41C240.17 315.41 217.65 264.4 213.17 261.15C209.89 258.77 193.41 254.55 184.3 253.14C182.08 252.8 168.65 252.39 165.05 252.25C159.42 252.02 154.58 251.77 154.23 252.49Z" fill="#E4BFC1"/>
<path d="M217.68 260.59C217.62 260.58 217.22 260.51 212.39 260.67C207.28 260.84 202.02 276.17 202.02 276.17C197.58 276.87 166.53 275.52 154.22 271.87C151.28 271 149.41 270 149.22 268.87C148.92 267.05 149.36 264.54 150.11 261.95C151.79 256.18 155.01 250 155.01 250C156.46 250.72 158.69 251.15 161.16 251.39C167.65 252.03 175.79 251.39 175.79 251.39C190.28 249.68 217.1 259.97 217.68 260.59Z" fill="#CC1517"/>
<path d="M192.25 232.001L191.52 234.751L191.21 235.931C191.21 235.931 180.68 234.861 180.44 233.331C180.32 232.561 178.39 226.471 176.51 220.611C174.64 214.801 172.82 209.221 172.82 209.221L171.85 202.141C171.85 202.141 178.22 203.341 178.86 204.151C180.41 206.111 185.19 228.871 185.19 228.871C185.67 229.021 192.25 232.001 192.25 232.001Z" fill="#E73133"/>
<path d="M191.53 234.75L191.22 235.93C191.22 235.93 180.69 234.86 180.45 233.33C180.33 232.56 178.4 226.47 176.52 220.61L176.08 211.26C176.08 211.26 181.55 221.6 182.88 228.1C182.88 228.1 182.68 231.18 184.21 231.67C185.29 232 189.31 233.77 191.53 234.75Z" fill="#CC1517"/>
<path d="M177.261 243.74C177.721 246.92 179.821 251.2 179.821 251.2L179.741 251.21L152.811 254.69C152.811 254.69 153.331 253.37 154.011 251.31C155.391 247.1 157.431 239.79 156.991 234.37C156.791 231.94 156.701 226.65 156.281 220.37C155.971 215.82 155.491 210.74 154.661 205.85C154.661 205.85 158.431 203.21 161.321 202.54C166.141 201.41 171.941 202.22 178.881 204.14C178.881 204.14 184.981 226.48 177.461 241.19C177.131 241.81 177.111 242.72 177.261 243.74Z" fill="#E73133"/>
<path d="M162.62 178.59C162.62 178.59 160.08 177.66 158.46 179.24C156.84 180.82 158.57 182.78 158.57 182.78L162.62 178.59Z" fill="#333333"/>
<path d="M162 192.62C162 192.62 166.19 191.71 166.03 187.46C165.87 183.21 170.22 181.67 174.3 182.23C174.3 182.23 174.29 177 163.66 178.06C153.03 179.13 162 192.62 162 192.62Z" fill="#333333"/>
<path d="M161.301 202.539C161.301 202.539 165.091 207.939 170.481 207.779C170.481 207.779 172.841 203.679 171.841 202.129C170.851 200.589 161.301 202.539 161.301 202.539Z" fill="#E4BFC1"/>
<path d="M212.981 216.75H247.431L240.301 241.86H206.141L212.981 216.75Z" fill="#505050"/>
<path d="M213.51 216.75H247.96L240.83 241.86H206.67L213.51 216.75Z" fill="#B4B4B4"/>
<path d="M240.83 241.859H196.41V242.729H240.83V241.859Z" fill="#505050"/>
<path d="M226.789 229.911C226.789 228.831 227.659 227.741 228.739 227.471C229.819 227.201 230.689 227.861 230.689 228.931C230.689 230.011 229.819 231.101 228.739 231.371C227.659 231.641 226.789 230.991 226.789 229.911Z" fill="#DADFEF"/>
<path d="M179.811 251.2L179.731 251.21C176.751 251.12 171.651 251.06 168.971 251.54C169.221 251.44 177.061 248.34 177.251 243.74C177.721 246.92 179.811 251.2 179.811 251.2Z" fill="#E73133"/>
<path d="M161.159 264.17C158.399 262.64 159.779 256.39 161.169 251.43C163.779 246.57 173.729 231.74 174.909 230.69C176.229 229.51 174.909 229.02 174.909 229.02C166.449 228.49 161.689 220.42 161.689 220.42L159.339 222.16C159.339 222.16 159.359 222.22 159.399 222.33C158.489 221.65 157.379 221 156.279 220.42C156.709 226.71 156.789 231.99 156.989 234.42C157.419 239.7 155.499 246.76 154.119 251.02C154.109 251.04 151.799 256.23 150.119 261.99L151.239 264.34L154.219 271.92C166.529 275.57 197.579 276.92 202.019 276.22C198.849 266.51 165.289 266.46 161.159 264.17Z" fill="#CC1517"/>
<path d="M199.819 239.541C196.219 236.181 192.529 238.751 192.529 238.751L179.999 234.711L177.439 239.071L191.479 241.771C192.579 242.821 194.789 243.011 196.789 242.311C198.789 241.611 198.319 241.981 199.749 241.511C201.189 241.031 199.819 239.541 199.819 239.541Z" fill="#E4BFC1"/>
<path d="M161.301 202.539C161.301 202.539 153.251 204.359 151.951 208.389C151.341 210.259 159.901 234.109 162.851 235.849C165.791 237.589 179.501 240.109 179.501 240.109L180.311 234.709C180.311 234.709 171.031 230.659 170.271 229.439C169.491 228.219 161.301 202.539 161.301 202.539Z" fill="#E73133"/>
<path d="M180.291 234.71L178.661 233.98L176.061 239.71L179.471 240.43L180.291 234.71Z" fill="#E73133"/>
<path d="M173.541 292.911C173.301 292.941 173.061 292.971 172.821 293.001C172.461 293.041 172.101 293.091 171.741 293.121C171.671 293.131 171.611 293.131 171.541 293.141C171.541 293.141 171.531 293.141 171.521 293.141C170.581 293.271 169.321 293.421 168.461 293.461C168.071 293.481 167.681 293.491 167.291 293.491C167.231 293.491 167.181 293.491 167.121 293.491C166.951 293.491 166.791 293.481 166.621 293.481C162.461 293.381 157.811 292.611 152.621 291.381C152.401 291.331 152.191 291.281 151.971 291.221C151.831 291.191 151.701 291.151 151.571 291.121C151.451 291.091 151.341 291.061 151.231 291.031C150.881 290.941 150.531 290.841 150.191 290.741C150.101 290.711 150.011 290.691 149.931 290.661C149.781 290.611 149.621 290.571 149.471 290.521C149.271 290.461 149.071 290.391 148.871 290.331C148.671 290.271 148.471 290.201 148.281 290.131C148.061 290.051 147.841 289.981 147.621 289.901C147.491 289.851 147.351 289.801 147.221 289.761C146.861 289.631 146.501 289.491 146.151 289.351C146.061 289.311 145.971 289.281 145.871 289.241L145.471 289.071C145.451 289.061 145.441 289.061 145.421 289.051C145.241 288.981 145.071 288.901 144.901 288.831C144.711 288.751 144.521 288.661 144.341 288.581C144.181 288.511 144.031 288.441 143.871 288.361C143.851 288.351 143.831 288.341 143.811 288.341C143.641 288.261 143.481 288.181 143.321 288.101C143.171 288.031 143.031 287.961 142.891 287.891C142.851 287.871 142.821 287.851 142.781 287.841C142.641 287.771 142.491 287.691 142.351 287.621C142.151 287.511 141.951 287.401 141.751 287.291C141.611 287.211 141.471 287.131 141.331 287.061C141.171 286.971 141.011 286.881 140.861 286.781C140.701 286.691 140.551 286.591 140.391 286.501C140.241 286.411 140.091 286.321 139.951 286.221C139.831 286.151 139.721 286.071 139.601 286.001C139.521 285.951 139.431 285.891 139.351 285.841C139.241 285.771 139.141 285.701 139.031 285.631C138.881 285.531 138.741 285.431 138.591 285.331C138.301 285.131 138.021 284.921 137.741 284.711C137.601 284.611 137.471 284.501 137.331 284.401C137.211 284.311 137.101 284.221 136.981 284.131C136.691 283.901 136.411 283.671 136.141 283.441C136.021 283.341 135.901 283.241 135.791 283.141C135.691 283.051 135.601 282.971 135.501 282.881C135.401 282.801 135.311 282.711 135.221 282.621C135.121 282.531 135.031 282.451 134.941 282.361C134.841 282.271 134.751 282.181 134.661 282.091C134.541 281.981 134.421 281.861 134.311 281.741C134.211 281.641 134.121 281.551 134.021 281.451C133.701 281.131 133.401 280.801 133.101 280.461C133.021 280.381 132.951 280.291 132.881 280.211C132.871 280.201 132.861 280.181 132.841 280.171C132.701 280.011 132.571 279.861 132.441 279.701C132.261 279.481 132.081 279.261 131.901 279.041C131.831 278.951 131.761 278.861 131.691 278.771C131.501 278.531 131.321 278.301 131.151 278.061C131.061 277.941 130.981 277.821 130.891 277.701C130.801 277.571 130.701 277.441 130.611 277.311C129.271 275.371 128.161 273.331 127.261 271.231C124.821 265.541 123.891 259.401 123.801 253.711C123.881 248.311 124.721 243.431 125.651 239.971C126.371 237.271 127.501 234.701 129.041 232.431C129.341 231.981 129.661 231.541 130.001 231.121C130.111 230.981 130.221 230.841 130.331 230.711C136.301 236.961 149.811 251.691 160.251 266.821C166.611 275.981 171.801 285.271 173.541 292.911Z" fill="#505050"/>
<path d="M172.821 293.001C172.461 293.041 172.101 293.091 171.741 293.121C171.671 293.121 171.611 293.131 171.541 293.141C171.541 293.141 171.531 293.141 171.521 293.141C170.581 293.271 169.321 293.421 168.461 293.461C168.071 293.481 167.681 293.491 167.291 293.491C167.231 293.491 167.181 293.491 167.121 293.491C166.951 293.491 166.791 293.481 166.621 293.481C162.461 293.381 157.811 292.611 152.621 291.381C152.401 291.331 152.191 291.281 151.971 291.221C151.831 291.191 151.701 291.151 151.571 291.121C151.451 291.091 151.341 291.061 151.231 291.031C150.881 290.941 150.531 290.841 150.191 290.741C150.101 290.711 150.011 290.691 149.931 290.661C149.781 290.611 149.621 290.571 149.471 290.521C149.271 290.461 149.071 290.391 148.871 290.331C148.671 290.271 148.471 290.201 148.281 290.131C148.061 290.051 147.841 289.981 147.621 289.901C147.491 289.851 147.351 289.801 147.221 289.761C146.861 289.631 146.501 289.491 146.151 289.351C146.061 289.311 145.971 289.281 145.871 289.241L145.471 289.071C145.451 289.061 145.441 289.061 145.421 289.051C145.241 288.981 145.071 288.901 144.901 288.831C144.711 288.751 144.521 288.661 144.341 288.581C144.181 288.511 144.031 288.441 143.871 288.361C143.851 288.351 143.831 288.341 143.811 288.341C143.641 288.261 143.481 288.181 143.321 288.101C143.171 288.031 143.031 287.961 142.891 287.891C142.851 287.871 142.821 287.851 142.781 287.841C142.641 287.771 142.491 287.691 142.351 287.621C142.151 287.511 141.951 287.401 141.751 287.291C141.611 287.211 141.471 287.131 141.331 287.061C141.171 286.971 141.011 286.881 140.861 286.781C140.701 286.691 140.551 286.591 140.391 286.501C140.241 286.411 140.091 286.321 139.951 286.221C139.831 286.151 139.721 286.071 139.601 286.001C139.521 285.951 139.431 285.891 139.351 285.841C139.241 285.771 139.141 285.701 139.031 285.631C138.881 285.531 138.741 285.431 138.591 285.331C138.301 285.131 138.021 284.921 137.741 284.711C137.601 284.611 137.471 284.501 137.331 284.401C137.211 284.311 137.101 284.221 136.981 284.131C136.691 283.901 136.411 283.671 136.141 283.441C136.021 283.341 135.901 283.241 135.791 283.141C135.691 283.051 135.601 282.971 135.501 282.881C135.401 282.801 135.311 282.711 135.221 282.621C135.121 282.531 135.031 282.451 134.941 282.361C134.841 282.271 134.751 282.181 134.661 282.091C134.541 281.981 134.421 281.861 134.311 281.741C134.211 281.641 134.121 281.551 134.021 281.451C133.701 281.131 133.401 280.801 133.101 280.461C133.021 280.381 132.951 280.291 132.881 280.211C132.871 280.201 132.861 280.181 132.841 280.171C132.701 280.011 132.571 279.861 132.441 279.701C132.261 279.481 132.081 279.261 131.901 279.041C131.831 278.951 131.761 278.861 131.691 278.771C131.501 278.531 131.321 278.301 131.151 278.061C131.061 277.941 130.981 277.821 130.891 277.701C130.801 277.571 130.701 277.441 130.611 277.311C129.271 275.371 128.161 273.331 127.261 271.231C124.821 265.541 123.891 259.401 123.801 253.711C123.881 248.311 124.721 243.431 125.651 239.971C126.371 237.271 127.501 234.701 129.041 232.431C129.341 231.981 129.661 231.541 130.001 231.121C136.161 237.591 149.321 252.031 159.541 266.841C165.891 276.001 171.081 285.371 172.821 293.001Z" fill="#505050"/>
<path d="M232.65 314.41L234.03 318.96H247.69C247.69 318.97 244.19 312.83 232.65 314.41Z" fill="#333333"/>
<path d="M316.86 248.401H192.49C190.98 248.401 189.75 247.171 189.75 245.661V245.461C189.75 243.951 190.98 242.721 192.49 242.721H316.87C318.38 242.721 319.61 243.951 319.61 245.461V245.661C319.6 247.171 318.37 248.401 316.86 248.401Z" fill="#505050"/>
<path d="M91.6895 314.849L93.4395 320.489H110.849C110.849 320.489 106.399 312.879 91.6895 314.849Z" fill="#333333"/>
<path d="M58.1699 315.041L59.7199 320.681H75.1399C75.1399 320.681 71.1999 313.071 58.1699 315.041Z" fill="#333333"/>
</svg>
