<svg width="50" height="50" viewBox="0 0 50 50" fill="none" xmlns="http://www.w3.org/2000/svg">
<path d="M10.7434 38.9937V37.5867C10.7434 37.0578 10.5418 36.5488 10.1796 36.1637C9.41252 35.348 8.02912 33.8771 7.10685 32.897C6.51027 32.2623 6.17773 31.4238 6.17773 30.5525C6.17773 27.7248 6.17773 21.1738 6.17773 17.6856C6.17773 16.4255 7.19893 15.4043 8.45906 15.4043H8.4621C9.06705 15.4043 9.64766 15.6448 10.0753 16.0724C10.503 16.5001 10.7434 17.0807 10.7434 17.6856C10.7434 19.4137 10.7434 21.4919 10.7434 21.4919" stroke="#CC1517" stroke-width="2.46586" stroke-miterlimit="2" stroke-linecap="round" stroke-linejoin="round"/>
<path d="M39.6602 38.9937V37.5867C39.6602 37.0578 39.8618 36.5488 40.224 36.1637C40.9911 35.348 42.3745 33.8771 43.2967 32.897C43.8933 32.2623 44.2258 31.4238 44.2258 30.5525C44.2258 27.7248 44.2258 21.1738 44.2258 17.6856C44.2258 16.4255 43.2047 15.4043 41.9445 15.4043H41.9415C41.3365 15.4043 40.7559 15.6448 40.3283 16.0724C39.9006 16.5001 39.6602 17.0807 39.6602 17.6856C39.6602 19.4137 39.6602 21.4919 39.6602 21.4919" stroke="#CC1517" stroke-width="2.46586" stroke-miterlimit="2" stroke-linecap="round" stroke-linejoin="round"/>
<path d="M22.9185 43.8463V40.0925C22.9185 39.8011 22.8029 39.521 22.5959 39.3148C22.3897 39.1079 22.1097 38.9922 21.8182 38.9922C19.3756 38.9922 13.5254 38.9922 11.0828 38.9922C10.7913 38.9922 10.5113 39.1079 10.3051 39.3148C10.0981 39.521 9.98242 39.8011 9.98242 40.0925C9.98242 41.5246 9.98242 43.8463 9.98242 43.8463" stroke="#CC1517" stroke-width="2.46586" stroke-miterlimit="2" stroke-linecap="round" stroke-linejoin="round"/>
<path d="M27.4844 43.8463V40.0925C27.4844 39.8011 27.6 39.521 27.807 39.3148C28.0132 39.1079 28.2933 38.9922 28.5847 38.9922C31.0273 38.9922 36.8775 38.9922 39.3202 38.9922C39.6116 38.9922 39.8916 39.1079 40.0978 39.3148C40.3048 39.521 40.4205 39.8011 40.4205 40.0925C40.4205 41.5246 40.4205 43.8463 40.4205 43.8463" stroke="#CC1517" stroke-width="2.46586" stroke-miterlimit="2" stroke-linecap="round" stroke-linejoin="round"/>
<path d="M22.1586 38.9929V34.8145C22.1586 32.9586 21.3976 31.184 20.053 29.9041C18.3128 28.2475 15.8861 25.9381 14.3535 24.4786C13.5424 23.707 12.2647 23.7229 11.4734 24.5143L11.4718 24.5158C10.65 25.3377 10.65 26.6708 11.4718 27.4927C12.9237 28.9453 14.9166 30.9375 14.9166 30.9375" stroke="#CC1517" stroke-width="2.46586" stroke-miterlimit="2" stroke-linecap="round" stroke-linejoin="round"/>
<path d="M28.2461 38.9929V34.8145C28.2461 32.9586 29.007 31.184 30.3516 29.9041C32.0919 28.2475 34.5186 25.9381 36.0511 24.4786C36.8623 23.707 38.1399 23.7229 38.9313 24.5143L38.9328 24.5158C39.7547 25.3377 39.7547 26.6708 38.9328 27.4927C37.481 28.9453 35.488 30.9375 35.488 30.9375" stroke="#CC1517" stroke-width="2.46586" stroke-miterlimit="2" stroke-linecap="round" stroke-linejoin="round"/>
<path fill-rule="evenodd" clip-rule="evenodd" d="M32.2244 14.923L24.4431 21.8327L18.2346 13.4811C16.8325 11.5955 17.2254 8.92569 19.1118 7.5236C20.9982 6.1215 23.668 6.51447 25.0701 8.40083L25.7352 9.29556L26.5688 8.5553C28.3262 6.99456 31.02 7.15439 32.5808 8.91176C34.1415 10.6691 33.9817 13.363 32.2244 14.923Z" stroke="#CC1517" stroke-width="2.46586" stroke-miterlimit="2" stroke-linecap="round" stroke-linejoin="round"/>
<path d="M30.1484 9.55078C31.1765 10.4936 31.2457 12.0923 30.3037 13.1204" stroke="#CC1517" stroke-width="2.46586" stroke-miterlimit="2" stroke-linecap="round" stroke-linejoin="round"/>
</svg>
