<svg width="364" height="358" viewBox="0 0 364 358" fill="none" xmlns="http://www.w3.org/2000/svg">
<path d="M137 307.88C133.63 307.88 130.49 306.53 128.17 304.09C125.85 301.64 124.67 298.44 124.84 295.08L135.8 85.7396C136.14 79.2896 141.46 74.2196 147.92 74.2096L273.15 73.8496C279.72 73.8496 285.06 78.9596 285.34 85.4896L294.5 294.77C294.65 298.11 293.46 301.28 291.15 303.7C288.84 306.12 285.73 307.46 282.38 307.47L137 307.88Z" fill="#939393"/>
<path d="M282.359 304.46L137.029 304.88C131.769 304.9 127.569 300.49 127.849 295.23L138.789 85.8996C139.039 81.0396 143.049 77.2196 147.919 77.2096L273.149 76.8496C278.069 76.8396 282.119 80.7096 282.339 85.6196L291.499 294.9C291.719 300.1 287.569 304.45 282.359 304.46Z" fill="#E7E7E7"/>
<path d="M282.359 304.46L137.029 304.88C131.769 304.9 127.569 300.49 127.849 295.23L138.789 85.8996C139.039 81.0396 143.049 77.2196 147.919 77.2096L273.149 76.8496C278.069 76.8396 282.119 80.7096 282.339 85.6196L291.499 294.9C291.719 300.1 287.569 304.45 282.359 304.46Z" fill="#E7E7E7"/>
<path d="M44.75 63.2005C44.75 62.1105 45.63 61.2305 46.72 61.2305C47.81 61.2305 48.69 62.1105 48.69 63.2005C48.69 64.2905 47.81 65.1705 46.72 65.1705C45.63 65.1805 44.75 64.2905 44.75 63.2005Z" fill="white"/>
<path d="M217.74 41.701C212.39 37.981 207.73 38.0509 204.46 39.0209C201.47 39.9009 199.53 42.7909 199.81 45.8909L201.23 61.311L218.05 62.8009C218.05 62.8009 228.25 49.0009 217.74 41.701ZM210.35 54.1409C208.03 54.1409 206.15 52.261 206.15 49.9509C206.15 47.6309 208.03 45.7609 210.35 45.7609C212.67 45.7609 214.54 47.6409 214.54 49.9509C214.54 52.261 212.67 54.1409 210.35 54.1409Z" fill="#333333"/>
<path d="M178.279 71.2698V63.5198C178.279 60.8398 180.489 58.6998 183.169 58.7898L236.639 60.6198C239.019 60.6998 240.939 62.5698 241.079 64.9398L241.529 72.3898L178.279 71.2698Z" fill="#333333"/>
<path d="M156.489 73.2297C156.619 70.5397 158.829 68.4297 161.519 68.4297H255.019C258.379 68.4297 261.249 70.8497 261.829 74.1597L261.909 74.6197C262.539 78.2497 259.739 81.5697 256.069 81.5697H160.139C157.939 81.5697 156.179 79.7297 156.279 77.5297L156.489 73.2297Z" fill="#333333"/>
<path d="M195.619 135.891C205.099 126.421 205.099 111.061 195.619 101.591C186.139 92.1208 170.789 92.1208 161.309 101.591C151.829 111.061 151.829 126.421 161.309 135.891C170.789 145.361 186.139 145.361 195.619 135.891Z" fill="#F4D4D4"/>
<path d="M192.351 112.04H184.291V105.1C184.291 103.47 182.971 102.15 181.341 102.15H175.431C173.801 102.15 172.481 103.47 172.481 105.1V112.04H164.421C162.791 112.04 161.471 113.36 161.471 114.99V121.85C161.471 123.48 162.791 124.8 164.421 124.8H172.481V131.74C172.481 133.37 173.801 134.69 175.431 134.69H181.341C182.971 134.69 184.291 133.37 184.291 131.74V124.8H192.351C193.981 124.8 195.301 123.48 195.301 121.85V114.99C195.301 113.36 193.981 112.04 192.351 112.04Z" fill="white"/>
<path d="M97.3493 309.229C97.3493 309.229 96.7293 312.679 96.4293 316.099C96.3093 317.439 97.3593 318.598 98.7193 318.648C103.349 318.838 113.259 319.208 116.809 319.048C117.349 319.028 117.689 318.489 117.499 317.999C117.339 317.589 117.019 317.258 116.609 317.078L100.249 309.689L97.3493 309.229Z" fill="#333333"/>
<path d="M96.4102 307.09L96.9402 311.48C96.9402 311.48 99.9802 312.87 102.05 311.31L100.79 306.42L96.4102 307.09Z" fill="#E4BFC1"/>
<path d="M97.6295 228.908C97.4195 229.998 96.5195 283.398 102.03 307.328C102.12 307.718 101.93 308.118 101.57 308.278C100.72 308.638 99.0695 309.158 97.0795 309.218C96.4695 309.238 95.9095 308.828 95.7395 308.218C94.1595 302.668 86.6195 274.848 85.6295 248.268C84.5295 218.568 85.6295 247.258 85.6295 247.258L86.2795 228.898L97.6295 228.908Z" fill="#505050"/>
<path d="M78.6387 310.639C78.6387 310.639 77.6587 312.389 76.7187 317.039C76.5487 317.879 77.1387 318.679 77.9887 318.769C79.4987 318.919 81.8387 319.109 83.6987 319.099C84.5587 319.089 85.2287 318.349 85.1287 317.499C84.9187 315.799 84.2787 313.019 82.2887 310.849L78.6387 310.639Z" fill="#333333"/>
<path d="M78.0996 305.25L79.1696 311.59C79.1696 311.59 80.2296 312.45 82.3196 311.83L81.8096 305L78.0996 305.25Z" fill="#E4BFC1"/>
<path d="M74.2898 230.448C69.5298 258.598 75.3198 300.018 77.2798 308.128C77.3998 308.628 77.8098 309.008 78.3198 309.088C79.1898 309.228 80.6298 309.348 82.0498 308.938C82.5398 308.798 82.8798 308.368 82.8998 307.868C83.1598 301.308 82.6898 261.068 87.1298 245.168C87.3598 244.358 87.8598 243.658 88.5498 243.178L97.1598 237.178L97.8198 227.488L74.2898 230.448Z" fill="url(#paint0_linear_1727_2341)"/>
<path d="M104.779 178.999C91.0487 178.769 75.4087 182.409 75.4087 182.409C71.3187 206.119 75.1787 233.639 75.1787 233.639C85.8087 236.409 97.7987 231.949 97.7987 231.949C99.5687 222.039 107.809 194.149 107.809 194.149C114.519 193.319 120.049 191.399 124.599 188.859C121.129 184.859 119.489 179.779 118.779 176.779C113.919 178.269 109.009 179.069 104.779 178.999Z" fill="#CC1517"/>
<path d="M145.549 158.9C144.189 157.28 142.469 158.05 142.469 158.05C140.429 166.53 129.749 173.41 118.779 176.77C119.499 179.78 121.149 184.87 124.649 188.87C142.859 178.77 145.549 158.9 145.549 158.9Z" fill="#E4BFC1"/>
<path d="M144.87 160.109C145.01 160.569 143.45 161.269 142.54 159.389C142.51 158.489 142 154.639 142.5 153.909C145.16 150.009 150.3 145.119 150.3 145.119C151.17 146.039 150.45 146.949 150.45 146.949L147.95 149.749C148.47 150.769 149.11 151.619 149.41 152.849C149.64 153.779 149.5 154.779 149.06 155.619C148.62 156.469 148.02 157.579 147.46 158.439C146.4 160.099 144.87 160.109 144.87 160.109Z" fill="#E4BFC1"/>
<path d="M147.309 152.18L144.559 154.41L143.689 156.63L146.139 159.23C146.139 159.23 146.969 154.83 147.579 153.88C148.199 152.92 147.879 152.45 147.309 152.18Z" fill="#E4BFC1"/>
<path d="M80.9095 194.758L75.3995 182.408C75.3995 182.408 61.9795 190.508 59.7695 200.768C62.2995 200.938 66.9195 201.518 71.4395 203.548C72.4395 198.698 80.9095 194.758 80.9095 194.758Z" fill="#CC1517"/>
<path d="M91.6793 206.358C91.6793 206.358 77.1893 214.378 72.2993 207.528C71.2893 206.108 71.0393 204.688 71.2893 203.348C66.9493 201.198 62.5093 200.578 60.0693 200.408C59.4293 203.688 59.7693 207.178 61.7393 210.708C70.2993 226.048 93.5993 209.858 93.5993 209.858L91.6793 206.358Z" fill="#E4BFC1"/>
<path d="M90.8097 217.849L98.8097 190.329C98.8997 190.019 99.1697 189.789 99.4997 189.749C100.95 189.579 105.15 189.119 109.99 188.709C115.83 188.219 122.61 187.829 126.66 188.159C127.24 188.209 127.58 188.809 127.33 189.319C125.03 193.909 115.55 212.599 110.8 218.719C110.64 218.919 110.4 219.039 110.14 219.039L91.5897 218.869C91.0497 218.869 90.6597 218.359 90.8097 217.849Z" fill="#898989"/>
<path d="M109.81 187.459L115.66 186.639C115.97 186.599 116.23 186.849 116.13 187.099L115.55 188.579C115.5 188.709 115.37 188.799 115.21 188.819L109.58 189.449C109.29 189.479 109.05 189.259 109.12 189.019L109.48 187.729C109.51 187.589 109.64 187.489 109.81 187.459Z" fill="#333333"/>
<path d="M106.29 190.458L106.74 189.008C106.79 188.858 106.98 188.748 107.22 188.738L118.35 188.048C118.72 188.028 119.02 188.238 118.94 188.458L118.23 190.268C118.17 190.408 117.97 190.518 117.73 190.528L106.85 190.868C106.5 190.868 106.22 190.678 106.29 190.458Z" fill="#333333"/>
<path d="M91.5902 210.538C91.5902 210.538 90.4102 205.818 90.8902 204.148C91.3702 202.478 92.2902 200.318 95.3602 200.798C98.4302 201.278 102.05 202.538 102.05 202.538C102.05 202.538 101.87 204.718 99.5302 204.018L100.98 205.108C100.98 205.108 100.77 206.858 98.8002 205.918L100.15 207.368C100.15 207.368 99.3002 208.798 97.8502 207.878C96.4002 206.948 95.7102 211.108 91.5902 210.538Z" fill="#E4BFC1"/>
<path d="M90.7497 166.908L86.5797 180.568C86.5097 180.798 86.5897 181.048 86.7797 181.158C87.9197 181.868 92.0097 183.928 96.9497 180.388C97.4597 180.018 97.8097 179.418 97.8897 178.728L99.2397 166.898H90.7497V166.908Z" fill="#E4BFC1"/>
<path d="M100.619 155.639C100.619 155.639 105.439 164.749 104.819 168.429C104.199 172.109 98.2289 171.839 93.0189 168.859L89.3789 159.029L100.619 155.639Z" fill="#E4BFC1"/>
<path d="M92.5095 164.239C92.7195 164.139 92.7895 163.869 92.6695 163.669C92.2995 163.049 91.5895 161.789 91.3695 160.689C91.3695 160.689 90.5295 160.109 93.5095 159.339C96.4895 158.569 100.93 157.379 101.86 154.639C102.77 151.969 100.38 145.259 96.5595 150.609C96.4095 150.809 96.1295 150.819 95.9895 150.609C95.3595 149.729 93.7195 147.909 91.4395 149.009C89.2995 150.049 89.0595 151.739 89.0895 152.589C89.0995 152.839 88.8895 153.039 88.6595 152.989C87.5795 152.769 84.9895 152.579 83.7795 155.449C82.7795 157.819 83.4295 159.149 84.0195 159.809C84.2095 160.019 84.1295 160.369 83.8695 160.459C83.1595 160.689 82.2395 161.339 82.3395 163.139C82.4695 165.619 85.0395 165.399 85.7695 165.289C85.8895 165.269 86.0095 165.319 86.0895 165.409C86.7195 166.159 89.5395 169.339 92.5995 169.729C92.8595 169.759 93.0695 169.479 92.9795 169.209L91.6595 165.049C91.5995 164.859 91.6795 164.649 91.8595 164.559L92.5095 164.239Z" fill="#333333"/>
<path d="M92.6488 164.23C92.6488 164.23 89.5988 161.11 89.3788 163.74C89.1588 166.37 92.1288 167.55 93.5988 166.57L92.6488 164.23Z" fill="#E4BFC1"/>
<path d="M270.66 99.5905L218.96 99.2405C217.91 99.2305 217.07 98.5405 217.07 97.6805C217.08 96.8305 217.93 96.1405 218.98 96.1505L270.68 96.5005C271.72 96.5105 272.56 97.2005 272.56 98.0605C272.55 98.9105 271.7 99.6005 270.66 99.5905Z" fill="white"/>
<path d="M270.66 108.309L218.96 107.959C217.91 107.949 217.07 107.259 217.07 106.399C217.08 105.549 217.93 104.859 218.98 104.869L270.68 105.219C271.72 105.229 272.56 105.919 272.56 106.779C272.55 107.629 271.7 108.319 270.66 108.309Z" fill="white"/>
<path d="M270.66 117.03L218.96 116.68C217.91 116.67 217.07 115.98 217.07 115.12C217.08 114.27 217.93 113.58 218.98 113.59L270.68 113.94C271.72 113.95 272.56 114.64 272.56 115.5C272.55 116.35 271.7 117.04 270.66 117.03Z" fill="white"/>
<path d="M275.979 157.039L151.479 156.439C150.439 156.439 149.619 155.739 149.619 154.889C149.619 154.039 150.459 153.349 151.489 153.359L275.989 153.959C277.029 153.959 277.859 154.659 277.859 155.509C277.859 156.359 277.019 157.039 275.979 157.039Z" fill="white"/>
<path d="M275.979 170.87L151.479 170.27C150.439 170.27 149.619 169.57 149.619 168.72C149.619 167.87 150.459 167.18 151.489 167.19L275.989 167.79C277.029 167.79 277.859 168.49 277.859 169.34C277.859 170.19 277.019 170.88 275.979 170.87Z" fill="white"/>
<path d="M275.979 184.709L151.479 184.109C150.439 184.109 149.619 183.409 149.619 182.559C149.619 181.709 150.459 181.019 151.489 181.029L275.989 181.629C277.029 181.629 277.859 182.329 277.859 183.179C277.859 184.029 277.019 184.719 275.979 184.709Z" fill="white"/>
<path d="M275.3 212.82H179.28C178.43 212.82 177.74 212.13 177.74 211.28C177.74 210.43 178.43 209.74 179.28 209.74H275.3C276.15 209.74 276.84 210.43 276.84 211.28C276.84 212.13 276.16 212.82 275.3 212.82Z" fill="white"/>
<path d="M275.3 234.791H179.28C178.43 234.791 177.74 234.101 177.74 233.251C177.74 232.401 178.43 231.711 179.28 231.711H275.3C276.15 231.711 276.84 232.401 276.84 233.251C276.84 234.101 276.16 234.791 275.3 234.791Z" fill="white"/>
<path d="M275.3 256.76H179.28C178.43 256.76 177.74 256.07 177.74 255.22C177.74 254.37 178.43 253.68 179.28 253.68H275.3C276.15 253.68 276.84 254.37 276.84 255.22C276.85 256.07 276.16 256.76 275.3 256.76Z" fill="white"/>
<path d="M275.3 278.73H179.28C178.43 278.73 177.74 278.04 177.74 277.19C177.74 276.34 178.43 275.65 179.28 275.65H275.3C276.15 275.65 276.84 276.34 276.84 277.19C276.85 278.04 276.16 278.73 275.3 278.73Z" fill="white"/>
<path d="M162.071 217.841L150.091 217.601C148.981 217.581 148.111 216.641 148.171 215.531L148.761 204.591C148.821 203.531 149.701 202.711 150.761 202.731L162.171 202.961C163.241 202.981 164.091 203.861 164.091 204.931L164.071 215.881C164.071 216.981 163.161 217.871 162.071 217.841Z" fill="white"/>
<path d="M161.87 239.261L149.89 239.021C148.78 239.001 147.91 238.061 147.97 236.951L148.56 226.011C148.62 224.951 149.5 224.131 150.56 224.151L161.97 224.381C163.04 224.401 163.89 225.281 163.89 226.351L163.87 237.301C163.87 238.401 162.97 239.281 161.87 239.261Z" fill="white"/>
<path d="M161.68 260.681L149.7 260.441C148.59 260.421 147.72 259.481 147.78 258.371L148.37 247.431C148.43 246.371 149.31 245.551 150.37 245.571L161.78 245.801C162.85 245.821 163.7 246.701 163.7 247.771L163.68 258.721C163.68 259.821 162.78 260.701 161.68 260.681Z" fill="white"/>
<path d="M161.491 282.101L149.511 281.861C148.401 281.841 147.531 280.901 147.591 279.791L148.181 268.851C148.241 267.791 149.121 266.971 150.181 266.991L161.591 267.221C162.661 267.241 163.511 268.121 163.511 269.191L163.491 280.141C163.491 281.241 162.581 282.121 161.491 282.101Z" fill="white"/>
<defs>
<linearGradient id="paint0_linear_1727_2341" x1="111.365" y1="223.98" x2="60.9928" y2="293.691" gradientUnits="userSpaceOnUse">
<stop stop-color="#333333"/>
<stop offset="1" stop-color="#232323"/>
</linearGradient>
</defs>
</svg>
