<svg width="78" height="78" viewBox="0 0 78 78" fill="none" xmlns="http://www.w3.org/2000/svg">
<path d="M15.8438 60.9375V58.684C15.8438 57.837 15.5208 57.0217 14.9407 56.405C13.7122 55.0985 11.4965 52.7426 10.0193 51.1729C9.06384 50.1564 8.53125 48.8134 8.53125 47.4179C8.53125 42.889 8.53125 32.3968 8.53125 26.8101C8.53125 24.7918 10.1668 23.1562 12.1851 23.1562H12.1899C13.1588 23.1562 14.0887 23.5414 14.7737 24.2263C15.4586 24.9113 15.8438 25.8412 15.8438 26.8101C15.8438 29.5778 15.8438 32.9062 15.8438 32.9062" stroke="#CC1517" stroke-width="4" stroke-miterlimit="2" stroke-linecap="round" stroke-linejoin="round"/>
<path d="M62.1562 60.9375V58.684C62.1562 57.837 62.4792 57.0217 63.0593 56.405C64.2878 55.0985 66.5035 52.7426 67.9807 51.1729C68.9362 50.1564 69.4688 48.8134 69.4688 47.4179C69.4688 42.889 69.4688 32.3968 69.4688 26.8101C69.4688 24.7918 67.8332 23.1562 65.8149 23.1562H65.8101C64.8412 23.1562 63.9112 23.5414 63.2263 24.2263C62.5414 24.9113 62.1562 25.8412 62.1562 26.8101C62.1562 29.5778 62.1562 32.9062 62.1562 32.9062" stroke="#CC1517" stroke-width="4" stroke-miterlimit="2" stroke-linecap="round" stroke-linejoin="round"/>
<path d="M35.3438 68.7119V62.6998C35.3438 62.233 35.1585 61.7845 34.827 61.4542C34.4967 61.1227 34.0482 60.9375 33.5814 60.9375C29.6693 60.9375 20.2995 60.9375 16.3873 60.9375C15.9205 60.9375 15.472 61.1227 15.1417 61.4542C14.8102 61.7845 14.625 62.233 14.625 62.6998C14.625 64.9935 14.625 68.7119 14.625 68.7119" stroke="#CC1517" stroke-width="4" stroke-miterlimit="2" stroke-linecap="round" stroke-linejoin="round"/>
<path d="M42.6562 68.7119V62.6998C42.6562 62.233 42.8415 61.7845 43.173 61.4542C43.5033 61.1227 43.9518 60.9375 44.4186 60.9375C48.3307 60.9375 57.7005 60.9375 61.6127 60.9375C62.0795 60.9375 62.528 61.1227 62.8583 61.4542C63.1898 61.7845 63.375 62.233 63.375 62.6998C63.375 64.9935 63.375 68.7119 63.375 68.7119" stroke="#CC1517" stroke-width="4" stroke-miterlimit="2" stroke-linecap="round" stroke-linejoin="round"/>
<path d="M34.1268 60.938V54.2459C34.1268 51.2734 32.908 48.4312 30.7545 46.3813C27.9672 43.7281 24.0806 40.0292 21.626 37.6916C20.3268 36.4558 18.2806 36.4814 17.0131 37.7489L17.0106 37.7513C15.6944 39.0676 15.6944 41.2028 17.0106 42.5191C19.336 44.8457 22.5279 48.0364 22.5279 48.0364" stroke="#CC1517" stroke-width="4" stroke-miterlimit="2" stroke-linecap="round" stroke-linejoin="round"/>
<path d="M43.875 60.938V54.2459C43.875 51.2734 45.0937 48.4312 47.2473 46.3813C50.0346 43.7281 53.9212 40.0292 56.3757 37.6916C57.6749 36.4558 59.7212 36.4814 60.9887 37.7489L60.9911 37.7513C62.3074 39.0676 62.3074 41.2028 60.9911 42.5191C58.6657 44.8457 55.4738 48.0364 55.4738 48.0364" stroke="#CC1517" stroke-width="4" stroke-miterlimit="2" stroke-linecap="round" stroke-linejoin="round"/>
<path d="M54.0932 31.1169H53.2137V7.83682C53.2137 6.06068 51.8984 4.61523 50.2817 4.61523H42.2189C40.6023 4.61523 39.2869 6.06068 39.2869 7.83682V12.1121C39.0512 12.057 38.8084 12.0183 38.5539 12.0183H30.4912C28.8746 12.0183 27.5592 13.2034 27.5592 14.6611V31.1169H26.3132C25.8276 31.1169 25.4336 31.511 25.4336 31.9965C25.4336 32.482 25.8276 32.8761 26.3132 32.8761H54.0932C54.5787 32.8761 54.9728 32.4821 54.9728 31.9965C54.9728 31.5109 54.5788 31.1169 54.0932 31.1169ZM29.9048 14.6612C29.9048 14.575 30.1106 14.3639 30.4912 14.3639H38.554C38.9345 14.3639 39.1404 14.5744 39.1404 14.6612V31.1169H29.9048V14.6612ZM41.6325 7.83682C41.6325 7.32023 41.9416 6.96076 42.219 6.96076H50.2818C50.5592 6.96076 50.8682 7.32023 50.8682 7.83682V31.117H41.6325V7.83682Z" fill="#CC1517"/>
<path d="M44.8266 7.95312H43.3764C42.9079 7.95312 42.5273 8.33308 42.5273 8.8022V10.2523C42.5273 10.7209 42.9073 11.1014 43.3764 11.1014H44.8266C45.2951 11.1014 45.6756 10.7215 45.6756 10.2523V8.8022C45.6756 8.33308 45.2951 7.95312 44.8266 7.95312Z" fill="#CC1517"/>
<path d="M44.8266 12.0566H43.3764C42.9079 12.0566 42.5273 12.4366 42.5273 12.9057V14.3559C42.5273 14.8244 42.9073 15.2049 43.3764 15.2049H44.8266C45.2951 15.2049 45.6756 14.825 45.6756 14.3559V12.9057C45.6756 12.4366 45.2951 12.0566 44.8266 12.0566Z" fill="#CC1517"/>
<path d="M44.8266 16.1621H43.3764C42.9079 16.1621 42.5273 16.5421 42.5273 17.0112V18.4613C42.5273 18.9299 42.9073 19.3104 43.3764 19.3104H44.8266C45.2951 19.3104 45.6756 18.9304 45.6756 18.4613V17.0112C45.6756 16.5421 45.2951 16.1621 44.8266 16.1621Z" fill="#CC1517"/>
<path d="M49.1273 7.95312H47.6772C47.2087 7.95312 46.8281 8.33308 46.8281 8.8022V10.2523C46.8281 10.7209 47.2081 11.1014 47.6772 11.1014H49.1273C49.5959 11.1014 49.9764 10.7215 49.9764 10.2523V8.8022C49.9764 8.33308 49.5965 7.95312 49.1273 7.95312Z" fill="#CC1517"/>
<path d="M49.1273 12.0566H47.6772C47.2087 12.0566 46.8281 12.4366 46.8281 12.9057V14.3559C46.8281 14.8244 47.2081 15.2049 47.6772 15.2049H49.1273C49.5959 15.2049 49.9764 14.825 49.9764 14.3559V12.9057C49.9764 12.4366 49.5965 12.0566 49.1273 12.0566Z" fill="#CC1517"/>
<path d="M49.1273 16.1621H47.6772C47.2087 16.1621 46.8281 16.5421 46.8281 17.0112V18.4613C46.8281 18.9299 47.2081 19.3104 47.6772 19.3104H49.1273C49.5959 19.3104 49.9764 18.9304 49.9764 18.4613V17.0112C49.9764 16.5421 49.5965 16.1621 49.1273 16.1621Z" fill="#CC1517"/>
<path d="M44.8266 20.2656H43.3764C42.9079 20.2656 42.5273 20.6456 42.5273 21.1147V22.5648C42.5273 23.0334 42.9073 23.4139 43.3764 23.4139H44.8266C45.2951 23.4139 45.6756 23.034 45.6756 22.5648V21.1147C45.6756 20.6456 45.2951 20.2656 44.8266 20.2656Z" fill="#CC1517"/>
<path d="M44.8266 24.3711H43.3764C42.9079 24.3711 42.5273 24.751 42.5273 25.2202V26.6703C42.5273 27.1388 42.9073 27.5194 43.3764 27.5194H44.8266C45.2951 27.5194 45.6756 27.1394 45.6756 26.6703V25.2202C45.6756 24.751 45.2951 24.3711 44.8266 24.3711Z" fill="#CC1517"/>
<path d="M49.1273 20.2656H47.6772C47.2087 20.2656 46.8281 20.6456 46.8281 21.1147V22.5648C46.8281 23.0334 47.2081 23.4139 47.6772 23.4139H49.1273C49.5959 23.4139 49.9764 23.034 49.9764 22.5648V21.1147C49.9764 20.6456 49.5965 20.2656 49.1273 20.2656Z" fill="#CC1517"/>
<path d="M49.1273 24.3711H47.6772C47.2087 24.3711 46.8281 24.751 46.8281 25.2202V26.6703C46.8281 27.1388 47.2081 27.5194 47.6772 27.5194H49.1273C49.5959 27.5194 49.9764 27.1394 49.9764 26.6703V25.2202C49.9764 24.751 49.5965 24.3711 49.1273 24.3711Z" fill="#CC1517"/>
<path d="M33.096 16.1621H31.646C31.1774 16.1621 30.7969 16.5421 30.7969 17.0112V18.4613C30.7969 18.9299 31.1768 19.3104 31.646 19.3104H33.0961C33.5646 19.3104 33.9452 18.9304 33.9452 18.4613V17.0112C33.9452 16.5421 33.5646 16.1621 33.096 16.1621Z" fill="#CC1517"/>
<path d="M37.3969 16.1621H35.9467C35.4782 16.1621 35.0977 16.5421 35.0977 17.0112V18.4613C35.0977 18.9299 35.4776 19.3104 35.9467 19.3104H37.3969C37.8654 19.3104 38.2459 18.9304 38.2459 18.4613V17.0112C38.2459 16.5421 37.866 16.1621 37.3969 16.1621Z" fill="#CC1517"/>
<path d="M33.096 20.2656H31.646C31.1774 20.2656 30.7969 20.6456 30.7969 21.1147V22.5648C30.7969 23.0334 31.1768 23.4139 31.646 23.4139H33.0961C33.5646 23.4139 33.9452 23.034 33.9452 22.5648V21.1147C33.9452 20.6456 33.5646 20.2656 33.096 20.2656Z" fill="#CC1517"/>
<path d="M33.096 24.3711H31.646C31.1774 24.3711 30.7969 24.751 30.7969 25.2202V26.6703C30.7969 27.1388 31.1768 27.5194 31.646 27.5194H33.0961C33.5646 27.5194 33.9452 27.1394 33.9452 26.6703V25.2202C33.9452 24.751 33.5646 24.3711 33.096 24.3711Z" fill="#CC1517"/>
<path d="M37.3969 20.2656H35.9467C35.4782 20.2656 35.0977 20.6456 35.0977 21.1147V22.5648C35.0977 23.0334 35.4776 23.4139 35.9467 23.4139H37.3969C37.8654 23.4139 38.2459 23.034 38.2459 22.5648V21.1147C38.2459 20.6456 37.866 20.2656 37.3969 20.2656Z" fill="#CC1517"/>
<path d="M37.3969 24.3711H35.9467C35.4782 24.3711 35.0977 24.751 35.0977 25.2202V26.6703C35.0977 27.1388 35.4776 27.5194 35.9467 27.5194H37.3969C37.8654 27.5194 38.2459 27.1394 38.2459 26.6703V25.2202C38.2459 24.751 37.866 24.3711 37.3969 24.3711Z" fill="#CC1517"/>
</svg>
