<svg width="461" height="272" viewBox="0 0 461 272" fill="none" xmlns="http://www.w3.org/2000/svg">
<mask id="mask0_1727_1842" style="mask-type:luminance" maskUnits="userSpaceOnUse" x="-26" y="0" width="511" height="272">
<path d="M484.388 0.257812H-25.8145V271.075H484.388V0.257812Z" fill="white"/>
</mask>
<g mask="url(#mask0_1727_1842)">
<g opacity="0.4">
<path d="M49.068 125.132H67.9192C69.5776 125.132 70.9223 123.799 70.9223 122.155V43.5256C70.9223 41.8816 69.5776 40.5488 67.9192 40.5488H49.068C47.4091 40.5488 46.0645 41.8816 46.0645 43.5256V122.155C46.0645 123.799 47.4091 125.132 49.068 125.132Z" fill="#AFAFAF"/>
<path d="M64.3201 106.89C64.3201 103.7 61.7118 101.115 58.4946 101.115C55.2762 101.115 52.668 103.7 52.668 106.89C52.668 110.078 55.2762 112.663 58.4946 112.663C61.7118 112.663 64.3201 110.078 64.3201 106.89Z" fill="#898989"/>
<path d="M58.4945 113.309C54.9411 113.309 52.0508 110.444 52.0508 106.923C52.0508 103.401 54.9411 100.537 58.4945 100.537C62.0468 100.537 64.9372 103.401 64.9372 106.923C64.9372 110.444 62.0468 113.309 58.4945 113.309ZM58.4945 101.76C55.6213 101.76 53.2845 104.076 53.2845 106.923C53.2845 109.77 55.6213 112.086 58.4945 112.086C61.3666 112.086 63.7027 109.77 63.7027 106.923C63.7027 104.076 61.3666 101.76 58.4945 101.76Z" fill="white"/>
<path d="M52.3206 91.9641H64.6585C65.2715 91.9641 65.7685 91.4715 65.7685 90.8642V45.5196C65.7685 44.9123 65.2715 44.4199 64.6585 44.4199H52.3206C51.7078 44.4199 51.2109 44.9123 51.2109 45.5196V90.8642C51.2109 91.4715 51.7078 91.9641 52.3206 91.9641Z" fill="#EEEEEE"/>
<path d="M53.8016 48.0472H62.8841C63.3719 48.0472 63.7676 47.6551 63.7676 47.1715V47.0164C63.7676 46.5327 63.3719 46.1406 62.8841 46.1406H53.8016C53.3135 46.1406 52.918 46.5327 52.918 47.0164V47.1715C52.918 47.6551 53.3135 48.0472 53.8016 48.0472Z" fill="#CC1517"/>
<path d="M60.3496 76.5256V86.3254C60.3496 86.5888 60.5653 86.8023 60.8308 86.8023C61.0962 86.8023 61.3111 86.5888 61.3111 86.3254V76.5256C61.3111 76.2622 61.0962 76.0488 60.8308 76.0488C60.5653 76.0488 60.3496 76.2622 60.3496 76.5256Z" fill="#738290"/>
<path d="M60.3496 63.0432V72.8428C60.3496 73.1059 60.5653 73.3195 60.8308 73.3195C61.0962 73.3195 61.3111 73.1059 61.3111 72.8428V63.0432C61.3111 62.7798 61.0962 62.5664 60.8308 62.5664C60.5653 62.5664 60.3496 62.7798 60.3496 63.0432Z" fill="#738290"/>
<path d="M54.834 76.5256V86.3254C54.834 86.5888 55.0491 86.8023 55.3148 86.8023C55.5805 86.8023 55.7958 86.5888 55.7958 86.3254V76.5256C55.7958 76.2622 55.5805 76.0488 55.3148 76.0488C55.0491 76.0488 54.834 76.2622 54.834 76.5256Z" fill="#738290"/>
<path d="M54.834 63.0432V72.8428C54.834 73.1059 55.0491 73.3195 55.3148 73.3195C55.5805 73.3195 55.7958 73.1059 55.7958 72.8428V63.0432C55.7958 62.7798 55.5805 62.5664 55.3148 62.5664C55.0491 62.5664 54.834 62.7798 54.834 63.0432Z" fill="#738290"/>
<path d="M57.7051 73.7597V86.3254C57.7051 86.5887 57.9199 86.8022 58.1854 86.8022C58.4517 86.8022 58.6666 86.5887 58.6666 86.3254V73.7597C58.6666 73.4966 58.4517 73.2832 58.1854 73.2832C57.9199 73.2832 57.7051 73.4966 57.7051 73.7597Z" fill="#738290"/>
<path d="M57.7051 56.8086V69.3742C57.7051 69.6373 57.9199 69.8507 58.1854 69.8507C58.4517 69.8507 58.6666 69.6373 58.6666 69.3742V56.8086C58.6666 56.5453 58.4517 56.332 58.1854 56.332C57.9199 56.332 57.7051 56.5453 57.7051 56.8086Z" fill="#738290"/>
<path d="M80.6613 125.132H99.5123C101.171 125.132 102.516 123.799 102.516 122.155V43.5256C102.516 41.8816 101.171 40.5488 99.5123 40.5488H80.6613C79.003 40.5488 77.6582 41.8816 77.6582 43.5256V122.155C77.6582 123.799 79.003 125.132 80.6613 125.132Z" fill="#AFAFAF"/>
<path d="M95.9142 106.89C95.9142 103.7 93.3052 101.115 90.088 101.115C86.87 101.115 84.2617 103.7 84.2617 106.89C84.2617 110.078 86.87 112.663 90.088 112.663C93.3052 112.663 95.9142 110.078 95.9142 106.89Z" fill="#898989"/>
<path d="M90.088 113.309C86.5349 113.309 83.6445 110.444 83.6445 106.923C83.6445 103.401 86.5349 100.537 90.088 100.537C93.6404 100.537 96.5307 103.401 96.5307 106.923C96.5307 110.444 93.6404 113.309 90.088 113.309ZM90.088 101.76C87.2151 101.76 84.879 104.076 84.879 106.923C84.879 109.77 87.2151 112.086 90.088 112.086C92.9601 112.086 95.2971 109.77 95.2971 106.923C95.2971 104.076 92.9601 101.76 90.088 101.76Z" fill="white"/>
<path d="M83.9147 91.9641H96.2525C96.8655 91.9641 97.3616 91.4715 97.3616 90.8642V45.5196C97.3616 44.9123 96.8655 44.4199 96.2525 44.4199H83.9147C83.3016 44.4199 82.8047 44.9123 82.8047 45.5196V90.8642C82.8047 91.4715 83.3016 91.9641 83.9147 91.9641Z" fill="#EEEEEE"/>
<path d="M85.3961 48.0472H94.4785C94.9663 48.0472 95.362 47.6551 95.362 47.1715V47.0164C95.362 46.5327 94.9663 46.1406 94.4785 46.1406H85.3961C84.9074 46.1406 84.5117 46.5327 84.5117 47.0164V47.1715C84.5117 47.6551 84.9074 48.0472 85.3961 48.0472Z" fill="#CC1517"/>
<path d="M91.9434 76.5256V86.3254C91.9434 86.5888 92.1582 86.8023 92.4237 86.8023C92.6892 86.8023 92.9049 86.5888 92.9049 86.3254V76.5256C92.9049 76.2622 92.6892 76.0488 92.4237 76.0488C92.1582 76.0488 91.9434 76.2622 91.9434 76.5256Z" fill="#738290"/>
<path d="M91.9434 63.0432V72.8428C91.9434 73.1059 92.1582 73.3195 92.4237 73.3195C92.6892 73.3195 92.9049 73.1059 92.9049 72.8428V63.0432C92.9049 62.7798 92.6892 62.5664 92.4237 62.5664C92.1582 62.5664 91.9434 62.7798 91.9434 63.0432Z" fill="#738290"/>
<path d="M86.4277 76.5256V86.3254C86.4277 86.5888 86.6434 86.8023 86.9089 86.8023C87.1744 86.8023 87.3901 86.5888 87.3901 86.3254V76.5256C87.3901 76.2622 87.1744 76.0488 86.9089 76.0488C86.6434 76.0488 86.4277 76.2622 86.4277 76.5256Z" fill="#738290"/>
<path d="M86.4277 63.0432V72.8428C86.4277 73.1059 86.6434 73.3195 86.9089 73.3195C87.1744 73.3195 87.3901 73.1059 87.3901 72.8428V63.0432C87.3901 62.7798 87.1744 62.5664 86.9089 62.5664C86.6434 62.5664 86.4277 62.7798 86.4277 63.0432Z" fill="#738290"/>
<path d="M89.2969 73.7597V86.3254C89.2969 86.5887 89.5126 86.8022 89.778 86.8022C90.0435 86.8022 90.2592 86.5887 90.2592 86.3254V73.7597C90.2592 73.4966 90.0435 73.2832 89.778 73.2832C89.5126 73.2832 89.2969 73.4966 89.2969 73.7597Z" fill="#738290"/>
<path d="M89.2969 56.8086V69.3742C89.2969 69.6373 89.5126 69.8507 89.778 69.8507C90.0435 69.8507 90.2592 69.6373 90.2592 69.3742V56.8086C90.2592 56.5453 90.0435 56.332 89.778 56.332C89.5126 56.332 89.2969 56.5453 89.2969 56.8086Z" fill="#738290"/>
<path d="M132.047 125.132H113.196C111.539 125.132 110.193 123.798 110.193 122.156V43.5256C110.193 41.8826 111.539 40.5488 113.196 40.5488H132.047C133.705 40.5488 135.051 41.8826 135.051 43.5256V122.155C135.051 123.798 133.705 125.132 132.047 125.132Z" fill="#AFAFAF"/>
<path d="M128.788 91.9641H116.45C115.837 91.9641 115.34 91.4715 115.34 90.8642V45.5196C115.34 44.9126 115.837 44.4199 116.45 44.4199H128.788C129.4 44.4199 129.898 44.9126 129.898 45.5196V90.8642C129.898 91.4715 129.4 91.9641 128.788 91.9641Z" fill="#EEEEEE"/>
<path d="M127.013 48.0472H117.93C117.443 48.0472 117.047 47.6548 117.047 47.1715V47.0164C117.047 46.533 117.443 46.1406 117.93 46.1406H127.013C127.501 46.1406 127.896 46.5329 127.896 47.0161V47.1715C127.896 47.6548 127.5 48.0472 127.013 48.0472Z" fill="#CC1517"/>
<path d="M163.446 125.132H144.596C142.937 125.132 141.592 123.798 141.592 122.155V43.5255C141.592 41.8826 142.937 40.5488 144.595 40.5488H163.446C165.103 40.5488 166.45 41.8826 166.45 43.5255V122.155C166.45 123.798 165.103 125.132 163.446 125.132Z" fill="#A4BACD"/>
<path d="M160.186 91.9641H147.847C147.235 91.9641 146.738 91.4715 146.738 90.8642V45.5196C146.738 44.9126 147.235 44.4199 147.847 44.4199H160.186C160.798 44.4199 161.295 44.9125 161.295 45.5194V90.8642C161.295 91.4715 160.798 91.9641 160.186 91.9641Z" fill="#F7FAFD"/>
<path d="M149.329 48.0472H158.411C158.9 48.0472 159.295 47.6551 159.295 47.1715V47.0164C159.295 46.5327 158.9 46.1406 158.411 46.1406H149.329C148.841 46.1406 148.445 46.5327 148.445 47.0164V47.1715C148.445 47.6551 148.841 48.0472 149.329 48.0472Z" fill="#F99746"/>
<path d="M36.919 220.804H18.0682C16.4104 220.804 15.0645 219.47 15.0645 217.826V139.197C15.0645 137.554 16.4101 136.221 18.0678 136.221H36.9189C38.5766 136.221 39.9224 137.554 39.9224 139.197V217.826C39.9224 219.47 38.5767 220.804 36.919 220.804Z" fill="#AFAFAF"/>
<path d="M27.4923 208.333C30.71 208.333 33.3185 205.748 33.3185 202.559C33.3185 199.37 30.71 196.785 27.4923 196.785C24.2745 196.785 21.666 199.37 21.666 202.559C21.666 205.748 24.2745 208.333 27.4923 208.333Z" fill="#898989"/>
<path d="M27.4939 208.978C23.9413 208.978 21.0508 206.113 21.0508 202.593C21.0508 199.071 23.9413 196.207 27.4939 196.207C31.0467 196.207 33.937 199.071 33.937 202.593C33.937 206.113 31.0467 208.978 27.4939 208.978ZM27.4939 197.43C24.6213 197.43 22.2845 199.746 22.2845 202.593C22.2845 205.44 24.6213 207.756 27.4939 207.756C30.3665 207.756 32.7033 205.44 32.7033 202.593C32.7033 199.746 30.3665 197.43 27.4939 197.43Z" fill="white"/>
<path d="M33.6586 187.634H21.3206C20.7082 187.634 20.2109 187.141 20.2109 186.534V141.19C20.2109 140.582 20.7082 140.09 21.3206 140.09H33.6589C34.2712 140.09 34.7683 140.582 34.7683 141.189V186.534C34.7683 187.141 34.2711 187.634 33.6586 187.634Z" fill="#EEEEEE"/>
<path d="M31.882 143.717H22.7995C22.3119 143.717 21.916 143.325 21.916 142.841V142.686C21.916 142.203 22.3121 141.811 22.7999 141.811H31.8821C32.3699 141.811 32.7657 142.203 32.7657 142.686V142.841C32.7657 143.325 32.3697 143.717 31.882 143.717Z" fill="#CC1517"/>
<path d="M29.3496 172.195V181.995C29.3496 182.258 29.565 182.471 29.8304 182.471C30.0959 182.471 30.3114 182.258 30.3114 181.995V172.195C30.3114 171.931 30.0959 171.719 29.8304 171.719C29.565 171.719 29.3496 171.931 29.3496 172.195Z" fill="#738290"/>
<path d="M29.3496 158.712V168.512C29.3496 168.776 29.565 168.989 29.8304 168.989C30.0959 168.989 30.3114 168.776 30.3114 168.512V158.712C30.3114 158.45 30.0959 158.236 29.8304 158.236C29.565 158.236 29.3496 158.45 29.3496 158.712Z" fill="#738290"/>
<path d="M23.834 172.195V181.995C23.834 182.258 24.0491 182.471 24.3146 182.471C24.5803 182.471 24.7957 182.258 24.7957 181.995V172.195C24.7957 171.931 24.5803 171.719 24.3146 171.719C24.0491 171.719 23.834 171.931 23.834 172.195Z" fill="#738290"/>
<path d="M23.834 158.712V168.512C23.834 168.776 24.0491 168.989 24.3146 168.989C24.5803 168.989 24.7957 168.776 24.7957 168.512V158.712C24.7957 158.45 24.5803 158.236 24.3146 158.236C24.0491 158.236 23.834 158.45 23.834 158.712Z" fill="#738290"/>
<path d="M26.7031 169.43V181.996C26.7031 182.259 26.9185 182.472 27.1842 182.472C27.4497 182.472 27.665 182.259 27.665 181.996V169.43C27.665 169.167 27.4497 168.953 27.1842 168.953C26.9185 168.953 26.7031 169.167 26.7031 169.43Z" fill="#738290"/>
<path d="M26.7031 152.479V165.044C26.7031 165.308 26.9185 165.52 27.1842 165.52C27.4497 165.52 27.665 165.308 27.665 165.044V152.479C27.665 152.215 27.4497 152.002 27.1842 152.002C26.9185 152.002 26.7031 152.215 26.7031 152.479Z" fill="#738290"/>
<path d="M67.9192 220.804H49.0679C47.4103 220.804 46.0645 219.47 46.0645 217.826V139.197C46.0645 137.554 47.4102 136.221 49.0678 136.221H67.9192C69.5767 136.221 70.9223 137.554 70.9223 139.197V217.826C70.9223 219.47 69.5767 220.804 67.9192 220.804Z" fill="#AFAFAF"/>
<path d="M64.3201 202.559C64.3201 199.37 61.7118 196.785 58.4946 196.785C55.2762 196.785 52.668 199.37 52.668 202.559C52.668 205.748 55.2762 208.333 58.4946 208.333C61.7118 208.333 64.3201 205.748 64.3201 202.559Z" fill="#738290"/>
<path d="M58.4945 208.978C54.9411 208.978 52.0508 206.113 52.0508 202.593C52.0508 199.071 54.9411 196.207 58.4945 196.207C62.0468 196.207 64.9372 199.071 64.9372 202.593C64.9372 206.113 62.0468 208.978 58.4945 208.978ZM58.4945 197.43C55.6213 197.43 53.2845 199.746 53.2845 202.593C53.2845 205.44 55.6213 207.756 58.4945 207.756C61.3666 207.756 63.7027 205.44 63.7027 202.593C63.7027 199.746 61.3666 197.43 58.4945 197.43Z" fill="white"/>
<path d="M52.3206 187.634H64.6585C65.2715 187.634 65.7685 187.141 65.7685 186.534V141.19C65.7685 140.582 65.2715 140.09 64.6585 140.09H52.3206C51.7078 140.09 51.2109 140.582 51.2109 141.19V186.534C51.2109 187.141 51.7078 187.634 52.3206 187.634Z" fill="#EEEEEE"/>
<path d="M62.8841 143.717H53.8016C53.3138 143.717 52.918 143.325 52.918 142.841V142.686C52.918 142.203 53.3139 141.811 53.8017 141.811H62.8841C63.3719 141.811 63.7676 142.203 63.7676 142.686V142.841C63.7676 143.325 63.3719 143.717 62.8841 143.717Z" fill="#CC1517"/>
<path d="M60.3496 172.195V181.995C60.3496 182.258 60.5653 182.471 60.8308 182.471C61.0962 182.471 61.3111 182.258 61.3111 181.995V172.195C61.3111 171.931 61.0962 171.719 60.8308 171.719C60.5653 171.719 60.3496 171.931 60.3496 172.195Z" fill="#738290"/>
<path d="M60.3496 158.712V168.512C60.3496 168.776 60.5653 168.989 60.8308 168.989C61.0962 168.989 61.3111 168.776 61.3111 168.512V158.712C61.3111 158.45 61.0962 158.236 60.8308 158.236C60.5653 158.236 60.3496 158.45 60.3496 158.712Z" fill="#738290"/>
<path d="M54.834 172.195V181.995C54.834 182.258 55.0491 182.471 55.3148 182.471C55.5805 182.471 55.7958 182.258 55.7958 181.995V172.195C55.7958 171.931 55.5805 171.719 55.3148 171.719C55.0491 171.719 54.834 171.931 54.834 172.195Z" fill="#738290"/>
<path d="M54.834 158.712V168.512C54.834 168.776 55.0491 168.989 55.3148 168.989C55.5805 168.989 55.7958 168.776 55.7958 168.512V158.712C55.7958 158.45 55.5805 158.236 55.3148 158.236C55.0491 158.236 54.834 158.45 54.834 158.712Z" fill="#738290"/>
<path d="M57.7051 169.43V181.996C57.7051 182.259 57.9199 182.472 58.1854 182.472C58.4517 182.472 58.6666 182.259 58.6666 181.996V169.43C58.6666 169.167 58.4517 168.953 58.1854 168.953C57.9199 168.953 57.7051 169.167 57.7051 169.43Z" fill="#738290"/>
<path d="M57.7051 152.479V165.044C57.7051 165.308 57.9199 165.52 58.1854 165.52C58.4517 165.52 58.6666 165.308 58.6666 165.044V152.479C58.6666 152.215 58.4517 152.002 58.1854 152.002C57.9199 152.002 57.7051 152.215 57.7051 152.479Z" fill="#738290"/>
<path d="M99.5123 220.804H80.6613C79.0038 220.804 77.6582 219.47 77.6582 217.826V139.197C77.6582 137.554 79.0038 136.221 80.6613 136.221H99.5123C101.17 136.221 102.516 137.554 102.516 139.197V217.826C102.516 219.47 101.17 220.804 99.5123 220.804Z" fill="#AFAFAF"/>
<path d="M132.047 220.804H113.196C111.539 220.804 110.193 219.47 110.193 217.827V139.197C110.193 137.554 111.539 136.221 113.196 136.221H132.047C133.705 136.221 135.051 137.554 135.051 139.197V217.826C135.051 219.47 133.705 220.804 132.047 220.804Z" fill="#AFAFAF"/>
<path d="M163.446 220.804H144.596C142.937 220.804 141.592 219.47 141.592 217.826V139.197C141.592 137.554 142.937 136.221 144.595 136.221H163.446C165.103 136.221 166.45 137.554 166.45 139.197V217.826C166.45 219.47 165.103 220.804 163.446 220.804Z" fill="#8C9DF4"/>
<path d="M40.1074 127.521H178.102V125.143H40.1074V127.521Z" fill="#808080"/>
<path d="M5.42578 223.145H188.824V220.766H5.42578V223.145Z" fill="#808080"/>
</g>
</g>
<mask id="mask1_1727_1842" style="mask-type:luminance" maskUnits="userSpaceOnUse" x="-26" y="0" width="511" height="272">
<path d="M484.388 0.257812H-25.8145V271.075H484.388V0.257812Z" fill="white"/>
</mask>
<g mask="url(#mask1_1727_1842)">
<path d="M431.865 226.847H445.985V181.703H431.865V226.847Z" fill="#767676"/>
</g>
<mask id="mask2_1727_1842" style="mask-type:luminance" maskUnits="userSpaceOnUse" x="-26" y="0" width="511" height="272">
<path d="M484.388 0.257812H-25.8145V271.075H484.388V0.257812Z" fill="white"/>
</mask>
<g mask="url(#mask2_1727_1842)">
<path d="M397.814 226.847H431.865V181.703H397.814V226.847Z" fill="#4E4E4E"/>
</g>
<mask id="mask3_1727_1842" style="mask-type:luminance" maskUnits="userSpaceOnUse" x="-26" y="0" width="511" height="272">
<path d="M484.388 0.257812H-25.8145V271.075H484.388V0.257812Z" fill="white"/>
</mask>
<g mask="url(#mask3_1727_1842)">
<path d="M441.283 187.342C441.283 186.052 440.228 185.006 438.926 185.006C437.626 185.006 436.57 186.052 436.57 187.342C436.57 188.632 437.626 189.677 438.926 189.677C440.228 189.677 441.283 188.632 441.283 187.342Z" fill="#F3F3F3"/>
</g>
<mask id="mask4_1727_1842" style="mask-type:luminance" maskUnits="userSpaceOnUse" x="-26" y="0" width="511" height="272">
<path d="M484.388 0.257812H-25.8145V271.075H484.388V0.257812Z" fill="white"/>
</mask>
<g mask="url(#mask4_1727_1842)">
<path d="M440.592 187.343C440.592 186.431 439.846 185.691 438.926 185.691C438.006 185.691 437.26 186.431 437.26 187.343C437.26 188.255 438.006 188.994 438.926 188.994C439.846 188.994 440.592 188.255 440.592 187.343Z" fill="#C5C5C5"/>
</g>
<mask id="mask5_1727_1842" style="mask-type:luminance" maskUnits="userSpaceOnUse" x="-26" y="0" width="511" height="272">
<path d="M484.388 0.257812H-25.8145V271.075H484.388V0.257812Z" fill="white"/>
</mask>
<g mask="url(#mask5_1727_1842)">
<path d="M435.555 204.86H442.196V192.969H435.555V204.86Z" fill="#C5C5C5"/>
</g>
<mask id="mask6_1727_1842" style="mask-type:luminance" maskUnits="userSpaceOnUse" x="-26" y="0" width="511" height="272">
<path d="M484.388 0.257812H-25.8145V271.075H484.388V0.257812Z" fill="white"/>
</mask>
<g mask="url(#mask6_1727_1842)">
<path d="M405.525 226.847H419.645V181.703H405.525V226.847Z" fill="#767676"/>
</g>
<mask id="mask7_1727_1842" style="mask-type:luminance" maskUnits="userSpaceOnUse" x="-26" y="0" width="511" height="272">
<path d="M484.388 0.257812H-25.8145V271.075H484.388V0.257812Z" fill="white"/>
</mask>
<g mask="url(#mask7_1727_1842)">
<path d="M371.475 226.847H405.526V181.703H371.475V226.847Z" fill="#4E4E4E"/>
</g>
<mask id="mask8_1727_1842" style="mask-type:luminance" maskUnits="userSpaceOnUse" x="-26" y="0" width="511" height="272">
<path d="M484.388 0.257812H-25.8145V271.075H484.388V0.257812Z" fill="white"/>
</mask>
<g mask="url(#mask8_1727_1842)">
<path d="M414.942 187.342C414.942 186.052 413.887 185.006 412.585 185.006C411.284 185.006 410.229 186.052 410.229 187.342C410.229 188.632 411.284 189.677 412.585 189.677C413.887 189.677 414.942 188.632 414.942 187.342Z" fill="#F3F3F3"/>
</g>
<mask id="mask9_1727_1842" style="mask-type:luminance" maskUnits="userSpaceOnUse" x="-26" y="0" width="511" height="272">
<path d="M484.388 0.257812H-25.8145V271.075H484.388V0.257812Z" fill="white"/>
</mask>
<g mask="url(#mask9_1727_1842)">
<path d="M414.251 187.343C414.251 186.431 413.505 185.691 412.585 185.691C411.664 185.691 410.918 186.431 410.918 187.343C410.918 188.255 411.664 188.994 412.585 188.994C413.505 188.994 414.251 188.255 414.251 187.343Z" fill="#C5C5C5"/>
</g>
<mask id="mask10_1727_1842" style="mask-type:luminance" maskUnits="userSpaceOnUse" x="-26" y="0" width="511" height="272">
<path d="M484.388 0.257812H-25.8145V271.075H484.388V0.257812Z" fill="white"/>
</mask>
<g mask="url(#mask10_1727_1842)">
<path d="M409.213 204.86H415.854V192.969H409.213V204.86Z" fill="#C5C5C5"/>
</g>
<mask id="mask11_1727_1842" style="mask-type:luminance" maskUnits="userSpaceOnUse" x="-26" y="0" width="511" height="272">
<path d="M484.388 0.257812H-25.8145V271.075H484.388V0.257812Z" fill="white"/>
</mask>
<g mask="url(#mask11_1727_1842)">
<path d="M381.439 226.847H395.559V181.703H381.439V226.847Z" fill="#767676"/>
</g>
<mask id="mask12_1727_1842" style="mask-type:luminance" maskUnits="userSpaceOnUse" x="-26" y="0" width="511" height="272">
<path d="M484.388 0.257812H-25.8145V271.075H484.388V0.257812Z" fill="white"/>
</mask>
<g mask="url(#mask12_1727_1842)">
<path d="M347.389 226.847H381.44V181.703H347.389V226.847Z" fill="#4E4E4E"/>
</g>
<mask id="mask13_1727_1842" style="mask-type:luminance" maskUnits="userSpaceOnUse" x="-26" y="0" width="511" height="272">
<path d="M484.388 0.257812H-25.8145V271.075H484.388V0.257812Z" fill="white"/>
</mask>
<g mask="url(#mask13_1727_1842)">
<path d="M390.856 187.342C390.856 186.052 389.801 185.006 388.499 185.006C387.198 185.006 386.143 186.052 386.143 187.342C386.143 188.632 387.198 189.677 388.499 189.677C389.801 189.677 390.856 188.632 390.856 187.342Z" fill="#F3F3F3"/>
</g>
<mask id="mask14_1727_1842" style="mask-type:luminance" maskUnits="userSpaceOnUse" x="-26" y="0" width="511" height="272">
<path d="M484.388 0.257812H-25.8145V271.075H484.388V0.257812Z" fill="white"/>
</mask>
<g mask="url(#mask14_1727_1842)">
<path d="M390.166 187.343C390.166 186.431 389.421 185.691 388.5 185.691C387.58 185.691 386.834 186.431 386.834 187.343C386.834 188.255 387.58 188.994 388.5 188.994C389.421 188.994 390.166 188.255 390.166 187.343Z" fill="#C5C5C5"/>
</g>
<mask id="mask15_1727_1842" style="mask-type:luminance" maskUnits="userSpaceOnUse" x="-26" y="0" width="511" height="272">
<path d="M484.388 0.257812H-25.8145V271.075H484.388V0.257812Z" fill="white"/>
</mask>
<g mask="url(#mask15_1727_1842)">
<path d="M385.127 204.86H391.769V192.969H385.127V204.86Z" fill="#C5C5C5"/>
</g>
<mask id="mask16_1727_1842" style="mask-type:luminance" maskUnits="userSpaceOnUse" x="-26" y="0" width="511" height="272">
<path d="M484.388 0.257812H-25.8145V271.075H484.388V0.257812Z" fill="white"/>
</mask>
<g mask="url(#mask16_1727_1842)">
<path d="M345.268 269.52H425.044V211.104H345.268V269.52Z" fill="#CC1517"/>
</g>
<mask id="mask17_1727_1842" style="mask-type:luminance" maskUnits="userSpaceOnUse" x="-26" y="0" width="511" height="272">
<path d="M484.388 0.257812H-25.8145V271.075H484.388V0.257812Z" fill="white"/>
</mask>
<g mask="url(#mask17_1727_1842)">
<path d="M388.02 269.52H451.271V211.104H388.02V269.52Z" fill="#CC1517"/>
</g>
<mask id="mask18_1727_1842" style="mask-type:luminance" maskUnits="userSpaceOnUse" x="-26" y="0" width="511" height="272">
<path d="M484.388 0.257812H-25.8145V271.075H484.388V0.257812Z" fill="white"/>
</mask>
<g mask="url(#mask18_1727_1842)">
<path d="M415.06 220.638H431.444C432.462 220.638 433.288 219.82 433.288 218.81V218.574C433.288 217.564 432.462 216.746 431.444 216.746H415.06C414.041 216.746 413.215 217.564 413.215 218.574V218.81C413.215 219.82 414.041 220.638 415.06 220.638Z" fill="#4E4E4E"/>
</g>
<mask id="mask19_1727_1842" style="mask-type:luminance" maskUnits="userSpaceOnUse" x="-26" y="0" width="511" height="272">
<path d="M484.388 0.257812H-25.8145V271.075H484.388V0.257812Z" fill="white"/>
</mask>
<g mask="url(#mask19_1727_1842)">
<path d="M225.099 134.756L214.31 261.889C214.31 261.889 213.18 269.595 218.964 269.609C228.474 269.631 266.298 269.609 266.298 269.609C266.298 269.609 259.141 268.005 259.228 264.395C259.33 260.14 271.837 133.553 271.837 133.553L225.099 134.756Z" fill="#808080"/>
</g>
<mask id="mask20_1727_1842" style="mask-type:luminance" maskUnits="userSpaceOnUse" x="-26" y="0" width="511" height="272">
<path d="M484.388 0.257812H-25.8145V271.075H484.388V0.257812Z" fill="white"/>
</mask>
<g mask="url(#mask20_1727_1842)">
<path d="M269.859 267.298C267.989 267.304 231.37 267.364 222.109 267.247C218.073 267.197 217.365 263.69 217.331 261.421C217.315 260.333 217.454 259.528 217.454 259.528L217.735 256.224L218.45 247.802L219.081 240.362L219.893 230.8L220.577 222.729L228.242 132.393L274.981 131.191C274.981 131.191 269.713 184.168 265.987 222.729C265.571 227.026 265.175 231.146 264.809 234.992C264.691 236.22 264.577 237.42 264.466 238.589C264.12 242.237 263.805 245.588 263.53 248.546C263.385 250.105 263.251 251.554 263.13 252.881C262.655 258.082 262.376 261.402 262.373 262.034C262.37 262.403 262.402 262.745 262.463 263.063C263.231 267.114 269.157 267.298 269.859 267.298Z" fill="#E8E8E8"/>
</g>
<mask id="mask21_1727_1842" style="mask-type:luminance" maskUnits="userSpaceOnUse" x="-26" y="0" width="511" height="272">
<path d="M484.388 0.257812H-25.8145V271.075H484.388V0.257812Z" fill="white"/>
</mask>
<g mask="url(#mask21_1727_1842)">
<path d="M111.592 65.5195L137.871 170.134L141.469 184.461L153.708 233.187H381.097L335.985 65.5195H111.592Z" fill="#C5C5C5"/>
</g>
<mask id="mask22_1727_1842" style="mask-type:luminance" maskUnits="userSpaceOnUse" x="-26" y="0" width="511" height="272">
<path d="M484.388 0.257812H-25.8145V271.075H484.388V0.257812Z" fill="white"/>
</mask>
<g mask="url(#mask22_1727_1842)">
<path d="M111.591 65.5195L107.949 66.7228L148.866 236.827L153.708 233.188L111.591 65.5195Z" fill="#808080"/>
</g>
<mask id="mask23_1727_1842" style="mask-type:luminance" maskUnits="userSpaceOnUse" x="-26" y="0" width="511" height="272">
<path d="M484.388 0.257812H-25.8145V271.075H484.388V0.257812Z" fill="white"/>
</mask>
<g mask="url(#mask23_1727_1842)">
<path d="M148.867 236.826H374.856L381.096 233.188H153.71L148.867 236.826Z" fill="#808080"/>
</g>
<mask id="mask24_1727_1842" style="mask-type:luminance" maskUnits="userSpaceOnUse" x="-26" y="0" width="511" height="272">
<path d="M484.388 0.257812H-25.8145V271.075H484.388V0.257812Z" fill="white"/>
</mask>
<g mask="url(#mask24_1727_1842)">
<path d="M228.227 269.601H277.157V267.297H228.227V269.601Z" fill="#A0A0A0"/>
</g>
<mask id="mask25_1727_1842" style="mask-type:luminance" maskUnits="userSpaceOnUse" x="-26" y="0" width="511" height="272">
<path d="M484.388 0.257812H-25.8145V271.075H484.388V0.257812Z" fill="white"/>
</mask>
<g mask="url(#mask25_1727_1842)">
<path d="M264.718 236.826L264.465 238.588L218.449 247.802L219.081 240.361L219.382 236.826H264.718Z" fill="#969696"/>
</g>
<mask id="mask26_1727_1842" style="mask-type:luminance" maskUnits="userSpaceOnUse" x="-26" y="0" width="511" height="272">
<path d="M484.388 0.257812H-25.8145V271.075H484.388V0.257812Z" fill="white"/>
</mask>
<g mask="url(#mask26_1727_1842)">
<g opacity="0.5">
<path d="M269.86 267.298C267.99 267.304 231.37 267.365 222.11 267.247C218.074 267.198 217.365 263.69 217.332 261.421L263.131 252.881C262.655 258.082 262.377 261.402 262.373 262.034C262.371 262.403 262.402 262.745 262.464 263.063C263.231 267.115 269.158 267.298 269.86 267.298Z" fill="#969696"/>
</g>
</g>
<mask id="mask27_1727_1842" style="mask-type:luminance" maskUnits="userSpaceOnUse" x="-26" y="0" width="511" height="272">
<path d="M484.388 0.257812H-25.8145V271.075H484.388V0.257812Z" fill="white"/>
</mask>
<g mask="url(#mask27_1727_1842)">
<path d="M111.592 65.5195H335.984L372.392 200.271H145.44L111.592 65.5195Z" fill="#E8E8E8"/>
</g>
<mask id="mask28_1727_1842" style="mask-type:luminance" maskUnits="userSpaceOnUse" x="-26" y="0" width="511" height="272">
<path d="M484.388 0.257812H-25.8145V271.075H484.388V0.257812Z" fill="white"/>
</mask>
<g mask="url(#mask28_1727_1842)">
<path d="M361.808 194.432H151.708L144.201 164.791L141.296 153.322L140.112 148.645L132.395 118.182L131.996 116.596L127.916 100.494L126.091 93.289L124.535 87.1433L123.265 82.1314L120.885 72.7383H327.957L330.571 82.1314L331.964 87.1433L333.673 93.289L335.677 100.494L348.881 147.958V147.961L349.998 151.982L350.519 153.848L359.634 186.616L361.808 194.432Z" fill="#4E4E4E"/>
</g>
<mask id="mask29_1727_1842" style="mask-type:luminance" maskUnits="userSpaceOnUse" x="-26" y="0" width="511" height="272">
<path d="M484.388 0.257812H-25.8145V271.075H484.388V0.257812Z" fill="white"/>
</mask>
<g mask="url(#mask29_1727_1842)">
<path d="M99.0641 137.91C99.0641 137.91 99.6116 131.992 92.9391 131.992C92.9391 131.992 94.9608 132.535 96.007 133.622C96.007 133.622 91.7511 131.147 87.1195 134.951C82.4879 138.756 85.3657 148.299 83.9571 150.11C82.5484 151.923 77.0639 152.285 77.7343 158.144C78.4046 164.002 95.1409 171.34 94.0666 176.187C94.0666 176.187 100.625 166.632 95.9356 162.271C95.9356 162.271 98.2212 164.405 98.4543 166.942C98.4543 166.942 99.0748 161.989 95.895 160.405C93.081 159.003 90.7755 153.876 91.0194 152.96C91.2633 152.043 99.0641 137.91 99.0641 137.91Z" fill="#333333"/>
</g>
<mask id="mask30_1727_1842" style="mask-type:luminance" maskUnits="userSpaceOnUse" x="-26" y="0" width="511" height="272">
<path d="M484.388 0.257812H-25.8145V271.075H484.388V0.257812Z" fill="white"/>
</mask>
<g mask="url(#mask30_1727_1842)">
<path d="M92.4937 166.328C92.4937 166.328 97.4787 186.767 102.373 190.854C105.314 193.309 114.059 198.945 114.059 198.945L110.422 200.253C110.422 200.253 98.2909 196.194 95.5756 193.029C92.8595 189.864 85.4238 174.008 85.4238 174.008L92.4937 166.328Z" fill="#E4BFC1"/>
</g>
<mask id="mask31_1727_1842" style="mask-type:luminance" maskUnits="userSpaceOnUse" x="-26" y="0" width="511" height="272">
<path d="M484.388 0.257812H-25.8145V271.075H484.388V0.257812Z" fill="white"/>
</mask>
<g mask="url(#mask31_1727_1842)">
<path d="M121.277 206.416L120.106 203.541C118.85 200.458 115.831 198.439 112.476 198.439H90.8652V270.052H180.263V212.03H129.674C125.982 212.03 122.66 209.809 121.277 206.416Z" fill="#CC1517"/>
</g>
<mask id="mask32_1727_1842" style="mask-type:luminance" maskUnits="userSpaceOnUse" x="-26" y="0" width="511" height="272">
<path d="M484.388 0.257812H-25.8145V271.075H484.388V0.257812Z" fill="white"/>
</mask>
<g mask="url(#mask32_1727_1842)">
<path d="M45.6428 202.237C45.6868 202.315 45.7334 202.396 45.78 202.477C46.871 204.356 49.3734 208.961 52.1299 213.999C53.4336 216.39 54.7987 218.879 56.0936 221.22C58.3245 225.262 60.3553 228.86 61.5392 230.763C62.7437 232.697 63.6306 234.055 63.989 234.598L63.9914 234.601C64.1001 234.769 64.1234 234.965 64.1084 235.162C63.9831 236.868 64.018 238.562 64.1872 240.23C65.8497 256.622 77.0037 265.407 77.0037 265.407L80.3196 265.893C80.3196 265.893 75.6266 248.662 74.2444 238.92C74.0113 237.27 73.9085 235.931 73.9906 235.058C74.2353 232.52 73.7807 228.794 72.9196 224.516C71.389 216.913 68.5799 207.582 66.1384 200.113C65.9841 199.636 61.3201 182.916 61.3201 182.916C57.4061 186.307 43.1289 187.706 43.1289 187.706C43.1289 187.706 40.708 193.539 45.6428 202.237Z" fill="#333333"/>
</g>
<mask id="mask33_1727_1842" style="mask-type:luminance" maskUnits="userSpaceOnUse" x="-26" y="0" width="511" height="272">
<path d="M484.388 0.257812H-25.8145V271.075H484.388V0.257812Z" fill="white"/>
</mask>
<g mask="url(#mask33_1727_1842)">
<path d="M87.2803 270.051H73.4393C73.4393 270.051 73.1074 267.961 73.8308 266.375C74.5235 264.852 75.5108 264.804 73.9569 262.418C74.8363 263.316 77.6636 263.686 79.6645 263.42C79.9093 263.814 81.2449 266.457 82.0637 267.04C82.9688 267.684 87.0015 267.455 87.2803 270.051Z" fill="#333333"/>
</g>
<mask id="mask34_1727_1842" style="mask-type:luminance" maskUnits="userSpaceOnUse" x="-26" y="0" width="511" height="272">
<path d="M484.388 0.257812H-25.8145V271.075H484.388V0.257812Z" fill="white"/>
</mask>
<g mask="url(#mask34_1727_1842)">
<path d="M45.6426 202.236C45.6865 202.315 45.7332 202.395 45.7797 202.476C46.8708 204.356 52.7704 215.155 55.5266 220.193C52.3326 207.171 54.5541 194.148 54.5541 194.148L45.6426 202.236Z" fill="#505050"/>
</g>
<mask id="mask35_1727_1842" style="mask-type:luminance" maskUnits="userSpaceOnUse" x="-26" y="0" width="511" height="272">
<path d="M484.388 0.257812H-25.8145V271.075H484.388V0.257812Z" fill="white"/>
</mask>
<g mask="url(#mask35_1727_1842)">
<path d="M97.1763 137.079C97.2668 136.719 89.2711 140.661 88.8654 141.106C85.1157 145.229 86.185 150.609 88.3312 150.659C89.7066 150.693 89.4403 152.96 89.4403 152.96L104.771 146.533C104.771 146.533 102.925 135.866 97.1763 137.079Z" fill="#333333"/>
</g>
<mask id="mask36_1727_1842" style="mask-type:luminance" maskUnits="userSpaceOnUse" x="-26" y="0" width="511" height="272">
<path d="M484.388 0.257812H-25.8145V271.075H484.388V0.257812Z" fill="white"/>
</mask>
<g mask="url(#mask36_1727_1842)">
<path d="M92.024 163.26C92.024 163.26 94.3569 167.879 94.0657 171.627C94.0657 171.627 91.2525 176.028 83.957 177.142C83.957 177.142 90.2296 163.256 92.024 163.26Z" fill="#E73133"/>
</g>
<mask id="mask37_1727_1842" style="mask-type:luminance" maskUnits="userSpaceOnUse" x="-26" y="0" width="511" height="272">
<path d="M484.388 0.257812H-25.8145V271.075H484.388V0.257812Z" fill="white"/>
</mask>
<g mask="url(#mask37_1727_1842)">
<path d="M56.4324 188.726L56.4793 186.161C51.3217 186.806 38.6956 180.053 38.6956 180.053C38.6956 180.053 33.3 183.61 32.5614 193.767C32.2008 198.725 29.9199 219.692 29.6677 225.953C29.5755 228.222 29.5451 229.842 29.5346 230.489C29.5359 230.492 29.5355 230.495 29.5355 230.495C29.5323 230.692 29.4387 230.867 29.316 231.023C28.2489 232.367 27.323 233.792 26.5215 235.269C18.6514 249.781 22.767 269.5 22.767 269.5L24.5946 269.039C24.5946 269.039 31.2492 248.597 35.5984 239.755C36.3364 238.255 37.0071 237.089 37.5681 236.414C39.2033 234.445 40.9277 231.102 42.6275 227.079C45.8402 219.473 56.4324 188.726 56.4324 188.726Z" fill="#333333"/>
</g>
<mask id="mask38_1727_1842" style="mask-type:luminance" maskUnits="userSpaceOnUse" x="-26" y="0" width="511" height="272">
<path d="M484.388 0.257812H-25.8145V271.075H484.388V0.257812Z" fill="white"/>
</mask>
<g mask="url(#mask38_1727_1842)">
<path d="M33.7742 270.053H19.9335C19.9335 270.053 19.6015 267.962 20.3246 266.376C21.0174 264.853 22.1022 264.162 21.8426 262.32C22.7219 263.218 24.1554 264.223 26.1564 263.956C26.4016 264.35 27.7392 266.458 28.5579 267.041C29.4625 267.685 33.4957 267.456 33.7742 270.053Z" fill="#333333"/>
</g>
<mask id="mask39_1727_1842" style="mask-type:luminance" maskUnits="userSpaceOnUse" x="-26" y="0" width="511" height="272">
<path d="M484.388 0.257812H-25.8145V271.075H484.388V0.257812Z" fill="white"/>
</mask>
<g mask="url(#mask39_1727_1842)">
<path d="M83.0236 180.086C81.1644 180.401 83.3272 181.865 80.7695 182.141C77.1309 182.535 73.3728 182.804 71.4042 183.582C70.6866 183.865 70.2063 184.216 70.0561 184.665C69.2033 187.207 63.7993 191.576 63.7993 191.576C39.6987 190.489 38.1465 179.843 38.1465 179.843C53.7883 164.788 67.0953 156.581 78.0933 155.565C80.7695 155.318 84.3775 155.65 86.0707 156.397C89.9167 158.094 92.0247 163.258 92.0247 163.258C92.0247 163.258 90.0876 178.893 83.0236 180.086Z" fill="#CC1517"/>
</g>
<mask id="mask40_1727_1842" style="mask-type:luminance" maskUnits="userSpaceOnUse" x="-26" y="0" width="511" height="272">
<path d="M484.388 0.257812H-25.8145V271.075H484.388V0.257812Z" fill="white"/>
</mask>
<g mask="url(#mask40_1727_1842)">
<path d="M80.7695 182.141C77.1309 182.535 73.3728 182.804 71.4042 183.583C70.6003 171.67 76.2723 162.709 76.2723 162.709C76.2723 162.709 79.9723 177.633 80.7695 182.141Z" fill="#E73133"/>
</g>
<mask id="mask41_1727_1842" style="mask-type:luminance" maskUnits="userSpaceOnUse" x="-26" y="0" width="511" height="272">
<path d="M484.388 0.257812H-25.8145V271.075H484.388V0.257812Z" fill="white"/>
</mask>
<g mask="url(#mask41_1727_1842)">
<path d="M83.9093 160.693C83.9093 160.693 74.7572 160.197 73.1312 165.892C71.5052 171.587 76.1816 194.317 77.1896 196.663C79.0255 200.935 88.278 213.656 88.278 213.656L91.2446 212.134C91.2446 212.134 85.2873 193.51 83.9575 191.668C81.8702 188.774 86.6487 163.17 83.9093 160.693Z" fill="#E4BFC1"/>
</g>
<mask id="mask42_1727_1842" style="mask-type:luminance" maskUnits="userSpaceOnUse" x="-26" y="0" width="511" height="272">
<path d="M484.388 0.257812H-25.8145V271.075H484.388V0.257812Z" fill="white"/>
</mask>
<g mask="url(#mask42_1727_1842)">
<path d="M91.2435 212.135C91.2435 212.135 92.0083 212.794 92.6239 213.539C93.2395 214.285 92.6977 214.554 94.4664 217.93C94.4664 217.93 94.376 218.398 93.9919 218.313C93.6078 218.227 92.2738 216.918 91.5886 217.012C91.5886 217.012 91.0999 217.411 91.0468 218.735C90.9962 219.972 90.9929 222.71 90.7756 223.224C90.5582 223.738 88.9695 221.067 88.188 219.138C87.5028 217.446 88.1706 211.738 88.1706 211.738L91.2435 212.135Z" fill="#E4BFC1"/>
</g>
<mask id="mask43_1727_1842" style="mask-type:luminance" maskUnits="userSpaceOnUse" x="-26" y="0" width="511" height="272">
<path d="M484.388 0.257812H-25.8145V271.075H484.388V0.257812Z" fill="white"/>
</mask>
<g mask="url(#mask43_1727_1842)">
<path d="M71.3262 173.508C71.3502 173.641 79.9872 175.083 85.3895 172.365C85.3895 172.365 89.9025 158.353 83.4532 159.023C77.0039 159.694 73.1845 161.707 73.0227 164.767C72.8593 167.827 71.3262 173.508 71.3262 173.508Z" fill="#CC1517"/>
</g>
<mask id="mask44_1727_1842" style="mask-type:luminance" maskUnits="userSpaceOnUse" x="-26" y="0" width="511" height="272">
<path d="M484.388 0.257812H-25.8145V271.075H484.388V0.257812Z" fill="white"/>
</mask>
<g mask="url(#mask44_1727_1842)">
<path d="M85.8637 157.379C85.9575 158.512 86.1027 159.84 87.6001 161.369C88.7474 162.539 90.4049 163.453 91.5697 162.299C92.1637 161.711 92.9651 160.834 93.3708 160.143C94.3779 158.429 95.5758 156.677 95.5758 156.677L90.3958 152.179L90.0864 151.91C88.73 154.259 87.396 155.387 86.2279 156.25C85.8753 156.511 85.8272 156.944 85.8637 157.379Z" fill="#E4BFC1"/>
</g>
<mask id="mask45_1727_1842" style="mask-type:luminance" maskUnits="userSpaceOnUse" x="-26" y="0" width="511" height="272">
<path d="M484.388 0.257812H-25.8145V271.075H484.388V0.257812Z" fill="white"/>
</mask>
<g mask="url(#mask45_1727_1842)">
<path d="M95.5756 156.679C95.5756 156.679 94.3777 158.427 93.3714 160.143C90.1517 158.176 90.1484 154.226 90.3965 152.18L95.5756 156.679Z" fill="#F8D6D8"/>
</g>
<mask id="mask46_1727_1842" style="mask-type:luminance" maskUnits="userSpaceOnUse" x="-26" y="0" width="511" height="272">
<path d="M484.388 0.257812H-25.8145V271.075H484.388V0.257812Z" fill="white"/>
</mask>
<g mask="url(#mask46_1727_1842)">
<path d="M95.7193 158.933C95.7193 158.933 87.9012 154.621 90.6853 149.838C93.4695 145.055 94.3356 141.277 99.4442 143.827C104.554 146.377 104.453 148.752 103.915 150.572C103.377 152.393 97.8249 159.931 95.7193 158.933Z" fill="#E4BFC1"/>
</g>
<mask id="mask47_1727_1842" style="mask-type:luminance" maskUnits="userSpaceOnUse" x="-26" y="0" width="511" height="272">
<path d="M484.388 0.257812H-25.8145V271.075H484.388V0.257812Z" fill="white"/>
</mask>
<g mask="url(#mask47_1727_1842)">
<path d="M105.237 147.783C104.879 145.659 103.79 145.456 103.031 145.598C100.144 140.866 95.427 142.712 95.427 142.712C92.9084 145.846 89.2656 146.381 89.2656 146.381C89.2656 146.381 90.1732 148.054 93.9105 149.089C95.0529 149.405 96.3479 149.214 97.5981 148.796C95.0048 150.23 92.2928 150.779 92.2928 150.779C97.219 151.226 101.905 146.762 102.392 146.285C102.618 146.976 103.017 148.424 102.778 149.484C102.454 150.922 101.165 153.527 101.953 153.865C101.953 153.865 105.774 150.968 105.237 147.783Z" fill="#333333"/>
</g>
<mask id="mask48_1727_1842" style="mask-type:luminance" maskUnits="userSpaceOnUse" x="-26" y="0" width="511" height="272">
<path d="M484.388 0.257812H-25.8145V271.075H484.388V0.257812Z" fill="white"/>
</mask>
<g mask="url(#mask48_1727_1842)">
<path d="M115.491 198.955C115.491 198.955 113.309 200.577 114.953 201.637C116.598 202.697 119.533 202.984 119.544 202.288C119.585 199.954 118.41 198.293 115.491 198.955Z" fill="#E4BFC1"/>
</g>
<mask id="mask49_1727_1842" style="mask-type:luminance" maskUnits="userSpaceOnUse" x="-26" y="0" width="511" height="272">
<path d="M484.388 0.257812H-25.8145V271.075H484.388V0.257812Z" fill="white"/>
</mask>
<g mask="url(#mask49_1727_1842)">
<path d="M167.73 108.564L165.792 105.728C163.714 102.688 160.187 100.697 156.878 100.697H135.564L139.263 114.101L153.939 167.288C154.597 169.671 156.782 171.324 159.276 171.324H235.973C239.623 171.324 242.273 167.884 241.311 164.395L227.432 114.101H177.539C173.898 114.101 170.017 111.91 167.73 108.564Z" fill="#CC1517"/>
</g>
<mask id="mask50_1727_1842" style="mask-type:luminance" maskUnits="userSpaceOnUse" x="-26" y="0" width="511" height="272">
<path d="M484.388 0.257812H-25.8145V271.075H484.388V0.257812Z" fill="white"/>
</mask>
<g mask="url(#mask50_1727_1842)">
<path d="M169.94 92.609C169.606 92.9878 169.563 93.4123 169.728 93.865C169.728 93.865 169.73 93.87 169.732 93.8717C170.038 94.7091 171.047 95.6453 172.22 96.5799C172.371 96.6995 172.504 96.8091 172.62 96.9105C172.651 96.9362 172.682 96.9628 172.71 96.9894C172.734 97.0102 172.756 97.0318 172.78 97.0517C173.873 98.0519 173.462 98.2812 175.428 100.311C177.669 102.623 179.212 102.666 179.652 102.456C180.024 102.276 179.269 101.05 178.433 99.671C178.393 99.6045 178.353 99.5373 178.311 99.47C178.2 99.2864 178.089 99.1003 177.979 98.9159C176.999 97.2569 177.251 96.4785 177.484 94.0104C177.674 92.0042 180.638 82.8036 180.638 82.8036L176.34 82.0684C176.34 82.0684 175.044 89.3949 173.617 90.523C172.855 91.1245 172.001 91.1311 171.269 91.5772C171.217 91.6079 171.166 91.6395 171.116 91.6727C170.7 91.9461 170.276 92.2285 169.94 92.609Z" fill="#E4BFC1"/>
</g>
<mask id="mask51_1727_1842" style="mask-type:luminance" maskUnits="userSpaceOnUse" x="-26" y="0" width="511" height="272">
<path d="M484.388 0.257812H-25.8145V271.075H484.388V0.257812Z" fill="white"/>
</mask>
<g mask="url(#mask51_1727_1842)">
<path d="M169.94 92.6101C169.606 92.9889 169.563 93.4134 169.728 93.8661C169.728 93.8661 169.73 93.8711 169.732 93.8728C170.106 94.7093 171.091 95.6406 172.225 96.5726C172.373 96.6939 172.504 96.8061 172.62 96.9116C172.651 96.9373 172.682 96.9639 172.71 96.9905C172.734 97.0113 172.756 97.0328 172.78 97.0528C173.873 98.053 173.462 98.2823 175.428 100.312C177.669 102.624 179.212 102.667 179.652 102.457C180.024 102.277 179.269 101.051 178.433 99.6721C177.997 99.5134 175.969 98.696 174.437 96.7521C173.136 95.1056 172.254 93.008 171.369 91.7203C171.271 91.7021 171.214 91.6921 171.116 91.6738C170.7 91.9471 170.276 92.2296 169.94 92.6101Z" fill="#384756"/>
</g>
<mask id="mask52_1727_1842" style="mask-type:luminance" maskUnits="userSpaceOnUse" x="-26" y="0" width="511" height="272">
<path d="M484.388 0.257812H-25.8145V271.075H484.388V0.257812Z" fill="white"/>
</mask>
<g mask="url(#mask52_1727_1842)">
<path d="M204.592 89.9615C204.857 91.2757 206.747 91.0572 208.86 90.5463C210.972 90.0363 210.47 90.6435 213.476 90.3154C216.483 89.9864 217.394 88.8757 217.486 88.4321C217.568 88.04 216.083 87.9005 214.489 87.7177C214.289 87.6953 214.088 87.6712 213.887 87.6463C212.088 87.422 210.771 86.2706 209.136 85.326C207.589 84.4305 205.281 80.7832 205.281 80.7832L201.158 81.1054C201.158 81.1054 203.32 84.3632 204.156 85.7788C204.648 86.612 204.622 87.7136 204.56 88.5642C204.529 89.0261 204.497 89.4988 204.592 89.9615Z" fill="#E4BFC1"/>
</g>
<mask id="mask53_1727_1842" style="mask-type:luminance" maskUnits="userSpaceOnUse" x="-26" y="0" width="511" height="272">
<path d="M484.388 0.257812H-25.8145V271.075H484.388V0.257812Z" fill="white"/>
</mask>
<g mask="url(#mask53_1727_1842)">
<path d="M208.859 90.5454C210.971 90.0354 210.469 90.6426 213.475 90.3145C216.482 89.9855 217.393 88.8748 217.485 88.4312C217.567 88.0391 216.081 87.8996 214.487 87.7168L214.473 87.7475C214.473 87.7475 212.67 89.0136 210.168 89.0725C208.128 89.1207 205.968 88.5409 204.559 88.5633C204.527 89.0252 204.496 89.4979 204.59 89.9606C204.855 91.2748 206.746 91.0563 208.859 90.5454Z" fill="#384756"/>
</g>
<mask id="mask54_1727_1842" style="mask-type:luminance" maskUnits="userSpaceOnUse" x="-26" y="0" width="511" height="272">
<path d="M484.388 0.257812H-25.8145V271.075H484.388V0.257812Z" fill="white"/>
</mask>
<g mask="url(#mask54_1727_1842)">
<path d="M188.801 63.8274L184.943 74.1046L179.906 87.5237C179.906 87.5237 178.541 87.6542 177.233 87.2803C176.03 86.9356 174.648 86.0326 174.648 86.0326C174.648 86.0326 176.05 71.6228 178.66 63.352C179.329 61.2288 180.078 59.5118 180.904 58.5452C184.946 53.814 188.801 63.8274 188.801 63.8274Z" fill="#333333"/>
</g>
<mask id="mask55_1727_1842" style="mask-type:luminance" maskUnits="userSpaceOnUse" x="-26" y="0" width="511" height="272">
<path d="M484.388 0.257812H-25.8145V271.075H484.388V0.257812Z" fill="white"/>
</mask>
<g mask="url(#mask55_1727_1842)">
<path d="M184.888 47.5036C182.693 46.8016 176.969 47.4901 170.759 48.6017C169.044 48.909 167.315 48.1319 166.412 46.6541L150.787 45.4395C150.787 45.4395 145.626 56.7701 148.447 63.9921C148.861 65.0534 149.771 65.7161 151.177 65.7389C151.176 65.7383 151.177 65.7396 151.177 65.7389C151.177 65.7389 160.619 65.755 163.639 65.7563C171.41 65.759 180.087 60.4678 181.209 60.2455C183.046 59.8822 183.779 63.5234 185.615 67.3468C187.45 71.1704 202.876 84.2827 202.876 84.2827C202.876 84.2827 205.247 84.3076 206.226 83.9437C207.28 83.5525 207.666 83.0437 207.666 83.0437C207.666 83.0437 190.58 49.3261 184.888 47.5036Z" fill="#CC1517"/>
</g>
<mask id="mask56_1727_1842" style="mask-type:luminance" maskUnits="userSpaceOnUse" x="-26" y="0" width="511" height="272">
<path d="M484.388 0.257812H-25.8145V271.075H484.388V0.257812Z" fill="white"/>
</mask>
<g mask="url(#mask56_1727_1842)">
<path d="M184.888 47.5036C182.693 46.8016 176.969 47.4901 170.759 48.6017C169.044 48.909 167.315 48.1319 166.412 46.6541L150.787 45.4395C150.787 45.4395 145.626 56.7701 148.447 63.9921C148.861 65.0534 149.771 65.7161 151.177 65.7389C151.176 65.7383 151.177 65.7396 151.177 65.7389C151.177 65.7389 160.619 65.755 163.639 65.7563C171.41 65.759 180.087 60.4678 181.209 60.2455C183.046 59.8822 183.779 63.5234 185.615 67.3468C187.45 71.1704 202.876 84.2827 202.876 84.2827C202.876 84.2827 205.247 84.3076 206.226 83.9437C207.28 83.5525 207.666 83.0437 207.666 83.0437C207.666 83.0437 190.58 49.3261 184.888 47.5036Z" fill="#333333"/>
</g>
<mask id="mask57_1727_1842" style="mask-type:luminance" maskUnits="userSpaceOnUse" x="-26" y="0" width="511" height="272">
<path d="M484.388 0.257812H-25.8145V271.075H484.388V0.257812Z" fill="white"/>
</mask>
<g mask="url(#mask57_1727_1842)">
<path d="M164.767 1.17706C163.607 0.492036 162.476 0.387019 161.783 0.406344C161.301 0.419868 160.819 0.388815 160.342 0.319287C154.378 -0.549483 150.784 8.03445 150.572 10.6284C150.184 15.3907 147.642 16.1159 144.063 19.0976C136.886 25.0755 138.987 32.0256 142.91 34.609C145.263 36.1591 149.413 34.6109 149.413 34.6109C149.472 34.6517 160.762 28.361 166.327 25.3265C174.669 24.154 168.118 3.15548 164.767 1.17706Z" fill="#333333"/>
</g>
<mask id="mask58_1727_1842" style="mask-type:luminance" maskUnits="userSpaceOnUse" x="-26" y="0" width="511" height="272">
<path d="M484.388 0.257812H-25.8145V271.075H484.388V0.257812Z" fill="white"/>
</mask>
<g mask="url(#mask58_1727_1842)">
<path d="M161.665 22.7394C161.689 22.7551 158.926 23.6887 157.079 22.8774C155.342 22.1158 154.027 19.2821 154.053 19.2806C154.844 19.2448 155.711 18.5601 156.381 14.0664L156.718 14.1862L162.376 16.2063C162.376 16.2063 161.966 18.0057 161.7 19.7192C161.476 21.1577 161.355 22.5357 161.665 22.7394Z" fill="#E4BFC1"/>
</g>
<mask id="mask59_1727_1842" style="mask-type:luminance" maskUnits="userSpaceOnUse" x="-26" y="0" width="511" height="272">
<path d="M484.388 0.257812H-25.8145V271.075H484.388V0.257812Z" fill="white"/>
</mask>
<g mask="url(#mask59_1727_1842)">
<path d="M162.375 16.2076C162.375 16.2076 162.149 17.1786 161.819 18.9922C158.568 18.4115 157.174 15.9293 156.717 14.1875L162.375 16.2076Z" fill="#F8D6D8"/>
</g>
<mask id="mask60_1727_1842" style="mask-type:luminance" maskUnits="userSpaceOnUse" x="-26" y="0" width="511" height="272">
<path d="M484.388 0.257812H-25.8145V271.075H484.388V0.257812Z" fill="white"/>
</mask>
<g mask="url(#mask60_1727_1842)">
<path d="M163.219 17.9932C163.219 17.9932 155.477 16.9606 156.2 12.1919C156.923 7.4232 156.411 4.07834 161.384 4.53598C166.358 4.99371 167.04 6.95606 167.19 8.60588C167.34 10.2558 165.252 18.1387 163.219 17.9932Z" fill="#E4BFC1"/>
</g>
<mask id="mask61_1727_1842" style="mask-type:luminance" maskUnits="userSpaceOnUse" x="-26" y="0" width="511" height="272">
<path d="M484.388 0.257812H-25.8145V271.075H484.388V0.257812Z" fill="white"/>
</mask>
<g mask="url(#mask61_1727_1842)">
<path d="M166.908 5.99299C166.908 5.99299 161.951 10.2247 158.579 10.5648C155.208 10.9049 153.932 9.83195 153.932 9.83195C153.932 9.83195 155.919 8.19743 157.116 5.55903C157.468 4.78158 158.214 4.24756 159.071 4.17455C161.478 3.96944 166.042 3.877 166.908 5.99299Z" fill="#333333"/>
</g>
<mask id="mask62_1727_1842" style="mask-type:luminance" maskUnits="userSpaceOnUse" x="-26" y="0" width="511" height="272">
<path d="M484.388 0.257812H-25.8145V271.075H484.388V0.257812Z" fill="white"/>
</mask>
<g mask="url(#mask62_1727_1842)">
<path d="M163.811 5.61266C163.811 5.61266 165.468 7.20215 165.99 8.38082C166.493 9.51837 166.644 12.2384 166.241 13.3186C166.241 13.3186 168.827 8.34087 167.365 5.92151C165.815 3.35601 163.811 5.61266 163.811 5.61266Z" fill="#333333"/>
</g>
<mask id="mask63_1727_1842" style="mask-type:luminance" maskUnits="userSpaceOnUse" x="-26" y="0" width="511" height="272">
<path d="M484.388 0.257812H-25.8145V271.075H484.388V0.257812Z" fill="white"/>
</mask>
<g mask="url(#mask63_1727_1842)">
<path d="M168.179 34.0471C167.94 49.5804 168.111 46.3347 166.397 47.808C165.983 48.1626 164.821 48.3737 163.293 48.4732C158.487 48.7879 150.039 48.0003 149.718 47.12C148.61 44.074 149.393 43.128 148.47 38.4647C148.374 37.9688 148.255 37.432 148.115 36.8472C147.345 33.6442 146.595 32.5546 149.332 27.4103C151.815 22.7506 154.393 18.9684 154.625 19.1052C161.169 22.9582 161.699 19.7216 161.699 19.7216C161.699 19.7216 168.297 26.4705 168.179 34.0471Z" fill="#CC1517"/>
</g>
<mask id="mask64_1727_1842" style="mask-type:luminance" maskUnits="userSpaceOnUse" x="-26" y="0" width="511" height="272">
<path d="M484.388 0.257812H-25.8145V271.075H484.388V0.257812Z" fill="white"/>
</mask>
<g mask="url(#mask64_1727_1842)">
<path d="M184.943 74.1043L179.906 87.5234C179.906 87.5234 178.541 87.6538 177.233 87.28C176.03 86.9352 174.648 86.0322 174.648 86.0322C174.648 86.0322 176.05 71.6225 178.66 63.3516L184.943 74.1043Z" fill="#333333"/>
</g>
<mask id="mask65_1727_1842" style="mask-type:luminance" maskUnits="userSpaceOnUse" x="-26" y="0" width="511" height="272">
<path d="M484.388 0.257812H-25.8145V271.075H484.388V0.257812Z" fill="white"/>
</mask>
<g mask="url(#mask65_1727_1842)">
<path d="M161.699 19.7207C161.699 19.7207 168.435 20.8546 169.224 23.7291C170.014 26.6031 172.612 44.0487 172.612 44.0487C172.612 44.0487 170.712 45.8862 169.131 44.3179C167.55 42.7498 164.158 27.9947 164.158 27.9947L161.699 19.7207Z" fill="#CC1517"/>
</g>
<mask id="mask66_1727_1842" style="mask-type:luminance" maskUnits="userSpaceOnUse" x="-26" y="0" width="511" height="272">
<path d="M484.388 0.257812H-25.8145V271.075H484.388V0.257812Z" fill="white"/>
</mask>
<g mask="url(#mask66_1727_1842)">
<path d="M163.293 48.4731C158.488 48.7878 150.039 48.0002 149.718 47.1198C148.611 44.0738 149.394 43.1279 148.471 38.4646L150.791 31.9961C150.791 31.9961 150.405 39.1998 152.548 41.0953C154.689 42.9907 161.324 44.7559 162.365 46.3392C162.868 47.0993 163.198 47.8613 163.293 48.4731Z" fill="#E73133"/>
</g>
<mask id="mask67_1727_1842" style="mask-type:luminance" maskUnits="userSpaceOnUse" x="-26" y="0" width="511" height="272">
<path d="M484.388 0.257812H-25.8145V271.075H484.388V0.257812Z" fill="white"/>
</mask>
<g mask="url(#mask67_1727_1842)">
<path d="M157.787 45.4404C157.787 45.4404 162.529 44.3961 163.294 44.8132C164.059 45.2304 165.929 46.7496 166.162 47.2783C166.397 47.8069 164.46 46.8766 163.829 46.7088C163.421 46.6002 162.347 46.9696 161.815 47.1454C159.577 47.8838 158.206 47.5032 158.206 47.5032L157.787 45.4404Z" fill="#E4BFC1"/>
</g>
<mask id="mask68_1727_1842" style="mask-type:luminance" maskUnits="userSpaceOnUse" x="-26" y="0" width="511" height="272">
<path d="M484.388 0.257812H-25.8145V271.075H484.388V0.257812Z" fill="white"/>
</mask>
<g mask="url(#mask68_1727_1842)">
<path d="M154.622 19.1016C154.622 19.1016 148.256 19.4881 146.05 22.5337C142.946 26.821 136.785 45.095 140.312 47.5337C144.283 50.2801 158.39 48.2581 158.39 48.2581C158.39 48.2581 158.859 46.0835 158.207 45.0313C157.554 43.9794 146.941 42.2767 146.452 41.7911C145.963 41.3055 152.579 32.3263 152.579 30.87C152.579 29.4134 154.622 19.1016 154.622 19.1016Z" fill="#CC1517"/>
</g>
<mask id="mask69_1727_1842" style="mask-type:luminance" maskUnits="userSpaceOnUse" x="-26" y="0" width="511" height="272">
<path d="M484.388 0.257812H-25.8145V271.075H484.388V0.257812Z" fill="white"/>
</mask>
<g mask="url(#mask69_1727_1842)">
<path d="M163.523 46.1211C163.523 46.1211 164.516 47.3914 164.842 47.5429C165.168 47.6946 165.378 47.6569 165.378 47.6569L164.71 46.4624L163.523 46.1211Z" fill="#D6ACAE"/>
</g>
<mask id="mask70_1727_1842" style="mask-type:luminance" maskUnits="userSpaceOnUse" x="-26" y="0" width="511" height="272">
<path d="M484.388 0.257812H-25.8145V271.075H484.388V0.257812Z" fill="white"/>
</mask>
<g mask="url(#mask70_1727_1842)">
<path d="M163.295 44.8145L166.183 46.2054C166.183 46.2054 166.06 46.4046 165.704 46.3884C165.349 46.3723 164.452 46.0468 164.452 46.0468L163.295 44.8145Z" fill="#D6ACAE"/>
</g>
<mask id="mask71_1727_1842" style="mask-type:luminance" maskUnits="userSpaceOnUse" x="-26" y="0" width="511" height="272">
<path d="M484.388 0.257812H-25.8145V271.075H484.388V0.257812Z" fill="white"/>
</mask>
<g mask="url(#mask71_1727_1842)">
<path d="M187.959 48.0907L157.788 48.0801L157.787 48.7401L187.691 48.7505L187.959 48.0907Z" fill="#233862"/>
</g>
<mask id="mask72_1727_1842" style="mask-type:luminance" maskUnits="userSpaceOnUse" x="-26" y="0" width="511" height="272">
<path d="M484.388 0.257812H-25.8145V271.075H484.388V0.257812Z" fill="white"/>
</mask>
<g mask="url(#mask72_1727_1842)">
<path d="M164.844 48.7414L187.691 48.7492L194.57 31.8125L171.758 31.8047L164.844 48.7414Z" fill="#505050"/>
</g>
<mask id="mask73_1727_1842" style="mask-type:luminance" maskUnits="userSpaceOnUse" x="-26" y="0" width="511" height="272">
<path d="M484.388 0.257812H-25.8145V271.075H484.388V0.257812Z" fill="white"/>
</mask>
<g mask="url(#mask73_1727_1842)">
<path d="M181.925 40.2776C182.098 39.6821 181.75 39.1995 181.15 39.1992C180.549 39.199 179.922 39.6813 179.749 40.2768C179.577 40.8723 179.924 41.355 180.525 41.3554C181.126 41.3556 181.753 40.8729 181.925 40.2776Z" fill="white"/>
</g>
<mask id="mask74_1727_1842" style="mask-type:luminance" maskUnits="userSpaceOnUse" x="-26" y="0" width="511" height="272">
<path d="M484.388 0.257812H-25.8145V271.075H484.388V0.257812Z" fill="white"/>
</mask>
<g mask="url(#mask74_1727_1842)">
<g opacity="0.5">
<path d="M294.624 104.742L288.304 96.7416L288.006 96.3644L287.65 96.2996L258.483 90.9805L248.668 143.853L286.479 150.748L294.876 105.518L294.945 105.149L294.624 104.742Z" fill="#C5C5C5"/>
</g>
</g>
<mask id="mask75_1727_1842" style="mask-type:luminance" maskUnits="userSpaceOnUse" x="-26" y="0" width="511" height="272">
<path d="M484.388 0.257812H-25.8145V271.075H484.388V0.257812Z" fill="white"/>
</mask>
<g mask="url(#mask75_1727_1842)">
<path d="M275.654 88.3389L275.668 88.7152L277.467 134.669L239.049 136.146L236.947 82.4262L266.581 81.2876L266.943 81.2734L267.317 81.5771L275.251 88.0124L275.654 88.3389Z" fill="#EEEEEE"/>
</g>
<mask id="mask76_1727_1842" style="mask-type:luminance" maskUnits="userSpaceOnUse" x="-26" y="0" width="511" height="272">
<path d="M484.388 0.257812H-25.8145V271.075H484.388V0.257812Z" fill="white"/>
</mask>
<g mask="url(#mask76_1727_1842)">
<path d="M250.381 101.498L186.269 105.039C186.139 105.046 186.04 105.156 186.047 105.285L190.726 188.489C190.733 188.618 190.844 188.716 190.973 188.708L254.994 185.173C255.124 185.165 255.223 185.056 255.216 184.927L250.532 101.631C250.527 101.553 250.46 101.493 250.381 101.498Z" fill="#314150"/>
</g>
<mask id="mask77_1727_1842" style="mask-type:luminance" maskUnits="userSpaceOnUse" x="-26" y="0" width="511" height="272">
<path d="M484.388 0.257812H-25.8145V271.075H484.388V0.257812Z" fill="white"/>
</mask>
<g mask="url(#mask77_1727_1842)">
<path d="M250.264 182.545L195.958 185.922C194.329 186.024 192.925 184.797 192.823 183.183L188.193 110.05C188.091 108.436 189.329 107.045 190.958 106.944L245.264 103.566C246.892 103.465 248.296 104.692 248.398 106.306L253.029 179.438C253.131 181.053 251.893 182.443 250.264 182.545Z" fill="#EEEEEE"/>
</g>
<mask id="mask78_1727_1842" style="mask-type:luminance" maskUnits="userSpaceOnUse" x="-26" y="0" width="511" height="272">
<path d="M484.388 0.257812H-25.8145V271.075H484.388V0.257812Z" fill="white"/>
</mask>
<g mask="url(#mask78_1727_1842)">
<path d="M228.831 115.63L194.669 117.754C194.652 117.755 194.637 117.742 194.636 117.725L194.582 116.879C194.581 116.862 194.595 116.847 194.612 116.846L228.774 114.721C228.791 114.72 228.806 114.732 228.808 114.75L228.861 115.596C228.863 115.613 228.849 115.629 228.831 115.63Z" fill="#C0C0C0"/>
</g>
<mask id="mask79_1727_1842" style="mask-type:luminance" maskUnits="userSpaceOnUse" x="-26" y="0" width="511" height="272">
<path d="M484.388 0.257812H-25.8145V271.075H484.388V0.257812Z" fill="white"/>
</mask>
<g mask="url(#mask79_1727_1842)">
<path d="M229.292 122.899L195.13 125.023C195.113 125.025 195.098 125.012 195.097 124.994L195.043 124.149C195.042 124.131 195.055 124.116 195.073 124.115L229.235 121.99C229.252 121.989 229.267 122.003 229.268 122.02L229.322 122.866C229.323 122.883 229.31 122.898 229.292 122.899Z" fill="#C0C0C0"/>
</g>
<mask id="mask80_1727_1842" style="mask-type:luminance" maskUnits="userSpaceOnUse" x="-26" y="0" width="511" height="272">
<path d="M484.388 0.257812H-25.8145V271.075H484.388V0.257812Z" fill="white"/>
</mask>
<g mask="url(#mask80_1727_1842)">
<path d="M242.114 118.452L194.9 121.388C194.882 121.389 194.867 121.376 194.866 121.359L194.813 120.513C194.811 120.495 194.825 120.48 194.842 120.48L242.056 117.543C242.073 117.542 242.088 117.555 242.09 117.572L242.143 118.419C242.144 118.436 242.131 118.451 242.114 118.452Z" fill="#C0C0C0"/>
</g>
<mask id="mask81_1727_1842" style="mask-type:luminance" maskUnits="userSpaceOnUse" x="-26" y="0" width="511" height="272">
<path d="M484.388 0.257812H-25.8145V271.075H484.388V0.257812Z" fill="white"/>
</mask>
<g mask="url(#mask81_1727_1842)">
<path d="M221.036 146.008L197.792 147.454C197.778 147.455 197.766 147.444 197.765 147.43L197.711 146.573C197.71 146.558 197.721 146.546 197.735 146.545L220.978 145.1C220.993 145.099 221.005 145.11 221.006 145.124L221.06 145.981C221.061 145.995 221.05 146.008 221.036 146.008Z" fill="#C0C0C0"/>
</g>
<mask id="mask82_1727_1842" style="mask-type:luminance" maskUnits="userSpaceOnUse" x="-26" y="0" width="511" height="272">
<path d="M484.388 0.257812H-25.8145V271.075H484.388V0.257812Z" fill="white"/>
</mask>
<g mask="url(#mask82_1727_1842)">
<path d="M229.69 141.821L197.563 143.819C197.549 143.82 197.536 143.809 197.534 143.795L197.481 142.937C197.48 142.923 197.49 142.911 197.505 142.91L229.632 140.912C229.646 140.911 229.659 140.922 229.66 140.936L229.714 141.794C229.715 141.808 229.704 141.82 229.69 141.821Z" fill="#C0C0C0"/>
</g>
<mask id="mask83_1727_1842" style="mask-type:luminance" maskUnits="userSpaceOnUse" x="-26" y="0" width="511" height="272">
<path d="M484.388 0.257812H-25.8145V271.075H484.388V0.257812Z" fill="white"/>
</mask>
<g mask="url(#mask83_1727_1842)">
<path d="M232.058 149.383L197.896 151.508C197.878 151.509 197.863 151.496 197.862 151.479L197.809 150.633C197.808 150.615 197.821 150.6 197.839 150.6L232.001 148.475C232.018 148.474 232.033 148.487 232.034 148.505L232.088 149.35C232.088 149.368 232.075 149.383 232.058 149.383Z" fill="#C0C0C0"/>
</g>
<mask id="mask84_1727_1842" style="mask-type:luminance" maskUnits="userSpaceOnUse" x="-26" y="0" width="511" height="272">
<path d="M484.388 0.257812H-25.8145V271.075H484.388V0.257812Z" fill="white"/>
</mask>
<g mask="url(#mask84_1727_1842)">
<path d="M236.109 152.78L198.124 155.143C198.108 155.143 198.094 155.132 198.093 155.116L198.039 154.264C198.038 154.248 198.05 154.235 198.066 154.234L236.052 151.871C236.068 151.87 236.081 151.882 236.082 151.898L236.136 152.75C236.137 152.766 236.125 152.779 236.109 152.78Z" fill="#C0C0C0"/>
</g>
<mask id="mask85_1727_1842" style="mask-type:luminance" maskUnits="userSpaceOnUse" x="-26" y="0" width="511" height="272">
<path d="M484.388 0.257812H-25.8145V271.075H484.388V0.257812Z" fill="white"/>
</mask>
<g mask="url(#mask85_1727_1842)">
<path d="M223.182 159.993L198.733 161.513C198.718 161.514 198.706 161.503 198.705 161.488L198.65 160.633C198.65 160.618 198.661 160.605 198.676 160.604L223.124 159.084C223.138 159.083 223.152 159.094 223.153 159.109L223.206 159.965C223.207 159.98 223.196 159.992 223.182 159.993Z" fill="#C0C0C0"/>
</g>
<mask id="mask86_1727_1842" style="mask-type:luminance" maskUnits="userSpaceOnUse" x="-26" y="0" width="511" height="272">
<path d="M484.388 0.257812H-25.8145V271.075H484.388V0.257812Z" fill="white"/>
</mask>
<g mask="url(#mask86_1727_1842)">
<path d="M223.642 167.26L199.194 168.781C199.179 168.781 199.166 168.771 199.165 168.757L199.111 167.901C199.11 167.886 199.121 167.874 199.136 167.873L223.584 166.352C223.599 166.351 223.612 166.362 223.613 166.377L223.667 167.232C223.668 167.247 223.657 167.26 223.642 167.26Z" fill="#C0C0C0"/>
</g>
<mask id="mask87_1727_1842" style="mask-type:luminance" maskUnits="userSpaceOnUse" x="-26" y="0" width="511" height="272">
<path d="M484.388 0.257812H-25.8145V271.075H484.388V0.257812Z" fill="white"/>
</mask>
<g mask="url(#mask87_1727_1842)">
<path d="M232.755 163.046L198.964 165.147C198.949 165.147 198.936 165.137 198.935 165.122L198.881 164.266C198.88 164.252 198.891 164.239 198.906 164.238L232.698 162.137C232.713 162.135 232.725 162.147 232.726 162.161L232.78 163.017C232.782 163.032 232.77 163.044 232.755 163.046Z" fill="#C0C0C0"/>
</g>
<mask id="mask88_1727_1842" style="mask-type:luminance" maskUnits="userSpaceOnUse" x="-26" y="0" width="511" height="272">
<path d="M484.388 0.257812H-25.8145V271.075H484.388V0.257812Z" fill="white"/>
</mask>
<g mask="url(#mask88_1727_1842)">
<path d="M232.914 97.8732L203.017 99.5247C201.045 99.6335 199.53 101.192 199.632 103.006L199.884 107.484C199.907 107.903 200.295 108.223 200.752 108.198L236.138 106.244C236.594 106.218 236.944 105.858 236.921 105.439L236.668 100.961C236.566 99.1467 234.886 97.7644 232.914 97.8732Z" fill="#CC1517"/>
</g>
<mask id="mask89_1727_1842" style="mask-type:luminance" maskUnits="userSpaceOnUse" x="-26" y="0" width="511" height="272">
<path d="M484.388 0.257812H-25.8145V271.075H484.388V0.257812Z" fill="white"/>
</mask>
<g mask="url(#mask89_1727_1842)">
<path d="M286.932 133.836C286.932 133.836 286.311 132.451 285.908 131.796C285.506 131.14 283.786 129.218 283.493 129.653C283.201 130.088 282.03 133.016 282.652 133.836C283.274 134.656 282.612 136.083 285.705 136.946L286.932 133.836Z" fill="#E4BFC1"/>
</g>
<mask id="mask90_1727_1842" style="mask-type:luminance" maskUnits="userSpaceOnUse" x="-26" y="0" width="511" height="272">
<path d="M484.388 0.257812H-25.8145V271.075H484.388V0.257812Z" fill="white"/>
</mask>
<g mask="url(#mask90_1727_1842)">
<path d="M321.305 125.09C321.305 125.09 305.472 138.188 299.299 136.976C294.471 136.027 286.839 133.628 286.839 133.628C286.839 133.628 284.825 135.527 285.395 137.803C285.395 137.803 295.118 146.871 302.045 146.929C312.873 147.021 317.981 141.611 317.981 141.611L321.305 125.09Z" fill="#CC1517"/>
</g>
<mask id="mask91_1727_1842" style="mask-type:luminance" maskUnits="userSpaceOnUse" x="-26" y="0" width="511" height="272">
<path d="M484.388 0.257812H-25.8145V271.075H484.388V0.257812Z" fill="white"/>
</mask>
<g mask="url(#mask91_1727_1842)">
<path d="M349.073 263.252C349.073 263.252 348.614 270.601 347.179 270.707C346.988 270.72 339.904 270.72 339.904 270.72L330.859 270.668C330.859 270.668 330.918 268.508 333.562 268.051C336.206 267.595 340.631 265.754 342.232 262.291C343.917 258.648 349.073 263.252 349.073 263.252Z" fill="#333333"/>
</g>
<mask id="mask92_1727_1842" style="mask-type:luminance" maskUnits="userSpaceOnUse" x="-26" y="0" width="511" height="272">
<path d="M484.388 0.257812H-25.8145V271.075H484.388V0.257812Z" fill="white"/>
</mask>
<g mask="url(#mask92_1727_1842)">
<path d="M349.596 263.764C349.596 263.764 346.846 264.675 344.699 264.675C342.305 264.675 340.129 264.029 340.129 264.029C340.129 264.029 339.611 259.067 336.763 248.137C335.269 242.408 333.136 235.041 330.103 225.887C321.714 200.589 319.163 185.79 318.93 184.388C318.918 184.314 318.912 184.278 318.912 184.278L318.939 184.265L344.731 173.043C344.731 173.043 341.543 207.909 345.61 221.293C346.18 223.162 346.668 225.342 347.086 227.704C349.655 242.241 349.596 263.764 349.596 263.764Z" fill="#333333"/>
</g>
<mask id="mask93_1727_1842" style="mask-type:luminance" maskUnits="userSpaceOnUse" x="-26" y="0" width="511" height="272">
<path d="M484.388 0.257812H-25.8145V271.075H484.388V0.257812Z" fill="white"/>
</mask>
<g mask="url(#mask93_1727_1842)">
<path d="M336.763 248.137C335.269 242.408 333.137 235.041 330.103 225.887C321.714 200.589 319.163 185.79 318.93 184.388C318.932 184.347 318.935 184.308 318.94 184.265L344.731 173.043C344.731 173.043 341.543 207.909 345.61 221.293C346.18 223.162 336.763 248.137 336.763 248.137Z" fill="#505050"/>
</g>
<mask id="mask94_1727_1842" style="mask-type:luminance" maskUnits="userSpaceOnUse" x="-26" y="0" width="511" height="272">
<path d="M484.388 0.257812H-25.8145V271.075H484.388V0.257812Z" fill="white"/>
</mask>
<g mask="url(#mask94_1727_1842)">
<path d="M328.931 263.252C328.931 263.252 328.47 270.601 327.036 270.707C326.845 270.72 319.76 270.72 319.76 270.72L310.717 270.668C310.717 270.668 310.776 268.508 313.419 268.051C316.063 267.595 320.488 265.754 322.089 262.291C323.774 258.648 328.931 263.252 328.931 263.252Z" fill="#333333"/>
</g>
<mask id="mask95_1727_1842" style="mask-type:luminance" maskUnits="userSpaceOnUse" x="-26" y="0" width="511" height="272">
<path d="M484.388 0.257812H-25.8145V271.075H484.388V0.257812Z" fill="white"/>
</mask>
<g mask="url(#mask95_1727_1842)">
<path d="M314.306 173.865C314.306 173.865 313.971 196.459 317.915 224.2C321.859 251.941 320.523 263.718 320.523 263.718C320.523 263.718 323.233 264.587 324.327 264.676C327.112 264.901 329.97 264.028 329.97 264.028C329.97 264.028 335.616 236.277 333.997 222.391C332.379 208.507 341.728 174.746 341.728 174.746L314.306 173.865Z" fill="#333333"/>
</g>
<mask id="mask96_1727_1842" style="mask-type:luminance" maskUnits="userSpaceOnUse" x="-26" y="0" width="511" height="272">
<path d="M484.388 0.257812H-25.8145V271.075H484.388V0.257812Z" fill="white"/>
</mask>
<g mask="url(#mask96_1727_1842)">
<path d="M332.596 120.991L327.561 124.263L322.975 122.978C322.137 121.792 321.915 119.508 321.903 117.529C321.89 115.564 322.083 113.9 322.083 113.9L328.875 110.929L331.409 109.822C331.402 109.861 331.212 111.884 331.185 112.18C330.712 117.426 332.596 120.991 332.596 120.991Z" fill="#E4BFC1"/>
</g>
<mask id="mask97_1727_1842" style="mask-type:luminance" maskUnits="userSpaceOnUse" x="-26" y="0" width="511" height="272">
<path d="M484.388 0.257812H-25.8145V271.075H484.388V0.257812Z" fill="white"/>
</mask>
<g mask="url(#mask97_1727_1842)">
<path d="M314.19 180.145C320.457 186.142 344.172 185.133 345.634 178.526C347.092 171.92 344.039 122.288 333.336 119.17C331.114 118.523 319.239 122.327 319.239 122.327C319.239 122.327 317.376 127.157 316.154 133.308C315.917 134.506 315.224 147.189 314.706 159.055C314.464 164.604 314.26 169.976 314.155 173.909C314.06 177.594 314.055 180.014 314.19 180.145Z" fill="#E73133"/>
</g>
<mask id="mask98_1727_1842" style="mask-type:luminance" maskUnits="userSpaceOnUse" x="-26" y="0" width="511" height="272">
<path d="M484.388 0.257812H-25.8145V271.075H484.388V0.257812Z" fill="white"/>
</mask>
<g mask="url(#mask98_1727_1842)">
<path d="M330.677 112.273C329.299 114.581 324.464 116.602 321.903 117.528C321.89 115.563 322.083 113.899 322.083 113.899L328.875 110.929C330.376 110.909 331.291 111.242 330.677 112.273Z" fill="#F8D6D8"/>
</g>
<mask id="mask99_1727_1842" style="mask-type:luminance" maskUnits="userSpaceOnUse" x="-26" y="0" width="511" height="272">
<path d="M484.388 0.257812H-25.8145V271.075H484.388V0.257812Z" fill="white"/>
</mask>
<g mask="url(#mask99_1727_1842)">
<path d="M319.52 113.49C319.52 113.49 330.464 116.874 332.486 110.087C334.507 103.3 337.28 99.1653 330.379 96.718C323.476 94.2715 321.341 96.4621 320.111 98.5647C318.88 100.667 316.726 112.435 319.52 113.49Z" fill="#E4BFC1"/>
</g>
<mask id="mask100_1727_1842" style="mask-type:luminance" maskUnits="userSpaceOnUse" x="-26" y="0" width="511" height="272">
<path d="M484.388 0.257812H-25.8145V271.075H484.388V0.257812Z" fill="white"/>
</mask>
<g mask="url(#mask100_1727_1842)">
<path d="M320.541 97.9114C320.541 97.9114 321.238 105.809 322.887 105.467C324.534 105.124 326.349 104.39 326.107 106.771C325.866 109.152 327.71 113.233 330.086 113.223C335.183 113.203 340.721 100.241 339.325 97.7826C335.3 90.6915 314.722 89.2602 320.541 97.9114Z" fill="#333333"/>
</g>
<mask id="mask101_1727_1842" style="mask-type:luminance" maskUnits="userSpaceOnUse" x="-26" y="0" width="511" height="272">
<path d="M484.388 0.257812H-25.8145V271.075H484.388V0.257812Z" fill="white"/>
</mask>
<g mask="url(#mask101_1727_1842)">
<path d="M322.149 119.341C322.29 119.282 330.296 115.723 331.233 116.028C332.168 116.335 333.336 119.169 333.336 119.169L319.238 122.328C319.238 122.328 320.348 120.091 322.149 119.341Z" fill="#CC1517"/>
</g>
<mask id="mask102_1727_1842" style="mask-type:luminance" maskUnits="userSpaceOnUse" x="-26" y="0" width="511" height="272">
<path d="M484.388 0.257812H-25.8145V271.075H484.388V0.257812Z" fill="white"/>
</mask>
<g mask="url(#mask102_1727_1842)">
<path d="M272.307 157.778L317.186 199.654C318.065 200.476 319.175 200.737 319.651 200.236L321.165 198.641C321.641 198.14 321.311 197.058 320.432 196.238L275.553 154.361C274.674 153.541 273.565 153.279 273.088 153.78L271.574 155.375C271.097 155.876 271.428 156.957 272.307 157.778Z" fill="#333333"/>
</g>
<mask id="mask103_1727_1842" style="mask-type:luminance" maskUnits="userSpaceOnUse" x="-26" y="0" width="511" height="272">
<path d="M484.388 0.257812H-25.8145V271.075H484.388V0.257812Z" fill="white"/>
</mask>
<g mask="url(#mask103_1727_1842)">
<path d="M297.492 181.279L317.186 199.655C318.065 200.476 319.175 200.737 319.652 200.236L321.166 198.641C321.642 198.14 321.312 197.059 320.432 196.238L300.738 177.861L297.492 181.279Z" fill="#C5C5C5"/>
</g>
<mask id="mask104_1727_1842" style="mask-type:luminance" maskUnits="userSpaceOnUse" x="-26" y="0" width="511" height="272">
<path d="M484.388 0.257812H-25.8145V271.075H484.388V0.257812Z" fill="white"/>
</mask>
<g mask="url(#mask104_1727_1842)">
<path d="M274.591 107.906C261.28 93.8826 239.02 93.213 224.873 106.406C224.686 106.579 224.501 106.755 224.321 106.933C210.706 120.179 210.219 141.842 223.354 155.682C236.665 169.702 258.928 170.377 273.077 157.185C277.71 152.865 280.9 147.594 282.623 141.967C286.172 130.407 283.546 117.337 274.591 107.906ZM271.174 155.181C262.939 162.861 251.722 165.439 241.483 163.037C235.521 161.637 229.892 158.551 225.379 153.796C213.118 140.879 213.742 120.56 226.774 108.409C231.572 103.935 237.38 101.194 243.421 100.158C253.785 98.3785 264.823 101.631 272.569 109.792C284.833 122.71 284.206 143.03 271.174 155.181Z" fill="#333333"/>
</g>
<mask id="mask105_1727_1842" style="mask-type:luminance" maskUnits="userSpaceOnUse" x="-26" y="0" width="511" height="272">
<path d="M484.388 0.257812H-25.8145V271.075H484.388V0.257812Z" fill="white"/>
</mask>
<g mask="url(#mask105_1727_1842)">
<g opacity="0.5">
<path d="M225.378 153.797C229.892 158.552 235.521 161.638 241.483 163.039C251.721 165.44 262.939 162.861 271.175 155.183C284.207 143.031 284.832 122.711 272.57 109.794C264.823 101.634 253.786 98.3806 243.421 100.16C237.38 101.195 231.571 103.937 226.774 108.41C213.743 120.561 213.117 140.882 225.378 153.797Z" fill="#F2F2F2"/>
</g>
</g>
<mask id="mask106_1727_1842" style="mask-type:luminance" maskUnits="userSpaceOnUse" x="-26" y="0" width="511" height="272">
<path d="M484.388 0.257812H-25.8145V271.075H484.388V0.257812Z" fill="white"/>
</mask>
<g mask="url(#mask106_1727_1842)">
<path d="M314.156 173.909C338.885 156.445 336.828 133.143 336.828 133.143C327.791 138.194 318.822 149.365 314.707 159.055C314.465 164.604 314.261 169.976 314.156 173.909Z" fill="#CC1517"/>
</g>
<mask id="mask107_1727_1842" style="mask-type:luminance" maskUnits="userSpaceOnUse" x="-26" y="0" width="511" height="272">
<path d="M484.388 0.257812H-25.8145V271.075H484.388V0.257812Z" fill="white"/>
</mask>
<g mask="url(#mask107_1727_1842)">
<path d="M289.75 165.957C288.007 165.559 286.835 164.252 286.592 164.023C286.592 164.023 285.848 164.074 286.714 165.647C286.786 165.778 286.947 166.116 287.068 166.354C287.118 166.452 287.049 166.565 286.939 166.574C285.933 166.65 284.921 166.256 282.982 166.656C282.715 166.711 282.637 167.346 282.647 167.616C282.665 168.075 282.632 168.588 283.168 169.29C283.481 169.699 284.352 170.138 286.293 170.913C287.033 171.208 289.146 170.985 291.128 170.31L292.711 169.584L292.22 166.668L291.823 166.751C291.19 166.882 290.409 166.118 289.75 165.957Z" fill="#E4BFC1"/>
</g>
<mask id="mask108_1727_1842" style="mask-type:luminance" maskUnits="userSpaceOnUse" x="-26" y="0" width="511" height="272">
<path d="M484.388 0.257812H-25.8145V271.075H484.388V0.257812Z" fill="white"/>
</mask>
<g mask="url(#mask108_1727_1842)">
<path d="M329.153 122.328C329.153 122.328 351.372 126.521 322.617 158.409C318.018 163.51 293.17 170.15 293.17 170.15C293.17 170.15 290.65 168.025 291.92 166.304C291.92 166.304 309.028 153.991 312.793 152.034C314.486 151.154 319.365 132.382 322.126 127.862C324.886 123.341 329.153 122.328 329.153 122.328Z" fill="#E61A1C"/>
</g>
<mask id="mask109_1727_1842" style="mask-type:luminance" maskUnits="userSpaceOnUse" x="-26" y="0" width="511" height="272">
<path d="M484.388 0.257812H-25.8145V271.075H484.388V0.257812Z" fill="white"/>
</mask>
<g mask="url(#mask109_1727_1842)">
<path d="M286.33 134.222C286.33 134.222 285.602 132.846 285.461 132.12C285.319 131.394 284.404 129.276 284.027 128.903C283.876 128.754 283.378 128.947 283.319 129.589C283.294 129.869 283.432 130.376 283.677 130.982C284.074 131.967 284.009 133.304 284.146 133.749C284.491 134.859 286.33 134.222 286.33 134.222Z" fill="#E4BFC1"/>
</g>
</svg>
