<svg width="272" height="294" viewBox="0 0 272 294" fill="none" xmlns="http://www.w3.org/2000/svg">
<path fill-rule="evenodd" clip-rule="evenodd" d="M104.309 281.045C109.361 283.532 128.291 297.359 131.275 292.641C133.808 293.116 132.44 292.991 132.883 292.191C134.919 292.525 133.707 292.494 134.243 291.546L132.883 292.191C129.759 291.849 131.671 292.105 131.275 292.641L128.943 292.735L129.06 264.358C129.2 264.327 129.744 264.234 129.884 264.172C131.329 263.48 131.01 263.558 131.539 263.216C123.504 264.358 110.923 254.309 104.177 249.28L96.6006 242.93C92.3266 239.619 79.8464 227.86 75.8988 223.065L66.7524 211.912C65.5246 210.256 65.237 209.323 64.017 207.722C61.9188 204.963 60.0149 202.274 58.3286 199.437C55.0337 193.88 51.6689 188.401 48.6227 181.841C34.091 150.511 31.1924 125.928 29.4828 91.9865C29.0477 83.3827 28.597 74.5846 28.5348 65.9808C28.4804 58.807 31.7364 60.1205 47.2628 57.7422C62.7892 55.3639 77.1188 52.1851 91.1454 47.1176C98.1237 44.5994 103.952 42.0968 110.557 39.2599C115.492 37.1381 125.773 30.7882 130.909 31.0292C130.358 30.6017 131.166 30.3685 129.138 29.8867C128.811 24.9746 129.052 19.0833 129.06 14.0469C129.068 9.65563 128.174 1.0518 130.194 0.328987C128.811 -1.42753 118.227 4.37053 116.005 5.45087C80.2583 22.9072 56.8832 28.34 17.8575 34.6432C12.2624 35.5448 1.88817 36.0189 0.55156 38.9568C-1.56214 45.3223 2.97608 110.337 4.46811 120.907C9.85338 159.131 28.9233 204.442 53.8448 233.705L83.1569 263.97C85.5037 265.921 87.5552 268.827 91.9847 271.587C96.0566 274.128 94.8755 273.949 98.1315 276.281C99.6702 277.385 103.493 279.786 104.294 281.061L104.309 281.045Z" fill="#666666"/>
<path fill-rule="evenodd" clip-rule="evenodd" d="M214.339 73.2009C212.917 75.2139 211.091 77.0015 209.078 78.4238L190.21 97.3957C186.861 100.419 184.04 103.784 180.714 106.924L142.543 144.752C140.204 146.99 134.92 151.941 133.451 154.335C131.081 157.218 131.804 155.431 129.084 157.032C128.765 163.996 128.454 204.784 129.651 207.466L132.915 207.287C136.062 206.665 144.02 197.882 145.978 195.784C150.431 191.02 153.694 188.113 158.357 183.418L207.446 134.321C220.898 121.093 237.59 103.52 250.583 91.2479C252.727 89.2194 254.662 87.4162 256.652 85.2866C270.492 70.4806 277.874 69.1749 266.218 58.0528C250.707 43.2546 250.855 36.6871 238.74 48.9982C234.551 53.2574 230.518 57.0036 226.353 61.3249L214.331 73.2009H214.339Z" fill="#CC1517"/>
<path fill-rule="evenodd" clip-rule="evenodd" d="M131.539 263.208C131.018 263.558 131.337 263.473 129.884 264.164C129.744 264.226 129.2 264.32 129.06 264.351L128.943 292.727L131.275 292.634C131.671 292.098 129.759 291.841 132.883 292.183L134.243 291.538C138.844 290.411 144.431 286.175 148.464 283.774C149.381 283.23 149.902 282.95 150.78 282.429C152.489 281.411 151.72 281.807 153.717 280.812C154.246 279.53 170.479 268.082 173.945 264.934C180.084 259.346 196.077 244.687 200.141 239.153C201.47 237.342 202.169 236.845 203.646 235.081C218.123 217.842 230.999 196.927 239.073 174.823C241.941 166.973 253.761 131.353 251.732 123.962L249.588 123.713C248.127 124.133 235.514 137.586 234.201 138.884C227.37 145.623 221.931 149.384 219.778 156.721C215.263 172.118 206.35 189.691 198.843 201.085L188.795 215.744C185.127 220.889 173.727 232.531 169.049 236.612L155.683 247.897C154.292 248.993 152.956 250.345 151.51 251.363C143.289 257.154 140.001 258.561 131.523 263.208H131.539Z" fill="#5A5A5A"/>
<path fill-rule="evenodd" clip-rule="evenodd" d="M132.922 207.289L129.659 207.467C128.462 204.786 128.765 163.997 129.091 157.034C131.811 155.433 131.088 157.22 133.459 154.337C127.902 157.15 127.778 157.282 117.396 146.059C114.023 142.414 110.472 139.266 107.162 136.025C100.246 129.256 93.6169 122.471 86.6463 115.95C81.3232 110.968 71.897 96.7602 62.0979 106.794C53.7829 115.305 43.5796 122.517 48.18 130.437C50.1927 133.911 74.1195 157.446 78.5179 161.534C90.9903 173.122 106.742 190.609 119.09 202.073C120.699 203.566 122.323 205.719 124.359 206.9C126.107 207.91 131.221 209.045 132.93 207.281L132.922 207.289Z" fill="#CC1517"/>
<path fill-rule="evenodd" clip-rule="evenodd" d="M130.917 31.0282C144.772 39.7875 175.677 50.2877 193.154 54.3759C201.531 56.3345 203.7 51.3681 213.538 41.5362C216.778 38.303 221.41 34.7977 221.293 31.9842C219.397 30.8961 200.98 27.1965 196.791 26.0851C179.827 21.5772 167.572 16.4243 151.727 9.70909C147.593 7.96034 133.1 0.545666 130.21 0.3125C128.189 1.03531 129.083 9.63914 129.075 14.0304C129.067 19.0668 128.826 24.9659 129.153 29.8702C131.181 30.3521 130.365 30.5852 130.925 31.0127L130.917 31.0282Z" fill="#5A5A5A"/>
</svg>
