<svg width="79" height="79" viewBox="0 0 79 79" fill="none" xmlns="http://www.w3.org/2000/svg">
<path d="M36.3116 22.3312H24.3579C23.2988 22.3312 22.2842 21.9115 21.5361 21.1622C20.7881 20.4142 20.3672 19.3995 20.3672 18.3417C20.3672 16.3235 20.3672 14.0201 20.3672 12.6549C20.3672 11.992 20.9041 11.4551 21.567 11.4551C22.3052 11.4551 23.2346 11.4551 23.8987 11.4551C24.4098 11.4551 24.864 11.7785 25.0319 12.2611C25.38 13.2671 25.9947 15.0459 26.5292 16.6259C26.7094 17.1591 27.2353 17.4961 27.7944 17.4356C32.5937 16.9221 53.8002 14.6496 53.8002 14.6496C55.0321 14.5176 56.2628 14.915 57.1849 15.7433C58.107 16.5716 58.6328 17.7529 58.6328 18.9922V18.9934C58.6328 19.8785 58.281 20.7277 57.6552 21.3535C57.0294 21.9794 56.1801 22.3312 55.2938 22.3312H45.4065" stroke="#CC1517" stroke-width="4" stroke-miterlimit="2" stroke-linecap="round" stroke-linejoin="round"/>
<path d="M47.0746 20.7383C47.0746 20.7383 41.0323 26.5189 38.7586 28.6926C38.2118 29.216 37.486 29.5073 36.7293 29.5073C36.1158 29.5073 35.3579 29.5073 34.6963 29.5073C34.3519 29.5073 34.0309 29.332 33.8445 29.0432C33.6582 28.7531 33.6322 28.3889 33.7742 28.0754C34.9049 25.5906 37.1107 20.7383 37.1107 20.7383" stroke="#CC1517" stroke-width="4" stroke-miterlimit="2" stroke-linecap="round" stroke-linejoin="round"/>
<path d="M46.8607 15.3927C46.8607 15.3927 46.0781 13.1177 45.6547 11.8833C45.4954 11.4204 45.0597 11.1094 44.5697 11.1094C43.7562 11.1094 42.5206 11.1094 41.7294 11.1094C41.2702 11.1094 40.8554 11.3834 40.6752 11.8043C40.0728 13.2115 38.7656 16.2604 38.7656 16.2604" stroke="#CC1517" stroke-width="4" stroke-miterlimit="2" stroke-linecap="round" stroke-linejoin="round"/>
<path d="M16.0469 61.7188V59.4364C16.0469 58.5785 15.7198 57.7527 15.1322 57.1281C13.888 55.8049 11.6439 53.4188 10.1478 51.8289C9.18005 50.7995 8.64062 49.4392 8.64062 48.0258C8.64062 43.4389 8.64062 32.8122 8.64062 27.1538C8.64062 25.1097 10.2972 23.4531 12.3413 23.4531H12.3462C13.3275 23.4531 14.2694 23.8432 14.9631 24.5369C15.6568 25.2306 16.0469 26.1725 16.0469 27.1538C16.0469 29.957 16.0469 33.3281 16.0469 33.3281" stroke="#CC1517" stroke-width="4" stroke-miterlimit="2" stroke-linecap="round" stroke-linejoin="round"/>
<path d="M62.9531 61.7188V59.4364C62.9531 58.5785 63.2802 57.7527 63.8678 57.1281C65.112 55.8049 67.3561 53.4188 68.8522 51.8289C69.82 50.7995 70.3594 49.4392 70.3594 48.0258C70.3594 43.4389 70.3594 32.8122 70.3594 27.1538C70.3594 25.1097 68.7028 23.4531 66.6587 23.4531H66.6538C65.6725 23.4531 64.7306 23.8432 64.0369 24.5369C63.3432 25.2306 62.9531 26.1725 62.9531 27.1538C62.9531 29.957 62.9531 33.3281 62.9531 33.3281" stroke="#CC1517" stroke-width="4" stroke-miterlimit="2" stroke-linecap="round" stroke-linejoin="round"/>
<path d="M35.7969 69.5928V63.5037C35.7969 63.0309 35.6093 62.5766 35.2735 62.2421C34.939 61.9064 34.4847 61.7188 34.012 61.7188C30.0496 61.7188 20.5598 61.7188 16.5974 61.7188C16.1246 61.7188 15.6704 61.9064 15.3359 62.2421C15.0001 62.5766 14.8125 63.0309 14.8125 63.5037C14.8125 65.8267 14.8125 69.5928 14.8125 69.5928" stroke="#CC1517" stroke-width="4" stroke-miterlimit="2" stroke-linecap="round" stroke-linejoin="round"/>
<path d="M43.2031 69.5928V63.5037C43.2031 63.0309 43.3907 62.5766 43.7265 62.2421C44.061 61.9064 44.5153 61.7188 44.988 61.7188C48.9504 61.7188 58.4403 61.7188 62.4026 61.7188C62.8754 61.7188 63.3296 61.9064 63.6641 62.2421C63.9999 62.5766 64.1875 63.0309 64.1875 63.5037C64.1875 65.8267 64.1875 69.5928 64.1875 69.5928" stroke="#CC1517" stroke-width="4" stroke-miterlimit="2" stroke-linecap="round" stroke-linejoin="round"/>
<path d="M34.562 61.7185V54.9405C34.562 51.9299 33.3276 49.0513 31.1465 46.9751C28.3234 44.2878 24.387 40.5415 21.901 38.174C20.5851 36.9223 18.5126 36.9482 17.2289 38.232L17.2264 38.2345C15.8933 39.5676 15.8933 41.7302 17.2264 43.0633C19.5816 45.4198 22.8144 48.6514 22.8144 48.6514" stroke="#CC1517" stroke-width="4" stroke-miterlimit="2" stroke-linecap="round" stroke-linejoin="round"/>
<path d="M44.4375 61.7185V54.9405C44.4375 51.9299 45.6719 49.0513 47.853 46.9751C50.676 44.2878 54.6125 40.5415 57.0985 38.174C58.4143 36.9223 60.4868 36.9482 61.7706 38.232L61.7731 38.2345C63.1062 39.5676 63.1062 41.7302 61.7731 43.0633C59.4179 45.4198 56.185 48.6514 56.185 48.6514" stroke="#CC1517" stroke-width="4" stroke-miterlimit="2" stroke-linecap="round" stroke-linejoin="round"/>
</svg>
