<svg width="54" height="64" viewBox="0 0 54 64" fill="none" xmlns="http://www.w3.org/2000/svg">
<g clip-path="url(#clip0_1711_3038)">
<path d="M24.4863 36.6894H30.9588V34.5288H30.248C30.248 35.3552 29.6436 35.9645 28.7202 35.9645H27.7237V32.739H28.7982V32.0234H24.4863V32.739H25.5726V35.9645H24.4863V36.6871V36.6894Z" fill="#666666"/>
<path d="M34.0711 36.6918L36.5882 36.6942L38.7252 32.7412H39.7972V32.0234H36.5741V32.7412H37.5068L35.9483 35.6174L34.3709 32.7412H35.502V32.0234H30.8266L30.8242 32.7412H31.8962L34.0711 36.6918Z" fill="#666666"/>
<path d="M11.5997 32.0234H6.92423L6.92188 32.7412H7.99156L10.1687 36.6918L12.6859 36.6942L14.8229 32.7412H15.8949V32.0234H12.6717V32.7412H13.6021L12.0459 35.6174L10.4686 32.7412H11.5997V32.0234Z" fill="#666666"/>
<path d="M16.5198 34.3587C16.5198 35.7331 17.6273 36.8263 19.847 36.8263C22.0666 36.8263 23.1623 35.7331 23.1623 34.3587C23.1623 33.0034 22.0005 31.9219 19.8329 31.9219C17.6675 31.9219 16.5176 33.0034 16.5176 34.3587H16.5198ZM20.9898 34.3706C20.9757 35.2182 20.6238 36.1015 19.8115 36.0872C19.0205 36.0731 18.6734 35.1994 18.6876 34.3304C18.7042 33.4308 19.1339 32.6467 19.8754 32.6586C20.6168 32.6727 21.0063 33.4709 20.9922 34.3706H20.9898Z" fill="#666666"/>
<path d="M40.416 34.3587C40.416 35.7331 41.5235 36.8263 43.7432 36.8263C45.9628 36.8263 47.0584 35.7331 47.0584 34.3587C47.0584 33.0034 45.8967 31.9219 43.7313 31.9219C41.566 31.9219 40.416 33.0034 40.416 34.3587ZM43.7714 32.6586C44.5105 32.6727 44.9025 33.4709 44.886 34.3706C44.8695 35.2182 44.52 36.1015 43.7077 36.0872C42.9167 36.0731 42.5695 35.1994 42.5837 34.3304C42.6002 33.4308 43.03 32.6467 43.7714 32.6586Z" fill="#666666"/>
<path d="M48.9336 19.5177L46.2251 22.2261C48.5463 25.8083 49.897 30.0799 49.897 34.668C49.897 47.3175 39.6418 57.5728 26.9922 57.5728C14.3426 57.5728 4.08736 47.3175 4.08736 34.668C4.08736 22.0184 14.3426 11.7631 26.9922 11.7631C31.5897 11.7631 35.8708 13.1185 39.46 15.4516L42.1684 12.7431C37.8614 9.756 32.631 8.00391 26.9922 8.00391C12.267 8.00391 0.328125 19.9403 0.328125 34.668C0.328125 49.3932 12.2646 61.332 26.9922 61.332C41.7174 61.332 53.6562 49.3956 53.6562 34.668C53.6562 29.0409 51.9112 23.8201 48.9359 19.5177H48.9336Z" fill="#666666"/>
<path d="M40.4028 9.05469V9.80323C42.0202 10.6793 43.5409 11.7135 44.9506 12.8753L41.1513 16.6746C42.5846 17.7986 43.8786 19.0926 45.005 20.5236L48.7996 16.729C49.9637 18.141 50.998 19.6641 51.8741 21.258H52.6037V9.05469H40.4004H40.4028Z" fill="#666666"/>
</g>
<defs>
<clipPath id="clip0_1711_3038">
<rect width="53.3281" height="63.9938" fill="white" transform="translate(0.328125 0.00390625)"/>
</clipPath>
</defs>
</svg>
