<svg width="118" height="64" viewBox="0 0 118 64" fill="none" xmlns="http://www.w3.org/2000/svg">
<g clip-path="url(#clip0_1711_3017)">
<path d="M68.055 34.9463C68.055 32.1812 66.8715 29.7383 62.8685 29.7383C60.8147 29.7383 59.1833 30.3236 58.2987 30.836L58.947 33.0543C59.7614 32.5434 61.061 32.1226 62.2874 32.1226C64.314 32.1198 64.646 33.2661 64.646 34.0032V34.1806C60.2222 34.1734 57.4258 35.702 57.4258 38.8148C57.4258 40.7169 58.8455 42.5001 61.3271 42.5001C62.8413 42.5001 64.1207 41.8889 64.885 40.9243H64.9594C64.9594 40.9243 65.4633 43.0325 68.2497 42.2267C68.108 41.3436 68.055 40.4134 68.055 39.2828V34.9463ZM64.7548 37.8659C64.7548 38.0892 64.7363 38.3211 64.6704 38.52C64.4156 39.3716 63.5368 40.0842 62.4434 40.0842C61.5204 40.0842 60.7962 39.5618 60.7962 38.467C60.7962 36.7925 62.6452 36.3317 64.7548 36.3432" fill="#666666"/>
<path d="M0.328125 25.9766C0.328125 25.9766 3.21765 37.798 3.67707 39.713C4.21805 41.9513 5.18696 42.7786 7.98349 42.2276L9.78962 34.8971C10.2462 33.0809 10.5567 31.7786 10.8516 29.928H10.9016C11.1063 31.7971 11.4011 33.0809 11.7747 34.9028C11.7747 34.9028 12.5117 38.2332 12.8939 39.9778C13.2659 41.7224 14.3135 42.823 17.0571 42.2276L21.3564 25.9766H17.8857L16.4102 33.0065C16.0196 35.0431 15.6646 36.6474 15.3884 38.5137H15.3383C15.0893 36.6674 14.773 35.129 14.3666 33.1338L12.838 25.9766H9.21717L7.5856 32.9507C7.12045 35.0803 6.6854 36.7877 6.41203 38.5952H6.36482C6.08288 36.8993 5.70077 34.7396 5.2957 32.6903C5.2957 32.6903 4.3268 27.6969 3.98478 25.9766" fill="#666666"/>
<path d="M31.0287 34.9463C31.0287 32.1812 29.8422 29.7383 25.8392 29.7383C23.7911 29.7383 22.1568 30.3236 21.2723 30.836L21.9206 33.0543C22.7321 32.5434 24.0302 32.1226 25.2609 32.1226C27.2875 32.1198 27.6195 33.2661 27.6195 34.0032V34.1806C23.1958 34.1734 20.3965 35.702 20.3965 38.8148C20.3965 40.7169 21.8219 42.5001 24.292 42.5001C25.8205 42.5001 27.0886 41.8889 27.8528 40.9243H27.9301C27.9301 40.9243 28.4368 43.0325 31.2204 42.2267C31.0773 41.3436 31.0287 40.4134 31.0287 39.2828V34.9463ZM27.7255 37.8659C27.7255 38.0892 27.707 38.3211 27.6439 38.52C27.3862 39.3716 26.5075 40.0842 25.4113 40.0842C24.4939 40.0842 23.7669 39.5618 23.7669 38.467C23.7669 36.7925 25.6159 36.3317 27.7255 36.3432" fill="#666666"/>
<path d="M32.8281 25.9766V42.2218H36.1313V38.7771V25.9766H32.8281Z" fill="#666666"/>
<path d="M78.1934 25.9766V37.9627C78.1934 39.6172 78.5039 40.7707 79.1721 41.4776C79.759 42.0973 80.7192 42.5009 81.8628 42.5009C82.8446 42.5009 83.8048 42.312 84.2586 42.1474L84.2186 39.567C83.8794 39.6457 83.4915 39.713 82.959 39.713C81.8313 39.713 81.4592 38.9988 81.4592 37.5132V32.9249H84.3359V29.8207H81.4592V25.9766" fill="#666666"/>
<path d="M69.6562 30.0181V42.2246H73.071V35.9732C73.071 35.6369 73.0924 35.3462 73.1454 35.0772C73.4001 33.7591 74.4006 32.9248 75.8417 32.9248C76.244 32.9248 76.5173 32.9691 76.8207 33.0163V29.8162C76.5659 29.7705 76.3928 29.7461 76.0793 29.7461C74.8012 29.7461 73.3529 30.5575 72.7418 32.325H72.6574V30.0181" fill="#666666"/>
<path d="M38.0508 30.0181V42.2246H41.3782V35.0601C41.3782 34.7237 41.4154 34.3803 41.5342 34.0696C41.8047 33.3441 42.4759 32.504 43.5536 32.504C44.8931 32.504 45.5258 33.6346 45.5258 35.2661V42.2246H48.8447V34.9743C48.8447 34.6579 48.8891 34.27 48.982 33.9895C49.2483 33.1666 49.9753 32.504 50.9801 32.504C52.3339 32.504 52.9895 33.6103 52.9895 35.5338V42.2246H56.3053V35.0272C56.3053 31.246 54.3819 29.7461 52.1979 29.7461C51.2377 29.7461 50.4734 29.9822 49.7864 30.4059C49.2054 30.7622 48.6959 31.2646 48.2393 31.9215H48.1893C47.664 30.6077 46.4303 29.7461 44.8187 29.7461C42.7522 29.7461 41.8133 30.7894 41.2609 31.6711H41.2108V30.0181" fill="#666666"/>
<path d="M102.208 29.4727C102.86 29.4727 103.41 29.1321 103.482 28.6941L104.128 21.3664C104.128 20.6408 103.274 20.0469 102.208 20.0469C101.136 20.0469 100.287 20.6408 100.287 21.3664L100.94 28.6941C101.008 29.1321 101.555 29.4727 102.208 29.4727Z" fill="#666666"/>
<path d="M98.2372 31.766C98.5607 31.1935 98.542 30.558 98.1929 30.2746L92.1532 26.0513C91.525 25.6849 90.5847 26.1214 90.0466 27.0459C89.5099 27.9691 89.6186 29.0052 90.2341 29.3643L96.9205 32.4643C97.3484 32.6246 97.908 32.3269 98.2372 31.7602" fill="#666666"/>
<path d="M106.175 31.7581C106.517 32.3249 107.077 32.6226 107.494 32.4709L114.18 29.3623C114.801 28.996 114.894 27.9697 114.369 27.0467C113.832 26.1221 112.886 25.6885 112.259 26.0477L106.218 30.2668C105.883 30.5546 105.859 31.1928 106.183 31.7638" fill="#666666"/>
<path d="M102.208 38.625C102.86 38.625 103.41 38.9657 103.482 39.4036L104.128 46.7312C104.128 47.4569 103.274 48.045 102.208 48.045C101.136 48.045 100.287 47.4569 100.287 46.7312L100.94 39.4036C101.008 38.9657 101.555 38.625 102.208 38.625Z" fill="#666666"/>
<path d="M106.175 36.3415C106.517 35.7733 107.077 35.4698 107.494 35.6345L114.18 38.7373C114.801 39.0964 114.894 40.1312 114.369 41.0557C113.832 41.9731 112.886 42.4096 112.259 42.0504L106.218 37.8256C105.883 37.5408 105.859 36.9053 106.183 36.3415" fill="#666666"/>
<path d="M98.2372 36.3354C98.5607 36.9064 98.542 37.5404 98.1929 37.8266L92.1532 42.0443C91.525 42.4107 90.5847 41.9727 90.0466 41.0554C89.5099 40.1323 89.6186 39.0961 90.2341 38.7369L96.9205 35.6341C97.3484 35.4709 97.908 35.7714 98.2372 36.3354Z" fill="#666666"/>
<path d="M116.136 41.4031H116.219C116.332 41.4031 116.378 41.4389 116.391 41.5291C116.415 41.6293 116.428 41.6966 116.452 41.7251H116.667C116.648 41.7037 116.624 41.6493 116.611 41.5234C116.587 41.4146 116.531 41.353 116.452 41.3315V41.3115C116.561 41.2873 116.624 41.2142 116.624 41.1241C116.624 41.0425 116.587 40.9838 116.55 40.9466C116.478 40.9122 116.409 40.885 116.258 40.885C116.123 40.885 116.024 40.8965 115.946 40.9152V41.7251H116.136V41.4031ZM116.142 41.034L116.239 41.021C116.354 41.021 116.415 41.074 116.415 41.1483C116.415 41.2314 116.332 41.2701 116.226 41.2701H116.142V41.034ZM116.263 40.4844C115.794 40.4844 115.422 40.8508 115.422 41.3001C115.422 41.761 115.794 42.1274 116.263 42.1274C116.739 42.1274 117.099 41.761 117.099 41.3001C117.099 40.8508 116.739 40.4844 116.263 40.4844ZM116.263 40.6489C116.624 40.6489 116.892 40.9409 116.892 41.3001C116.892 41.6622 116.624 41.9627 116.263 41.957C115.903 41.957 115.629 41.6622 115.629 41.3001C115.629 40.9409 115.903 40.6489 116.258 40.6489" fill="#666666"/>
</g>
<defs>
<clipPath id="clip0_1711_3017">
<rect width="117.328" height="63.9972" fill="white" transform="translate(0.328125)"/>
</clipPath>
</defs>
</svg>
