<svg width="294" height="88" viewBox="0 0 294 88" fill="none" xmlns="http://www.w3.org/2000/svg">
<rect width="294" height="87.5745" rx="13.4043" fill="black"/>
<g clip-path="url(#clip0_1980_3172)">
<path fill-rule="evenodd" clip-rule="evenodd" d="M22.9668 37.108L23.2253 40.301C23.7708 42.9079 24.6505 43.6293 25.2784 44.7966C25.9161 45.9819 26.731 46.3868 27.67 47.3221C30.6945 50.3356 37.8844 51.302 41.9005 49.3975L47.0719 46.5494C47.4369 46.306 48.0982 45.464 48.343 45.0891C48.76 44.4506 48.9933 44.1057 49.4894 43.5054C51.6292 40.9182 51.2961 40.5176 52.3816 38.391C53.2866 36.6174 53.0067 36.0193 53.3437 33.8915C53.7553 31.295 51.8355 27.5492 50.5722 26.0016C48.0417 22.9025 45.4601 21.6773 41.4939 22.2978C40.2651 22.4905 39.2685 22.5298 38.3531 23.1699C37.9881 23.4253 37.8405 23.494 37.4728 23.7478C35.3078 25.2425 33.6312 27.8952 33.9127 30.5681C34.1695 33.0026 35.5816 34.1246 37.8207 34.8667C39.2816 35.3508 41.4417 34.8777 42.6897 35.473C42.3989 35.8676 41.872 36.2365 41.3001 36.452C39.5637 37.1069 38.0507 38.015 35.2024 38.015C33.7448 38.015 30.6369 36.7942 30.6369 33.8381C30.6369 30.4121 31.7449 28.2614 33.6877 25.9759C34.4077 25.129 33.9006 25.4248 35.2463 24.0752C35.5964 23.7238 35.7259 23.5546 36.1222 23.3118L37.1353 22.6853C38.9963 21.3499 39.4545 20.9641 41.4033 19.847C41.7216 19.6647 42.2457 19.4137 42.5794 19.2003C43.4295 18.6574 42.8116 18.9226 43.238 18.0391C41.7266 18.0391 36.2715 19.3166 35.1475 19.8006C34.4653 20.0942 34.2189 20.2989 33.6152 20.6378C33.3167 20.8053 33.0681 20.9401 32.7904 21.0885C32.4446 21.273 32.246 21.3335 31.926 21.5005C29.2638 22.891 27.5586 25.5039 25.9139 27.6889C24.4233 29.6693 22.9668 34.3439 22.9668 37.1069V37.108Z" fill="white"/>
<path fill-rule="evenodd" clip-rule="evenodd" d="M19.3147 16.2255C19.1029 16.6648 18.9492 17.0201 18.9492 17.6782V34.0218C18.9492 34.7607 19.2373 34.9987 19.6797 35.2928C21.1071 34.3422 21.1461 31.7566 22.354 29.4171L23.428 27.398C23.5992 27.0891 23.6892 27.0149 23.866 26.7442C27.6489 20.94 28.8683 20.5732 34.0951 17.6668C34.454 17.467 34.9891 17.0343 35.3854 16.7707C34.454 15.3879 32.6825 15.9297 31.1574 16.0187C30.4187 16.0618 30.4225 15.8675 29.54 15.8495C27.9545 15.8184 28.7574 16.2648 26.2039 15.9123C25.2868 15.7857 20.0638 16.052 19.3142 16.2261L19.3147 16.2255Z" fill="white"/>
<path fill-rule="evenodd" clip-rule="evenodd" d="M43.0547 51.6387C44.5705 52.3618 53.2367 52.0016 55.473 52.0016C56.9279 52.0016 56.5695 49.6637 56.569 48.7327C56.5679 47.2866 56.5377 45.8066 56.5641 44.3648L56.5739 38.1955C56.5844 36.9677 56.6392 37.0212 56.204 36.2031C55.1361 36.2915 55.3002 36.536 54.5604 38.0193C54.0006 39.1418 51.2253 43.8933 50.4048 44.6011L48.6234 46.2803C48.3133 46.5832 48.4703 46.3742 48.1789 46.7463L45.3981 49.4291C45.122 49.5835 45.1209 49.5606 44.807 49.7489C44.0008 50.2318 43.3088 50.6935 43.0552 51.6387H43.0547Z" fill="white"/>
<path fill-rule="evenodd" clip-rule="evenodd" d="M56.386 26.5753L56.6242 20.7373C56.7043 15.291 56.6686 16.043 51.6378 16.043C49.5364 16.043 49.3783 16.8048 49.0694 18.5877C48.9365 19.3517 48.8312 19.94 49.4063 20.4388C50.8678 21.7059 53.1986 21.397 55.048 25.1821C55.5293 26.1671 55.1512 26.548 56.386 26.5759V26.5753Z" fill="white"/>
<path fill-rule="evenodd" clip-rule="evenodd" d="M18.7662 49.2761C18.7662 52.5061 21.0344 51.8185 24.7926 51.8185C25.4221 51.8185 25.4995 51.6843 26.0708 51.6368C26.0708 50.6764 26.0719 51.3661 26.2535 51.0922C26.0466 50.3233 25.3935 49.9162 24.7366 49.5134C24.2021 49.186 23.2389 48.5393 22.8224 48.1481C21.3823 46.7936 21.4015 45.8244 19.6788 44.918C19.1827 45.6541 19.0181 45.4746 18.9489 46.7347C18.8951 47.7208 18.7656 48.2288 18.7656 49.2761H18.7662Z" fill="white"/>
<path d="M75.811 48.1143L76.4756 52.2339C75.1096 52.5078 73.8825 52.6492 72.8118 52.6492C71.049 52.6492 69.6836 52.384 68.7051 51.8448C67.7359 51.3056 67.0532 50.6071 66.6564 49.7318C66.2596 48.8565 66.0659 47.0174 66.0659 44.2152V28.3545H62.4668V24.7473H66.0659V17.9395L70.9387 15.1367V24.7468H75.8115V28.3539H70.9387V44.4798C70.9387 45.8146 71.0216 46.6725 71.1966 47.0523C71.3629 47.4327 71.6395 47.7328 72.0275 47.9631C72.415 48.1841 72.9687 48.2987 73.6887 48.2987C74.2244 48.2987 74.9345 48.2371 75.8115 48.1132L75.811 48.1143Z" fill="white"/>
<path d="M80.5645 52.2788V24.748H84.939V28.9653C86.0552 27.0111 87.0892 25.7204 88.0397 25.1016C88.9902 24.474 90.033 24.1641 91.1684 24.1641C92.811 24.1641 94.4816 24.6596 96.1796 25.6408L94.4448 29.9465C93.2632 29.3096 92.0822 28.9915 90.9012 28.9915C89.8398 28.9915 88.8893 29.3009 88.0496 29.911C87.2099 30.5211 86.6101 31.3697 86.2501 32.4573C85.7056 34.1108 85.4378 35.9231 85.4378 37.8943V52.2782H80.565L80.5645 52.2788Z" fill="white"/>
<path d="M117.829 52.2813V48.1879C115.596 51.3089 112.569 52.8647 108.739 52.8647C107.05 52.8647 105.472 52.5553 104.005 51.9364C102.538 51.3089 101.449 50.5307 100.738 49.5937C100.027 48.648 99.529 47.4981 99.2425 46.1366C99.0488 45.2171 98.9473 43.7671 98.9473 41.7867V24.75H103.82V39.9831C103.82 42.4143 103.922 44.059 104.115 44.8989C104.42 46.1279 105.066 47.0823 106.063 47.7808C107.05 48.4793 108.268 48.833 109.726 48.833C111.185 48.833 112.55 48.4793 113.824 47.7634C115.097 47.0474 116.001 46.0662 116.537 44.8367C117.063 43.6077 117.331 41.8129 117.331 39.4701V24.75H122.203V52.2808H117.829L117.829 52.2813Z" fill="white"/>
<path d="M149.455 43.3706L154.494 44.0069C153.71 46.8097 152.242 48.9931 150.101 50.5408C147.961 52.0879 145.229 52.8655 141.897 52.8655C137.707 52.8655 134.385 51.6278 131.93 49.1525C129.475 46.6858 128.248 43.2112 128.248 38.7468C128.248 34.1316 129.484 30.5425 131.967 27.9962C134.45 25.4411 137.67 24.168 141.63 24.168C145.46 24.168 148.588 25.4144 151.015 27.9165C153.442 30.4186 154.66 33.9368 154.66 38.4728C154.66 38.7468 154.651 39.1626 154.633 39.7105H133.232C133.416 42.725 134.302 45.0416 135.908 46.6416C137.505 48.2417 139.507 49.0466 141.898 49.0466C143.679 49.0466 145.202 48.5953 146.457 47.6938C147.721 46.7922 148.718 45.351 149.456 43.3706H149.455ZM133.508 35.891H149.511C149.299 33.5745 148.68 31.8418 147.674 30.6838C146.133 28.889 144.121 27.9874 141.657 27.9874C139.424 27.9874 137.55 28.7034 136.027 30.1359C134.514 31.5679 133.674 33.4866 133.508 35.8916L133.508 35.891Z" fill="white"/>
<path d="M165.134 52.2815H160.594V14.3008H165.467V27.8542C167.525 25.3963 170.146 24.1673 173.339 24.1673C175.101 24.1673 176.781 24.5035 178.359 25.184C179.937 25.8645 181.229 26.8282 182.253 28.0572C183.269 29.2949 184.072 30.7803 184.643 32.5217C185.225 34.2543 185.511 36.1201 185.511 38.1005C185.511 42.804 184.293 46.4461 181.865 49.0104C179.429 51.583 176.513 52.8648 173.108 52.8648C169.721 52.8648 167.063 51.5126 165.134 48.8156V52.2815ZM165.079 38.3128C165.079 41.6018 165.549 43.98 166.481 45.4475C168.013 47.8437 170.08 49.0459 172.692 49.0459C174.824 49.0459 176.661 48.1619 178.202 46.3937C179.752 44.6256 180.527 41.9909 180.527 38.4896C180.527 34.9004 179.789 32.2564 178.303 30.5505C176.817 28.8441 175.017 27.9868 172.913 27.9868C170.782 27.9868 168.945 28.8708 167.404 30.639C165.853 32.4071 165.078 34.9621 165.078 38.3128H165.079Z" fill="white"/>
<path d="M222.242 52.2821V24.7513H226.617V28.6592C228.721 25.6621 231.766 24.168 235.744 24.168C237.479 24.168 239.066 24.4687 240.515 25.0613C241.964 25.6534 243.053 26.4403 243.773 27.4041C244.493 28.3678 245.001 29.5171 245.286 30.8432C245.462 31.7098 245.554 33.2214 245.554 35.3786V52.2827H240.681V35.5554C240.681 33.6547 240.497 32.2315 240.118 31.2945C239.74 30.3569 239.066 29.606 238.107 29.0396C237.147 28.4829 236.012 28.1997 234.72 28.1997C232.653 28.1997 230.872 28.8273 229.368 30.0917C227.864 31.3469 227.116 33.7431 227.116 37.2619V52.2827H222.243L222.242 52.2821Z" fill="white"/>
<path d="M271.586 52.2815V48.7894C269.768 51.5038 267.092 52.8648 263.557 52.8648C261.269 52.8648 259.164 52.264 257.254 51.0525C255.334 49.8503 253.849 48.1619 252.787 46.0047C251.735 43.8387 251.209 41.3541 251.209 38.5431C251.209 35.8025 251.689 33.3179 252.64 31.081C253.6 28.8534 255.03 27.1376 256.94 25.9534C258.841 24.76 260.982 24.1673 263.335 24.1673C265.07 24.1673 266.611 24.5209 267.959 25.2195C269.306 25.918 270.405 26.8375 271.254 27.96V14.3008H276.127V52.2815H271.587H271.586ZM256.193 38.5513C256.193 42.07 256.968 44.696 258.528 46.4374C260.078 48.1788 261.914 49.0454 264.028 49.0454C266.159 49.0454 267.968 48.2143 269.463 46.552C270.949 44.8898 271.696 42.3522 271.696 38.9398C271.696 35.1913 270.94 32.4327 269.417 30.6733C267.903 28.9139 266.03 28.0386 263.806 28.0386C261.637 28.0386 259.828 28.8785 258.37 30.5669C256.921 32.2554 256.193 34.9168 256.193 38.5507V38.5513Z" fill="white"/>
<path d="M189.619 38.517C189.619 33.4337 191.096 29.6671 194.058 27.218C196.523 25.1846 199.54 24.168 203.093 24.168C207.034 24.168 210.264 25.4057 212.774 27.8816C215.275 30.3482 216.53 33.7698 216.53 38.1279C216.53 41.6641 215.977 44.4402 214.87 46.4648C213.762 48.4894 212.147 50.0632 210.024 51.1858C207.911 52.3089 205.595 52.8655 203.093 52.8655C199.07 52.8655 195.821 51.6365 193.339 49.1699C190.857 46.7033 189.62 43.149 189.62 38.5165L189.619 38.517ZM194.603 38.5257C194.603 42.0445 195.406 44.6792 197.012 46.4206C198.627 48.1713 200.648 49.0466 203.093 49.0466C205.511 49.0466 207.523 48.1713 209.138 46.4119C210.744 44.6525 211.547 41.9736 211.547 38.3751C211.547 34.9802 210.735 32.4077 209.12 30.6658C207.505 28.9151 205.493 28.0398 203.093 28.0398C200.648 28.0398 198.627 28.9059 197.012 30.6478C195.406 32.3897 194.603 35.0152 194.603 38.5252V38.5257Z" fill="white"/>
<path d="M18.7656 73.0558V60.8438H21.1913V73.0558H18.7656Z" fill="white"/>
<path d="M23.498 73.0558V60.8438H25.8458L30.7757 69.0278V60.8438H33.0176V73.0558H30.5946L25.7399 65.0283V73.0558H23.498Z" fill="white"/>
<path d="M34.9453 69.1005L37.3046 68.862C37.4468 69.6664 37.731 70.2547 38.1635 70.6329C38.596 71.0111 39.1788 71.1988 39.912 71.1988C40.6875 71.1988 41.273 71.0312 41.666 70.6956C42.0595 70.36 42.257 69.9676 42.257 69.5185C42.257 69.2287 42.1736 68.9843 42.009 68.7796C41.8443 68.5777 41.5546 68.4014 41.1419 68.2536C40.8603 68.1515 40.2193 67.9752 39.215 67.7193C37.9237 67.3897 37.0176 66.9859 36.4962 66.5056C35.763 65.8317 35.3975 65.0104 35.3975 64.0412C35.3975 63.4185 35.5704 62.833 35.9134 62.2905C36.2592 61.7475 36.7553 61.3355 37.4051 61.0512C38.0548 60.7669 38.8358 60.625 39.7561 60.625C41.2533 60.625 42.3827 60.9633 43.1384 61.6428C43.8969 62.3222 44.2931 63.2259 44.3321 64.3604L41.9063 64.4456C41.8032 63.8147 41.5826 63.3629 41.2456 63.0867C40.9081 62.8111 40.4004 62.672 39.7259 62.672C39.029 62.672 38.4824 62.8199 38.0889 63.1151C37.8353 63.3056 37.7069 63.5582 37.7069 63.8769C37.7069 64.1667 37.8265 64.4144 38.0664 64.6191C38.3704 64.8832 39.1091 65.1566 40.283 65.4404C41.4569 65.722 42.3245 66.0172 42.8849 66.3184C43.4485 66.6224 43.8886 67.035 44.2064 67.5605C44.5241 68.0866 44.6833 68.7343 44.6833 69.5049C44.6833 70.2039 44.4934 70.8604 44.1114 71.4722C43.7295 72.0834 43.1911 72.538 42.4941 72.8337C41.7971 73.1322 40.9273 73.2801 39.8867 73.2801C38.3726 73.2801 37.2102 72.9249 36.3985 72.2116C35.5869 71.5006 35.105 70.4632 34.9459 69.1016L34.9453 69.1005Z" fill="white"/>
<path d="M46.7402 60.8443H49.1659V67.4616C49.1659 68.5132 49.1967 69.1927 49.2554 69.5026C49.3586 70.003 49.6011 70.4063 49.9859 70.7076C50.3733 71.0115 50.9002 71.1627 51.5697 71.1627C52.2475 71.1627 52.7606 71.0203 53.1064 70.7332C53.4521 70.4462 53.6585 70.0964 53.7282 69.6783C53.7979 69.2603 53.8341 68.57 53.8341 67.6035V60.8438H56.2603V67.2652C56.2603 68.7321 56.1961 69.7695 56.065 70.3747C55.9338 70.9804 55.694 71.4917 55.3427 71.9098C54.9942 72.3278 54.5256 72.6574 53.94 72.9046C53.3517 73.1518 52.5877 73.2768 51.6422 73.2768C50.5017 73.2768 49.6374 73.1431 49.0491 72.873C48.4607 72.6028 47.9953 72.2536 47.6523 71.8214C47.3093 71.3892 47.086 70.94 46.9773 70.4658C46.8182 69.7662 46.7402 68.7315 46.7402 67.3645V60.8438V60.8443Z" fill="white"/>
<path d="M58.8223 73.0552V60.8438H63.9168C65.1966 60.8438 66.1279 60.9545 66.708 61.1734C67.2909 61.3922 67.7535 61.7818 68.1025 62.3417C68.451 62.9049 68.6266 63.544 68.6266 64.2665C68.6266 65.1844 68.3649 65.9407 67.838 66.5377C67.3106 67.1348 66.5247 67.5097 65.476 67.6663C65.9973 67.9762 66.427 68.3173 66.7646 68.6895C67.1048 69.0622 67.562 69.7242 68.1366 70.6737L69.5975 73.0558H66.7058L64.9716 70.3894C64.3498 69.4426 63.9229 68.8456 63.6918 68.5984C63.463 68.3539 63.2204 68.1831 62.9641 68.0925C62.7051 68.0014 62.2978 67.9561 61.7397 67.9561H61.2491V73.0558H58.8234L58.8223 73.0552ZM61.248 66.0111H63.0382C64.1984 66.0111 64.9206 65.9598 65.2103 65.8605C65.4979 65.7612 65.7262 65.5877 65.8881 65.3432C66.0528 65.0987 66.1334 64.792 66.1334 64.4247C66.1334 64.0127 66.0248 63.6826 65.8102 63.4272C65.5956 63.1745 65.2916 63.0152 64.9008 62.9497C64.7027 62.9213 64.1144 62.9071 63.1359 62.9071H61.248V66.0111Z" fill="white"/>
<path d="M81.6964 73.0552H79.0835L78.049 70.2753H73.2448L72.2493 73.0552H69.6836L74.3347 60.8438H76.8976L81.6964 73.0552ZM77.2631 68.2115L75.5986 63.6918L73.9813 68.2115H77.2631Z" fill="white"/>
<path d="M82.9883 73.0558V60.8438H85.3366L90.266 69.0278V60.8438H92.5084V73.0558H90.0854L85.2302 65.0283V73.0558H82.9883Z" fill="white"/>
<path d="M102.733 68.5553L105.075 69.2888C104.715 70.6334 104.116 71.631 103.28 72.2848C102.443 72.9358 101.383 73.2627 100.098 73.2627C98.5055 73.2627 97.1977 72.7082 96.1714 71.5999C95.1479 70.4915 94.6348 68.9761 94.6348 67.0519C94.6348 65.0196 95.1506 63.4393 96.1796 62.3134C97.2087 61.1876 98.5637 60.625 100.242 60.625C101.709 60.625 102.9 61.0687 103.815 61.9527C104.361 62.4755 104.768 63.2259 105.042 64.2065L102.649 64.7866C102.507 64.1558 102.212 63.6554 101.763 63.2886C101.311 62.9219 100.764 62.7402 100.123 62.7402C99.2337 62.7402 98.511 63.0638 97.9589 63.7148C97.404 64.3631 97.128 65.4147 97.128 66.8702C97.128 68.4107 97.4013 69.5109 97.9446 70.1646C98.4912 70.8211 99.1997 71.148 100.072 71.148C100.717 71.148 101.271 70.9407 101.734 70.5226C102.197 70.1046 102.532 69.4509 102.732 68.5553H102.733Z" fill="white"/>
<path d="M107.152 73.0558V60.8438H116.019V62.9076H109.578V65.6193H115.568V67.6832H109.578V70.9919H116.254V73.0558H107.152Z" fill="white"/>
<path d="M122.959 60.8438H127.749C128.701 60.8438 129.406 60.8836 129.872 60.9633C130.34 61.0457 130.756 61.2132 131.124 61.4664C131.492 61.7218 131.799 62.0601 132.044 62.4842C132.29 62.9076 132.413 63.3851 132.413 63.9112C132.413 64.4799 132.262 65.0059 131.961 65.4801C131.66 65.9576 131.25 66.3129 130.734 66.5519C131.462 66.7708 132.019 67.1402 132.413 67.6636C132.803 68.1869 132.998 68.8003 132.998 69.5081C132.998 70.0652 132.873 70.6055 132.619 71.131C132.365 71.6571 132.02 72.0773 131.579 72.3933C131.141 72.706 130.601 72.8991 129.956 72.9734C129.555 73.0159 128.581 73.0443 127.039 73.0558H122.96V60.8443L122.959 60.8438ZM125.385 62.8733V65.6875H126.969C127.908 65.6875 128.494 65.6733 128.723 65.645C129.135 65.5969 129.461 65.4518 129.698 65.21C129.935 64.9683 130.052 64.6528 130.052 64.2605C130.052 63.8823 129.949 63.5783 129.745 63.342C129.542 63.1063 129.238 62.9639 128.836 62.9158C128.596 62.8875 127.908 62.8733 126.773 62.8733H125.384H125.385ZM125.385 67.717V70.9913H127.627C128.496 70.9913 129.052 70.9657 129.286 70.9177C129.646 70.8494 129.939 70.6874 130.164 70.4287C130.39 70.1673 130.504 69.823 130.504 69.3886C130.504 69.0191 130.418 68.7091 130.242 68.4532C130.069 68.1978 129.816 68.0101 129.486 67.8933C129.158 67.7765 128.441 67.717 127.34 67.717H125.385Z" fill="white"/>
<path d="M135.043 73.0552V60.8438H140.138C141.417 60.8438 142.349 60.9545 142.929 61.1734C143.512 61.3922 143.974 61.7818 144.323 62.3417C144.672 62.9049 144.847 63.544 144.847 64.2665C144.847 65.1844 144.586 65.9407 144.058 66.5377C143.531 67.1348 142.745 67.5097 141.696 67.6663C142.217 67.9762 142.647 68.3173 142.984 68.6895C143.324 69.0622 143.782 69.7242 144.356 70.6737L145.817 73.0558H142.925L141.191 70.3894C140.569 69.4426 140.142 68.8456 139.911 68.5984C139.683 68.3539 139.44 68.1831 139.184 68.0925C138.924 68.0014 138.517 67.9561 137.959 67.9561H137.469V73.0558H135.043V73.0552ZM137.469 66.0111H139.259C140.419 66.0111 141.141 65.9598 141.431 65.8605C141.718 65.7612 141.947 65.5877 142.109 65.3432C142.273 65.0987 142.354 64.792 142.354 64.4247C142.354 64.0127 142.245 63.6826 142.031 63.4272C141.816 63.1745 141.512 63.0152 141.122 62.9497C140.923 62.9213 140.335 62.9071 139.357 62.9071H137.469V66.0111Z" fill="white"/>
<path d="M146.624 67.0262C146.624 65.7809 146.807 64.7353 147.173 63.8884C147.444 63.2657 147.817 62.7058 148.288 62.2114C148.76 61.717 149.275 61.3503 149.836 61.1085C150.583 60.7876 151.445 60.625 152.421 60.625C154.189 60.625 155.6 61.1849 156.662 62.3025C157.722 63.4223 158.251 64.9776 158.251 66.97C158.251 68.9455 157.724 70.4921 156.673 71.6064C155.622 72.7235 154.214 73.2807 152.454 73.2807C150.672 73.2807 149.252 72.7262 148.201 71.6146C147.15 70.5063 146.623 68.9766 146.623 67.0268L146.624 67.0262ZM149.116 66.9438C149.116 68.3283 149.431 69.3772 150.059 70.0932C150.686 70.807 151.484 71.1649 152.449 71.1649C153.416 71.1649 154.208 70.8097 154.83 70.1019C155.449 69.3914 155.758 68.3283 155.758 66.9095C155.758 65.5081 155.457 64.4619 154.852 63.7743C154.25 63.0834 153.45 62.7396 152.449 62.7396C151.45 62.7396 150.645 63.0895 150.034 63.7858C149.423 64.4848 149.116 65.537 149.116 66.9438Z" fill="white"/>
<path d="M160.172 73.0558V60.8438H162.598V66.2534L167.486 60.8438H170.737L166.217 65.5997L170.972 73.0558H167.843L164.547 67.3225L162.598 69.3629V73.0558H160.172Z" fill="white"/>
<path d="M172.221 73.0558V60.8438H181.088V62.9076H174.646V65.6193H180.636V67.6832H174.646V70.9919H181.322V73.0558H172.221Z" fill="white"/>
<path d="M183.381 73.0552V60.8438H188.475C189.755 60.8438 190.687 60.9545 191.267 61.1734C191.849 61.3922 192.312 61.7818 192.661 62.3417C193.01 62.9049 193.185 63.544 193.185 64.2665C193.185 65.1844 192.923 65.9407 192.396 66.5377C191.869 67.1348 191.083 67.5097 190.034 67.6663C190.555 67.9762 190.985 68.3173 191.323 68.6895C191.663 69.0622 192.12 69.7242 192.695 70.6737L194.156 73.0558H191.264L189.53 70.3894C188.907 69.4426 188.481 68.8456 188.25 68.5984C188.021 68.3539 187.778 68.1831 187.522 68.0925C187.263 68.0014 186.856 67.9561 186.298 67.9561H185.807V73.0558H183.381L183.381 73.0552ZM185.807 66.0111H187.597C188.757 66.0111 189.479 65.9598 189.769 65.8605C190.056 65.7612 190.285 65.5877 190.447 65.3432C190.611 65.0987 190.692 64.792 190.692 64.4247C190.692 64.0127 190.583 63.6826 190.369 63.4272C190.154 63.1745 189.85 63.0152 189.459 62.9497C189.261 62.9213 188.673 62.9071 187.694 62.9071H185.807V66.0111Z" fill="white"/>
<path d="M194.828 69.1005L197.187 68.862C197.329 69.6664 197.614 70.2547 198.046 70.6329C198.478 71.0111 199.061 71.1988 199.794 71.1988C200.57 71.1988 201.155 71.0312 201.548 70.6956C201.942 70.36 202.139 69.9676 202.139 69.5185C202.139 69.2287 202.056 68.9843 201.891 68.7796C201.727 68.5777 201.437 68.4014 201.024 68.2536C200.743 68.1515 200.101 67.9752 199.097 67.7193C197.806 67.3897 196.9 66.9859 196.379 66.5056C195.645 65.8317 195.28 65.0104 195.28 64.0412C195.28 63.4185 195.453 62.833 195.796 62.2905C196.142 61.7475 196.638 61.3355 197.288 61.0512C197.938 60.7669 198.719 60.625 199.638 60.625C201.136 60.625 202.265 60.9633 203.021 61.6428C203.779 62.3222 204.175 63.2259 204.214 64.3604L201.789 64.4456C201.685 63.8147 201.465 63.3629 201.128 63.0867C200.79 62.8111 200.283 62.672 199.608 62.672C198.911 62.672 198.365 62.8199 197.971 63.1151C197.718 63.3056 197.589 63.5582 197.589 63.8769C197.589 64.1667 197.709 64.4144 197.949 64.6191C198.253 64.8832 198.992 65.1566 200.166 65.4404C201.34 65.722 202.207 66.0172 202.767 66.3184C203.331 66.6224 203.771 67.035 204.089 67.5605C204.407 68.0866 204.566 68.7343 204.566 69.5049C204.566 70.2039 204.376 70.8604 203.994 71.4722C203.612 72.0834 203.074 72.538 202.377 72.8337C201.68 73.1322 200.81 73.2801 199.77 73.2801C198.255 73.2801 197.092 72.9249 196.281 72.2116C195.47 71.5006 194.988 70.4632 194.829 69.1016L194.828 69.1005Z" fill="white"/>
<path d="M211.338 73.0547V60.9453H213.764V70.9908H219.77V73.0547H211.338Z" fill="white"/>
<path d="M221.408 73.0558V60.8438H223.834V73.0558H221.408Z" fill="white"/>
<path d="M226.105 73.0558V60.8438H229.739L231.886 69.1725L234.008 60.8438H237.65V73.0558H235.408L235.399 63.4419L233.038 73.0558H230.707L228.356 63.4419L228.347 73.0558H226.105Z" fill="white"/>
<path d="M239.992 73.0558V60.8438H242.418V73.0558H239.992Z" fill="white"/>
<path d="M247.418 73.0558V62.9076H243.871V60.8438H253.374V62.9076H249.844V73.0558H247.418Z" fill="white"/>
<path d="M254.943 73.0558V60.8438H263.81V62.9076H257.369V65.6193H263.359V67.6832H257.369V70.9919H264.045V73.0558H254.943Z" fill="white"/>
<path d="M266.104 60.8438H270.515C271.51 60.8438 272.269 60.9207 272.791 61.0768C273.49 61.2874 274.093 61.6623 274.592 62.2026C275.093 62.7401 275.473 63.3993 275.735 64.1808C275.994 64.9595 276.125 65.9233 276.125 67.066C276.125 68.0723 276.002 68.9362 275.757 69.6641C275.458 70.5537 275.032 71.2729 274.477 71.8219C274.059 72.2399 273.493 72.5641 272.782 72.7971C272.249 72.9706 271.538 73.0558 270.646 73.0558H266.104V60.8443V60.8438ZM268.529 62.9076V70.9919H270.328C271 70.9919 271.485 70.952 271.783 70.8756C272.177 70.7763 272.5 70.6055 272.756 70.367C273.015 70.128 273.225 69.7356 273.386 69.1899C273.551 68.6442 273.631 67.8966 273.631 66.953C273.631 66.0095 273.551 65.2875 273.386 64.7816C273.224 64.2752 272.996 63.8834 272.703 63.5991C272.41 63.3175 272.039 63.1243 271.587 63.025C271.252 62.948 270.592 62.9087 269.61 62.9087H268.529L268.529 62.9076Z" fill="white"/>
</g>
<defs>
<clipPath id="clip0_1980_3172">
<rect width="257.362" height="58.9787" fill="white" transform="translate(18.7656 14.2969)"/>
</clipPath>
</defs>
</svg>
